<?xml version="1.0" encoding="UTF-8"?>
<svg xmlns="http://www.w3.org/2000/svg" xmlns:xlink="http://www.w3.org/1999/xlink" width="1620pt" height="449.999984pt" viewBox="0 0 1620 449.999984" version="1.2">
<g id="surface1">
<path style=" stroke:none;fill-rule:nonzero;fill:rgb(97.24884%,86.268616%,81.17981%);fill-opacity:1;" d="M 1610.949219 411.691406 C 1588.796875 382.078125 1565.71875 353.277344 1536.28125 330.320312 C 1510.429688 310.136719 1484.582031 289.914062 1458.914062 269.46875 C 1449.300781 261.816406 1439.648438 254.054688 1430.992188 245.367188 C 1411.355469 225.511719 1410.949219 215.421875 1429.144531 195.085938 C 1464.203125 155.9375 1500.890625 118.414062 1539.09375 82.332031 C 1562.355469 60.371094 1585.171875 37.929688 1608.101562 15.601562 C 1610.765625 13.011719 1614.683594 10.683594 1612.796875 4.585938 C 1604.996094 4.585938 1596.820312 4.4375 1588.648438 4.621094 C 1487.761719 6.875 1386.875 6.136719 1285.949219 5.953125 C 1221.121094 5.839844 1156.289062 4.730469 1091.460938 4.804688 C 998.820312 4.878906 906.21875 5.433594 813.578125 5.914062 C 720.9375 5.433594 628.296875 4.878906 535.691406 4.804688 C 470.828125 4.730469 405.996094 5.839844 341.167969 5.953125 C 240.28125 6.136719 139.355469 6.875 38.46875 4.621094 C 30.332031 4.4375 22.160156 4.585938 14.320312 4.585938 C 12.46875 10.683594 16.351562 13.011719 19.015625 15.601562 C 41.945312 37.929688 64.761719 60.371094 88.023438 82.332031 C 126.265625 118.414062 162.949219 155.9375 197.972656 195.085938 C 216.167969 215.421875 215.796875 225.511719 196.125 245.367188 C 187.507812 254.054688 177.855469 261.816406 168.238281 269.46875 C 142.574219 289.914062 116.722656 310.136719 90.835938 330.320312 C 61.398438 353.277344 38.355469 382.078125 16.203125 411.691406 C 11.324219 418.195312 7.367188 425.292969 7.035156 433.132812 C 11.953125 437.605469 17.019531 437.125 21.863281 437.234375 C 39.097656 437.53125 56.332031 437.789062 73.5625 437.828125 C 95.714844 437.9375 117.867188 437.273438 139.945312 440.191406 C 145.605469 440.96875 151.410156 440.820312 157.144531 440.746094 C 204.738281 440.15625 252.300781 441.894531 299.894531 439.121094 C 321.9375 437.863281 344.164062 439.710938 366.316406 440.191406 C 372.046875 440.304688 377.78125 440.601562 383.511719 440.636719 C 459.84375 441.226562 536.210938 440.820312 612.503906 442.597656 C 664.167969 443.816406 715.832031 447.03125 767.496094 445.589844 C 782.917969 445.183594 798.304688 444.480469 813.578125 443.707031 C 828.851562 444.480469 844.234375 445.183594 859.621094 445.589844 C 911.320312 447.03125 962.949219 443.816406 1014.613281 442.597656 C 1090.941406 440.820312 1167.273438 441.226562 1243.605469 440.636719 C 1249.335938 440.601562 1255.105469 440.304688 1260.839844 440.191406 C 1282.953125 439.710938 1305.21875 437.863281 1327.222656 439.121094 C 1374.816406 441.894531 1422.414062 440.15625 1469.972656 440.746094 C 1475.707031 440.820312 1481.546875 440.96875 1487.207031 440.191406 C 1509.25 437.273438 1531.4375 437.9375 1553.589844 437.828125 C 1570.824219 437.789062 1588.058594 437.53125 1605.289062 437.234375 C 1610.097656 437.125 1615.164062 437.605469 1620.121094 433.132812 C 1619.75 425.292969 1615.792969 418.195312 1610.949219 411.691406 "/>
<path style=" stroke:none;fill-rule:nonzero;fill:rgb(36.079407%,88.238525%,90.19928%);fill-opacity:1;" d="M 540.464844 39.003906 C 537.617188 39.003906 535.324219 36.785156 535.324219 34.011719 C 535.324219 31.238281 537.578125 28.945312 540.425781 28.945312 L 564.613281 28.910156 L 571.269531 28.910156 C 574.082031 28.910156 576.375 31.164062 576.375 33.9375 C 576.375 36.746094 574.082031 39.003906 571.269531 39.003906 L 560.25 38.964844 Z M 1033.324219 39.039062 C 1030.476562 39.039062 1028.183594 36.785156 1028.183594 34.011719 C 1028.183594 31.238281 1030.476562 28.984375 1033.289062 28.945312 L 1064.09375 28.910156 L 1064.132812 28.910156 C 1066.941406 28.910156 1069.234375 31.164062 1069.234375 33.9375 C 1069.234375 36.710938 1066.941406 38.964844 1064.132812 38.964844 Z M 632.84375 39.113281 L 602.039062 39.039062 C 599.226562 39.003906 596.898438 36.746094 596.9375 33.976562 C 596.9375 31.203125 599.226562 28.945312 602.074219 28.945312 L 632.882812 29.058594 C 635.691406 29.058594 638.023438 31.3125 637.984375 34.085938 C 637.984375 36.859375 635.691406 39.113281 632.84375 39.113281 Z M 1125.707031 39.1875 L 1125.667969 39.1875 L 1094.898438 39.003906 C 1092.050781 39.003906 1089.757812 36.746094 1089.757812 33.976562 C 1089.796875 31.203125 1092.089844 28.945312 1094.898438 28.945312 L 1125.742188 29.09375 C 1128.589844 29.132812 1130.882812 31.425781 1130.847656 34.195312 C 1130.808594 36.96875 1128.515625 39.1875 1125.707031 39.1875 Z M 971.710938 39.226562 C 968.863281 39.226562 966.570312 36.96875 966.570312 34.195312 C 966.570312 31.425781 968.863281 29.167969 971.675781 29.132812 L 1002.480469 29.058594 L 1002.519531 29.058594 C 1005.328125 29.058594 1007.621094 31.277344 1007.660156 34.085938 C 1007.660156 36.859375 1005.367188 39.113281 1002.519531 39.113281 Z M 140.019531 39.335938 C 139.984375 39.335938 139.984375 39.335938 139.945312 39.335938 C 131.144531 39.1875 122.34375 39.003906 113.578125 38.816406 L 109.179688 38.78125 C 106.367188 38.742188 104.074219 36.488281 104.074219 33.714844 C 104.113281 30.945312 106.40625 28.6875 109.214844 28.6875 L 109.253906 28.6875 L 113.765625 28.761719 C 122.566406 28.945312 131.332031 29.09375 140.09375 29.242188 C 142.941406 29.316406 145.199219 31.570312 145.160156 34.382812 C 145.125 37.117188 142.832031 39.335938 140.019531 39.335938 Z M 694.457031 39.335938 L 663.652344 39.226562 C 660.804688 39.226562 658.511719 36.96875 658.546875 34.160156 C 658.546875 31.425781 660.839844 29.167969 663.652344 29.167969 C 663.6875 29.167969 663.6875 29.167969 663.6875 29.167969 L 694.496094 29.28125 C 697.34375 29.28125 699.597656 31.535156 699.597656 34.34375 C 699.597656 37.117188 697.304688 39.335938 694.457031 39.335938 Z M 478.851562 39.410156 C 476.039062 39.410156 473.746094 37.191406 473.710938 34.417969 C 473.710938 31.644531 475.96875 29.390625 478.816406 29.355469 L 509.621094 29.09375 L 509.65625 29.09375 C 512.46875 29.09375 514.761719 31.351562 514.796875 34.121094 C 514.796875 36.894531 512.542969 39.152344 509.695312 39.1875 L 478.886719 39.410156 Z M 910.101562 39.484375 C 907.289062 39.484375 904.996094 37.226562 904.960938 34.492188 C 904.960938 31.683594 907.253906 29.429688 910.0625 29.429688 L 940.90625 29.28125 C 943.753906 29.28125 946.046875 31.535156 946.046875 34.269531 C 946.046875 37.082031 943.753906 39.335938 940.945312 39.335938 L 910.136719 39.484375 Z M 756.070312 39.632812 L 725.261719 39.484375 C 722.414062 39.484375 720.125 37.226562 720.125 34.417969 C 720.160156 31.644531 722.453125 29.429688 725.261719 29.429688 C 725.300781 29.429688 725.300781 29.429688 725.300781 29.429688 L 756.105469 29.574219 C 758.917969 29.574219 761.210938 31.867188 761.210938 34.640625 C 761.210938 37.375 758.917969 39.632812 756.070312 39.632812 Z M 1187.320312 39.707031 C 1187.320312 39.707031 1187.28125 39.707031 1187.28125 39.707031 L 1156.476562 39.410156 C 1153.628906 39.410156 1151.371094 37.117188 1151.371094 34.34375 C 1151.410156 31.570312 1153.703125 29.355469 1156.511719 29.355469 C 1156.511719 29.355469 1156.550781 29.355469 1156.550781 29.355469 L 1187.355469 29.613281 C 1190.203125 29.648438 1192.460938 31.90625 1192.460938 34.714844 C 1192.421875 37.449219 1190.128906 39.707031 1187.320312 39.707031 Z M 1464.535156 39.707031 C 1461.761719 39.707031 1459.433594 37.488281 1459.433594 34.714844 C 1459.394531 31.941406 1461.652344 29.648438 1464.5 29.613281 C 1474.742188 29.5 1485.023438 29.390625 1495.269531 29.207031 C 1495.304688 29.207031 1495.34375 29.207031 1495.34375 29.207031 C 1498.152344 29.207031 1500.445312 31.425781 1500.484375 34.160156 C 1500.558594 36.933594 1498.265625 39.226562 1495.453125 39.296875 C 1485.171875 39.445312 1474.890625 39.59375 1464.609375 39.707031 C 1464.609375 39.707031 1464.574219 39.707031 1464.535156 39.707031 Z M 848.488281 39.777344 C 845.675781 39.777344 843.347656 37.523438 843.347656 34.75 C 843.347656 31.980469 845.640625 29.6875 848.449219 29.6875 L 879.257812 29.539062 L 879.292969 29.539062 C 882.105469 29.539062 884.398438 31.792969 884.433594 34.566406 C 884.433594 37.339844 882.140625 39.59375 879.332031 39.632812 L 848.523438 39.777344 Z M 417.238281 39.890625 C 414.429688 39.890625 412.136719 37.671875 412.097656 34.863281 C 412.097656 32.089844 414.390625 29.835938 417.203125 29.796875 L 448.007812 29.613281 L 448.046875 29.613281 C 450.855469 29.613281 453.148438 31.832031 453.1875 34.605469 C 453.1875 37.375 450.929688 39.632812 448.082031 39.667969 L 417.277344 39.890625 Z M 817.683594 39.925781 L 786.875 39.777344 C 784.027344 39.777344 781.734375 37.523438 781.734375 34.714844 C 781.773438 31.980469 784.066406 29.722656 786.875 29.722656 C 786.875 29.722656 786.875 29.722656 786.914062 29.722656 L 816.683594 29.871094 C 819.53125 29.871094 822.304688 32.125 822.304688 34.898438 C 822.304688 37.671875 820.53125 39.925781 817.683594 39.925781 Z M 201.632812 40 C 201.597656 40 201.597656 40 201.597656 40 C 191.316406 39.925781 181.035156 39.851562 170.753906 39.742188 C 167.941406 39.707031 165.648438 37.414062 165.6875 34.640625 C 165.722656 31.90625 168.015625 29.648438 170.828125 29.648438 C 170.828125 29.648438 170.863281 29.648438 170.863281 29.648438 C 181.144531 29.761719 191.390625 29.871094 201.632812 29.945312 C 204.480469 29.945312 206.773438 32.238281 206.738281 35.011719 C 206.738281 37.78125 204.445312 40 201.632812 40 Z M 1248.929688 40 L 1218.125 39.890625 C 1215.277344 39.890625 1212.984375 37.597656 1212.984375 34.824219 C 1213.019531 32.050781 1215.3125 29.835938 1218.125 29.835938 C 1218.160156 29.835938 1218.160156 29.835938 1218.160156 29.835938 L 1248.929688 29.945312 C 1251.777344 29.945312 1254.070312 32.164062 1254.070312 34.972656 C 1254.070312 37.746094 1251.777344 40 1248.929688 40 Z M 355.628906 40.074219 C 352.816406 40.074219 350.523438 37.820312 350.488281 35.046875 C 350.488281 32.273438 352.78125 30.019531 355.628906 29.980469 L 386.433594 29.910156 C 389.28125 29.910156 391.574219 32.164062 391.574219 34.9375 C 391.574219 37.746094 389.28125 39.964844 386.46875 40 L 355.664062 40.074219 Z M 1310.542969 40.148438 L 1310.507812 40.148438 L 1279.738281 40.074219 C 1276.890625 40.039062 1274.597656 37.78125 1274.597656 35.011719 C 1274.597656 32.238281 1276.890625 29.980469 1279.738281 29.980469 L 1310.542969 30.054688 C 1313.390625 30.09375 1315.683594 32.347656 1315.683594 35.121094 C 1315.648438 37.894531 1313.355469 40.148438 1310.542969 40.148438 Z M 1402.960938 40.148438 C 1400.113281 40.148438 1397.820312 37.894531 1397.820312 35.121094 C 1397.820312 32.347656 1400.113281 30.09375 1402.925781 30.054688 L 1433.730469 29.910156 C 1433.730469 29.910156 1433.765625 29.910156 1433.765625 29.910156 C 1436.578125 29.910156 1438.871094 32.125 1438.90625 34.898438 C 1438.90625 37.707031 1436.613281 39.964844 1433.804688 39.964844 Z M 294.015625 40.1875 C 291.203125 40.1875 288.910156 37.929688 288.910156 35.195312 C 288.875 32.386719 291.167969 30.128906 294.015625 30.128906 L 324.820312 30.054688 C 327.667969 30.054688 329.960938 32.3125 329.960938 35.085938 C 329.960938 37.855469 327.667969 40.113281 324.859375 40.148438 L 294.050781 40.1875 Z M 1372.15625 40.222656 L 1341.347656 40.1875 C 1338.5 40.1875 1336.207031 37.929688 1336.207031 35.15625 C 1336.207031 32.386719 1338.539062 30.128906 1341.347656 30.128906 L 1372.15625 30.128906 C 1375.003906 30.128906 1377.296875 32.386719 1377.296875 35.195312 C 1377.296875 37.96875 1375.003906 40.222656 1372.15625 40.222656 Z M 263.246094 40.222656 C 263.246094 40.222656 263.246094 40.222656 263.207031 40.222656 L 232.402344 40.148438 C 229.59375 40.148438 227.261719 37.894531 227.300781 35.121094 C 227.300781 32.347656 229.59375 30.09375 232.441406 30.09375 L 263.246094 30.128906 C 266.054688 30.128906 268.347656 32.386719 268.347656 35.195312 C 268.347656 37.96875 266.054688 40.222656 263.246094 40.222656 Z M 1534.394531 50.90625 C 1533.027344 50.90625 1531.660156 50.351562 1530.660156 49.316406 C 1528.699219 47.285156 1528.8125 44.105469 1530.882812 42.183594 L 1534.617188 38.78125 L 1526.148438 38.742188 C 1523.339844 38.742188 1521.007812 36.488281 1521.007812 33.714844 C 1521.007812 30.945312 1523.339844 28.6875 1526.148438 28.6875 L 1541.570312 28.726562 C 1543.789062 28.726562 1545.785156 30.128906 1546.453125 32.238281 C 1546.933594 33.605469 1547.15625 35.011719 1547.15625 36.304688 C 1547.15625 41.441406 1543.714844 44.363281 1541.679688 46.101562 L 1537.910156 49.539062 C 1536.910156 50.425781 1535.652344 50.90625 1534.394531 50.90625 Z M 119.941406 70.203125 C 118.683594 70.203125 117.425781 69.761719 116.425781 68.835938 L 93.976562 48.171875 C 91.90625 46.25 91.796875 43.070312 93.71875 41.035156 C 95.679688 39.003906 98.898438 38.929688 100.96875 40.8125 L 123.453125 61.480469 C 125.523438 63.402344 125.636719 66.582031 123.710938 68.617188 C 122.675781 69.6875 121.308594 70.203125 119.941406 70.203125 Z M 1489.351562 92.128906 C 1487.984375 92.128906 1486.578125 91.574219 1485.578125 90.5 C 1483.65625 88.46875 1483.804688 85.289062 1485.875 83.402344 C 1493.417969 76.5625 1500.925781 69.722656 1508.398438 62.847656 C 1510.503906 60.960938 1513.722656 61.035156 1515.683594 63.070312 C 1517.605469 65.101562 1517.496094 68.28125 1515.425781 70.203125 C 1507.917969 77.082031 1500.410156 83.957031 1492.828125 90.796875 C 1491.867188 91.683594 1490.609375 92.128906 1489.351562 92.128906 Z M 165.207031 111.167969 C 163.984375 111.167969 162.726562 110.722656 161.730469 109.835938 L 155.183594 103.996094 C 149.746094 99.152344 144.386719 94.308594 139.023438 89.429688 C 136.914062 87.582031 136.804688 84.363281 138.726562 82.332031 C 140.648438 80.296875 143.902344 80.1875 145.976562 82.070312 C 151.300781 86.878906 156.664062 91.722656 162.097656 96.488281 L 168.683594 102.441406 C 170.789062 104.328125 170.902344 107.507812 168.976562 109.539062 C 167.980469 110.648438 166.609375 111.167969 165.207031 111.167969 Z M 1444.121094 133.164062 C 1442.792969 133.164062 1441.421875 132.644531 1440.425781 131.609375 C 1438.464844 129.578125 1438.539062 126.398438 1440.570312 124.476562 C 1448.042969 117.527344 1455.550781 110.613281 1463.167969 103.773438 C 1465.238281 101.925781 1468.492188 102.035156 1470.417969 104.070312 C 1472.339844 106.140625 1472.191406 109.320312 1470.085938 111.203125 C 1462.539062 118.007812 1455.070312 124.84375 1447.671875 131.757812 C 1446.675781 132.683594 1445.417969 133.164062 1444.121094 133.164062 Z M 209.878906 152.792969 C 208.585938 152.792969 207.292969 152.3125 206.292969 151.351562 C 199.007812 144.292969 191.648438 137.304688 184.214844 130.390625 C 182.179688 128.46875 182.070312 125.289062 184.03125 123.292969 C 185.988281 121.257812 189.246094 121.183594 191.316406 123.109375 C 198.785156 130.058594 206.183594 137.082031 213.503906 144.144531 C 215.5 146.101562 215.539062 149.320312 213.542969 151.277344 C 212.542969 152.277344 211.210938 152.792969 209.878906 152.792969 Z M 1400.335938 175.605469 C 1399.042969 175.605469 1397.746094 175.160156 1396.710938 174.199219 C 1394.714844 172.238281 1394.675781 169.0625 1396.636719 167.0625 C 1403.847656 159.820312 1411.097656 152.683594 1418.421875 145.585938 C 1420.417969 143.625 1423.671875 143.625 1425.667969 145.621094 C 1427.664062 147.582031 1427.664062 150.796875 1425.632812 152.71875 C 1418.347656 159.78125 1411.132812 166.917969 1403.996094 174.125 C 1403 175.125 1401.667969 175.605469 1400.335938 175.605469 Z M 252.964844 196.011719 C 251.597656 196.011719 250.226562 195.457031 249.230469 194.421875 C 242.203125 187.101562 235.140625 179.855469 227.964844 172.683594 C 225.96875 170.6875 226.003906 167.507812 228.039062 165.546875 C 230.074219 163.625 233.328125 163.664062 235.289062 165.621094 C 242.5 172.867188 249.636719 180.152344 256.699219 187.507812 C 258.660156 189.542969 258.550781 192.722656 256.476562 194.644531 C 255.480469 195.53125 254.222656 196.011719 252.964844 196.011719 Z M 1362.945312 222.445312 C 1362.910156 222.445312 1362.871094 222.445312 1362.871094 222.445312 C 1360.023438 222.40625 1357.769531 220.117188 1357.804688 217.34375 C 1357.953125 210.058594 1361.835938 203.074219 1371.269531 193.203125 L 1375.296875 188.988281 C 1377.222656 186.953125 1380.476562 186.84375 1382.546875 188.765625 C 1384.617188 190.652344 1384.691406 193.867188 1382.730469 195.863281 L 1378.773438 200.039062 C 1371.339844 207.839844 1368.160156 213.054688 1368.085938 217.527344 C 1368.011719 220.261719 1365.757812 222.445312 1362.945312 222.445312 Z M 255.480469 245.734375 C 254.148438 245.734375 252.78125 245.179688 251.78125 244.144531 C 249.820312 242.113281 249.894531 238.933594 251.964844 237.011719 L 253.074219 235.976562 C 261.617188 227.878906 265.242188 222.40625 265.242188 217.675781 C 265.242188 217.195312 265.207031 216.675781 265.132812 216.160156 C 264.726562 213.425781 266.683594 210.871094 269.496094 210.464844 C 272.269531 210.058594 274.894531 211.980469 275.300781 214.71875 C 275.449219 215.714844 275.523438 216.714844 275.523438 217.675781 C 275.523438 227.324219 268.164062 235.640625 260.214844 243.222656 L 259.03125 244.332031 C 258.03125 245.253906 256.773438 245.734375 255.480469 245.734375 Z M 1403.183594 266.140625 C 1402.109375 266.140625 1401 265.808594 1400.039062 265.105469 L 1398.96875 264.292969 C 1390.832031 258.195312 1382.992188 252.242188 1375.816406 245.734375 C 1373.746094 243.847656 1373.632812 240.632812 1375.558594 238.601562 C 1377.480469 236.566406 1380.773438 236.492188 1382.804688 238.339844 C 1389.648438 244.550781 1397.265625 250.355469 1405.105469 256.199219 L 1406.328125 257.121094 C 1408.582031 258.820312 1408.988281 262 1407.25 264.183594 C 1406.253906 265.476562 1404.738281 266.140625 1403.183594 266.140625 Z M 207.253906 283.257812 C 205.703125 283.257812 204.183594 282.554688 203.148438 281.261719 C 201.449219 279.042969 201.890625 275.902344 204.148438 274.203125 C 212.171875 268.210938 220.234375 262.222656 228.261719 256.199219 C 230.480469 254.535156 233.917969 254.792969 235.621094 257.011719 C 237.359375 259.191406 237.136719 262.222656 234.878906 263.925781 C 234.84375 263.960938 234.398438 264.257812 234.363281 264.292969 C 226.449219 270.246094 218.421875 276.234375 210.359375 282.222656 C 209.4375 282.925781 208.328125 283.257812 207.253906 283.257812 Z M 1452.296875 302.628906 C 1451.222656 302.628906 1450.152344 302.296875 1449.226562 301.632812 C 1441.015625 295.570312 1432.769531 289.507812 1424.597656 283.40625 C 1422.339844 281.742188 1421.894531 278.5625 1423.597656 276.34375 C 1425.335938 274.128906 1428.554688 273.71875 1430.808594 275.382812 C 1438.980469 281.484375 1447.191406 287.511719 1455.363281 293.574219 C 1457.65625 295.238281 1458.101562 298.378906 1456.402344 300.597656 C 1455.402344 301.929688 1453.847656 302.628906 1452.296875 302.628906 Z M 158.03125 319.597656 C 156.515625 319.597656 155 318.933594 154 317.675781 C 152.261719 315.496094 152.632812 312.316406 154.886719 310.617188 L 179.554688 292.390625 C 181.8125 290.726562 185.027344 291.132812 186.765625 293.386719 C 188.46875 295.605469 187.988281 298.75 185.730469 300.449219 L 161.210938 318.527344 C 160.25 319.265625 159.140625 319.597656 158.03125 319.597656 Z M 1499.816406 340.96875 C 1498.484375 340.96875 1497.15625 340.488281 1496.15625 339.488281 C 1488.6875 332.09375 1481.328125 325.625 1473.707031 319.710938 C 1471.488281 318.011719 1471.121094 314.832031 1472.859375 312.648438 C 1474.632812 310.46875 1477.886719 310.097656 1480.070312 311.835938 C 1488.019531 317.972656 1495.675781 324.703125 1503.441406 332.390625 C 1505.4375 334.351562 1505.4375 337.566406 1503.441406 339.527344 C 1502.445312 340.488281 1501.113281 340.96875 1499.816406 340.96875 Z M 114.097656 361.78125 C 112.914062 361.78125 111.730469 361.410156 110.769531 360.597656 C 108.625 358.785156 108.363281 355.609375 110.175781 353.5 C 117.5 345.035156 124.453125 337.675781 131.367188 330.984375 C 133.363281 329.027344 136.617188 329.027344 138.617188 331.023438 C 140.613281 332.980469 140.574219 336.160156 138.578125 338.121094 C 131.886719 344.664062 125.15625 351.800781 118.015625 360.042969 C 116.980469 361.191406 115.539062 361.78125 114.097656 361.78125 Z M 92.351562 408.363281 C 92.054688 408.363281 91.832031 408.363281 91.574219 408.324219 C 87.800781 407.769531 84.585938 406.328125 81.773438 403.890625 C 80.589844 402.890625 79.925781 401.414062 80.035156 399.859375 C 80.441406 390.988281 85.582031 383.519531 89.429688 378.714844 L 90.648438 377.160156 C 92.386719 374.941406 95.605469 374.574219 97.824219 376.238281 C 100.082031 377.9375 100.488281 381.117188 98.75 383.296875 L 97.492188 384.925781 C 93.683594 389.691406 91.464844 393.832031 90.613281 397.679688 C 91.351562 398.011719 92.167969 398.234375 93.089844 398.34375 C 95.902344 398.789062 97.824219 401.339844 97.378906 404.074219 C 97.011719 406.589844 94.828125 408.363281 92.351562 408.363281 Z M 1539.574219 408.511719 C 1536.949219 408.511719 1534.691406 406.515625 1534.46875 403.890625 C 1534.246094 401.117188 1536.355469 398.675781 1539.167969 398.492188 C 1540.460938 398.382812 1541.609375 398.160156 1542.71875 397.640625 C 1541.902344 393.832031 1539.722656 389.765625 1535.839844 384.886719 C 1529.550781 376.976562 1523.226562 369.136719 1516.644531 361.523438 C 1514.796875 359.414062 1515.054688 356.234375 1517.234375 354.425781 C 1519.417969 352.648438 1522.636719 352.910156 1524.484375 355.015625 C 1531.140625 362.742188 1537.578125 370.691406 1543.9375 378.675781 C 1547.785156 383.554688 1552.925781 391.023438 1553.332031 399.898438 C 1553.40625 401.414062 1552.738281 402.890625 1551.554688 403.890625 C 1547.304688 407.550781 1542.902344 408.289062 1539.980469 408.511719 C 1539.871094 408.511719 1539.722656 408.511719 1539.574219 408.511719 Z M 153.925781 409.175781 L 145.496094 409.175781 C 137.988281 409.140625 130.515625 409.101562 123.046875 409.027344 C 120.199219 408.992188 117.941406 406.699219 117.980469 403.925781 C 118.015625 401.152344 120.308594 398.9375 123.121094 398.9375 C 123.121094 398.9375 123.15625 398.9375 123.15625 398.9375 C 130.628906 399.046875 138.0625 399.082031 145.496094 399.121094 L 153.925781 399.121094 C 156.738281 399.121094 159.03125 401.339844 159.03125 404.148438 C 159.03125 406.921875 156.738281 409.175781 153.925781 409.175781 Z M 1483.621094 409.175781 L 1477.960938 409.175781 C 1475.152344 409.175781 1472.859375 406.921875 1472.859375 404.148438 C 1472.859375 401.375 1475.152344 399.121094 1477.960938 399.121094 L 1487.871094 399.121094 C 1494.789062 399.082031 1501.742188 399.046875 1508.730469 398.9375 C 1508.765625 398.9375 1508.765625 398.9375 1508.804688 398.9375 C 1511.613281 398.9375 1513.871094 401.152344 1513.945312 403.925781 C 1513.980469 406.699219 1511.6875 408.992188 1508.878906 409.027344 C 1501.851562 409.101562 1494.863281 409.140625 1487.871094 409.175781 Z M 400.191406 410.875 C 400.117188 410.875 400.078125 410.875 400.003906 410.875 L 392.3125 410.582031 C 384.65625 410.285156 377.003906 409.988281 369.347656 409.914062 C 366.5 409.878906 364.242188 407.585938 364.28125 404.8125 C 364.316406 402.039062 366.648438 399.453125 369.457031 399.859375 C 377.1875 399.933594 384.953125 400.230469 392.71875 400.523438 L 400.375 400.820312 C 403.222656 400.933594 405.441406 403.261719 405.332031 406.035156 C 405.21875 408.734375 402.964844 410.875 400.191406 410.875 Z M 1231.695312 410.914062 C 1228.960938 410.914062 1226.667969 408.769531 1226.59375 406.070312 C 1226.484375 403.296875 1228.703125 400.96875 1231.511719 400.859375 L 1240.574219 400.523438 C 1247.859375 400.230469 1255.144531 399.972656 1262.429688 399.859375 C 1262.429688 399.859375 1262.464844 399.859375 1262.503906 399.859375 C 1265.277344 399.859375 1267.570312 402.039062 1267.644531 404.8125 C 1267.679688 407.585938 1265.386719 409.878906 1262.578125 409.914062 C 1255.402344 410.027344 1248.191406 410.320312 1240.980469 410.582031 L 1231.882812 410.914062 C 1231.84375 410.914062 1231.769531 410.914062 1231.695312 410.914062 Z M 1324.078125 411.542969 C 1324.042969 411.542969 1324.003906 411.542969 1324.003906 411.542969 C 1313.6875 411.429688 1303.367188 411.210938 1293.050781 410.765625 C 1290.203125 410.65625 1288.019531 408.324219 1288.132812 405.554688 C 1288.242188 402.742188 1290.609375 400.636719 1293.496094 400.710938 C 1303.703125 401.152344 1313.910156 401.375 1324.117188 401.488281 C 1326.964844 401.523438 1329.21875 403.816406 1329.183594 406.589844 C 1329.183594 409.359375 1326.851562 411.542969 1324.078125 411.542969 Z M 307.847656 411.578125 C 305.035156 411.578125 302.742188 409.359375 302.707031 406.589844 C 302.667969 403.816406 304.925781 401.523438 307.773438 401.488281 C 317.980469 401.375 328.1875 401.191406 338.394531 400.746094 C 341.242188 400.933594 343.644531 402.816406 343.753906 405.589844 C 343.867188 408.398438 341.648438 410.730469 338.835938 410.839844 C 328.519531 411.246094 318.199219 411.46875 307.882812 411.578125 C 307.882812 411.578125 307.847656 411.578125 307.847656 411.578125 Z M 277.039062 411.652344 C 277.003906 411.652344 277.003906 411.652344 277.003906 411.652344 L 246.234375 411.542969 C 243.386719 411.542969 241.09375 409.25 241.09375 406.476562 C 241.09375 403.703125 243.386719 401.449219 246.234375 401.449219 L 277.039062 401.558594 C 279.886719 401.558594 282.179688 403.816406 282.144531 406.625 C 282.144531 409.398438 279.851562 411.652344 277.039062 411.652344 Z M 1354.847656 411.652344 C 1352.035156 411.652344 1349.742188 409.398438 1349.742188 406.625 C 1349.707031 403.851562 1352 401.597656 1354.847656 401.558594 L 1385.652344 401.449219 C 1388.5 401.449219 1390.792969 403.703125 1390.792969 406.476562 C 1390.792969 409.25 1388.5 411.503906 1385.691406 411.542969 L 1354.882812 411.652344 Z M 215.429688 411.726562 C 211.953125 411.726562 208.4375 411.617188 205.035156 411.136719 C 198.785156 410.359375 192.054688 409.839844 184.511719 409.546875 C 181.664062 409.398438 179.480469 407.070312 179.59375 404.296875 C 179.703125 401.523438 181.996094 399.453125 184.917969 399.453125 C 192.757812 399.785156 199.785156 400.339844 206.332031 401.152344 C 209.363281 401.558594 212.394531 401.632812 215.429688 401.632812 C 218.238281 401.632812 220.566406 403.890625 220.566406 406.664062 C 220.566406 409.472656 218.238281 411.726562 215.429688 411.726562 Z M 1417.863281 411.726562 L 1416.460938 411.726562 C 1413.648438 411.726562 1411.355469 409.472656 1411.355469 406.664062 C 1411.355469 403.890625 1413.648438 401.632812 1416.460938 401.632812 L 1417.863281 401.632812 C 1420.933594 401.632812 1423.96875 401.558594 1427 401.152344 C 1433.210938 400.378906 1439.757812 399.859375 1446.96875 399.527344 C 1447.042969 399.527344 1447.117188 399.527344 1447.191406 399.527344 C 1449.929688 399.527344 1452.183594 401.632812 1452.296875 404.332031 C 1452.445312 407.105469 1450.261719 409.472656 1447.414062 409.621094 C 1440.5 409.878906 1434.25 410.394531 1428.292969 411.136719 C 1424.890625 411.617188 1421.378906 411.726562 1417.863281 411.726562 Z M 461.804688 411.765625 C 461.765625 411.765625 461.765625 411.765625 461.765625 411.765625 L 430.960938 411.617188 C 428.113281 411.578125 425.820312 409.285156 425.855469 406.515625 C 425.855469 403.777344 428.148438 401.523438 430.996094 401.523438 C 430.996094 401.523438 430.996094 401.523438 431.035156 401.523438 L 461.804688 401.707031 C 464.652344 401.707031 466.941406 403.964844 466.90625 406.773438 C 466.90625 409.507812 464.613281 411.765625 461.804688 411.765625 Z M 1170.085938 411.765625 C 1167.273438 411.765625 1164.980469 409.546875 1164.980469 406.773438 C 1164.945312 403.964844 1167.238281 401.707031 1170.085938 401.707031 L 1200.855469 401.558594 C 1200.890625 401.558594 1200.890625 401.558594 1200.890625 401.558594 C 1203.738281 401.558594 1206.03125 403.777344 1206.03125 406.550781 C 1206.070312 409.324219 1203.777344 411.617188 1200.929688 411.617188 L 1170.121094 411.765625 C 1170.121094 411.765625 1170.121094 411.765625 1170.085938 411.765625 Z M 1108.507812 411.984375 C 1105.660156 411.984375 1103.367188 409.730469 1103.367188 406.996094 C 1103.367188 404.183594 1105.625 401.929688 1108.472656 401.929688 L 1139.277344 401.78125 L 1139.316406 401.78125 C 1142.125 401.78125 1144.417969 404.039062 1144.417969 406.808594 C 1144.457031 409.621094 1142.164062 411.875 1139.316406 411.875 Z M 523.414062 411.984375 C 523.378906 411.984375 523.378906 411.984375 523.378906 411.984375 L 492.570312 411.875 C 489.761719 411.875 487.46875 409.621094 487.46875 406.847656 C 487.46875 404.039062 489.761719 401.820312 492.609375 401.820312 L 523.414062 401.929688 C 526.261719 401.929688 528.554688 404.183594 528.554688 406.996094 C 528.519531 409.765625 526.226562 411.984375 523.414062 411.984375 Z M 584.992188 412.429688 C 584.992188 412.429688 584.953125 412.429688 584.953125 412.429688 C 574.671875 412.320312 564.429688 412.246094 554.148438 412.171875 C 551.335938 412.132812 549.042969 409.878906 549.082031 407.105469 C 549.082031 404.332031 551.375 402.078125 554.183594 402.078125 C 554.222656 402.078125 554.222656 402.078125 554.222656 402.078125 C 564.503906 402.152344 574.785156 402.261719 585.0625 402.375 C 587.910156 402.410156 590.167969 404.703125 590.128906 407.476562 C 590.09375 410.210938 587.800781 412.429688 584.992188 412.429688 Z M 1046.898438 412.464844 C 1044.085938 412.464844 1041.792969 410.25 1041.757812 407.476562 C 1041.71875 404.703125 1043.976562 402.410156 1046.824219 402.375 C 1057.105469 402.261719 1067.386719 402.1875 1077.667969 402.113281 C 1080.515625 402.113281 1082.808594 404.332031 1082.808594 407.105469 C 1082.84375 409.878906 1080.550781 412.132812 1077.742188 412.171875 C 1067.460938 412.246094 1057.214844 412.355469 1046.933594 412.464844 C 1046.933594 412.464844 1046.898438 412.464844 1046.898438 412.464844 Z M 646.601562 413.574219 C 646.566406 413.574219 646.492188 413.574219 646.453125 413.574219 L 615.722656 412.910156 C 612.875 412.835938 610.617188 410.542969 610.65625 407.769531 C 610.730469 405 612.835938 402.890625 615.871094 402.816406 L 646.75 403.484375 C 649.597656 403.59375 651.816406 405.886719 651.742188 408.660156 C 651.667969 411.394531 649.375 413.574219 646.601562 413.574219 Z M 985.285156 413.613281 C 982.511719 413.613281 980.21875 411.429688 980.144531 408.695312 C 980.070312 405.921875 982.328125 403.59375 985.136719 403.519531 L 998.929688 403.1875 C 1004.625 403.074219 1010.320312 402.929688 1016.015625 402.855469 C 1018.976562 402.78125 1021.195312 405.035156 1021.230469 407.808594 C 1021.269531 410.582031 1019.011719 412.871094 1016.164062 412.910156 C 1010.507812 413.019531 1004.847656 413.132812 999.152344 413.242188 L 985.433594 413.613281 C 985.394531 413.613281 985.320312 413.613281 985.285156 413.613281 Z M 800.558594 414.90625 C 797.824219 414.90625 795.53125 412.800781 795.417969 410.101562 C 795.308594 407.328125 797.527344 404.960938 800.335938 404.851562 L 816.425781 404.109375 L 831.550781 404.777344 C 834.398438 404.925781 836.578125 407.253906 836.46875 410.027344 C 836.359375 412.800781 834.175781 414.796875 831.105469 414.832031 L 816.425781 414.167969 L 800.78125 414.90625 C 800.707031 414.90625 800.632812 414.90625 800.558594 414.90625 Z M 708.179688 415.460938 C 708.140625 415.460938 708.066406 415.460938 708.03125 415.460938 C 697.75 415.203125 687.503906 414.832031 677.222656 414.5 C 674.375 414.425781 672.15625 412.097656 672.269531 409.324219 C 672.34375 406.589844 674.636719 404.445312 677.410156 404.445312 C 677.445312 404.445312 677.519531 404.445312 677.554688 404.445312 C 687.800781 404.777344 698.042969 405.109375 708.324219 405.40625 C 711.171875 405.480469 713.390625 407.808594 713.320312 410.582031 C 713.246094 413.316406 710.953125 415.460938 708.179688 415.460938 Z M 923.710938 415.496094 C 920.9375 415.496094 918.644531 413.355469 918.570312 410.617188 C 918.496094 407.84375 920.75 405.515625 923.5625 405.441406 C 933.804688 405.183594 943.976562 404.851562 954.183594 404.519531 L 954.664062 414.574219 C 944.308594 414.90625 934.066406 415.238281 923.859375 415.496094 C 923.820312 415.496094 923.746094 415.496094 923.710938 415.496094 Z M 749.96875 416.089844 L 738.945312 416.050781 C 736.097656 416.015625 733.84375 413.761719 733.84375 410.949219 C 733.878906 408.179688 736.171875 405.960938 738.984375 405.960938 L 739.019531 405.960938 L 750.003906 406.035156 C 756.550781 406.035156 763.097656 405.960938 769.679688 405.847656 C 772.34375 405.921875 774.855469 407.992188 774.929688 410.765625 C 774.96875 413.574219 772.710938 415.867188 769.902344 415.90625 C 763.246094 416.050781 756.625 416.089844 749.96875 416.089844 Z M 882.03125 416.089844 C 875.335938 416.089844 868.679688 416.015625 861.988281 415.867188 C 859.175781 415.832031 856.921875 413.5 856.992188 410.730469 C 857.03125 407.957031 859.433594 405.773438 862.246094 405.8125 C 869.273438 405.960938 876.335938 406.109375 883.363281 406.035156 L 892.867188 405.996094 C 892.867188 405.996094 892.902344 405.996094 892.902344 405.996094 C 895.75 405.996094 898.007812 408.214844 898.042969 410.988281 C 898.082031 413.761719 895.824219 416.015625 892.976562 416.050781 L 883.363281 416.089844 C 882.917969 416.089844 882.476562 416.089844 882.03125 416.089844 "/>
</g>
</svg>
