<?xml version="1.0" encoding="UTF-8"?>
<svg xmlns="http://www.w3.org/2000/svg" xmlns:xlink="http://www.w3.org/1999/xlink" width="37.5pt" height="37.499999pt" viewBox="0 0 37.5 37.499999" version="1.2">
<defs>
<clipPath id="clip1">
  <path d="M 1 3.070312 L 37.007812 3.070312 L 37.007812 34.570312 L 1 34.570312 Z M 1 3.070312 "/>
</clipPath>
<clipPath id="clip2">
  <path d="M 14 3.070312 L 23 3.070312 L 23 8 L 14 8 Z M 14 3.070312 "/>
</clipPath>
<clipPath id="clip3">
  <path d="M 28 25 L 37.007812 25 L 37.007812 29 L 28 29 Z M 28 25 "/>
</clipPath>
</defs>
<g id="surface1">
<g clip-path="url(#clip1)" clip-rule="nonzero">
<path style=" stroke:none;fill-rule:nonzero;fill:rgb(84.709167%,82.749939%,33.329773%);fill-opacity:1;" d="M 35.429688 21.75 C 35.910156 20.789062 36.214844 19.738281 36.214844 18.601562 C 36.214844 15.714844 34.386719 13.21875 31.859375 12.257812 C 31.859375 7.183594 27.765625 3.070312 22.714844 3.070312 C 18.445312 3.070312 14.875 6 13.871094 9.984375 C 13.21875 9.765625 12.566406 9.632812 11.824219 9.632812 C 8.472656 9.632812 5.726562 12.171875 5.335938 15.453125 C 3.070312 15.933594 1.371094 17.945312 1.371094 20.351562 C 1.371094 23.152344 3.59375 25.382812 6.378906 25.382812 C 6.46875 25.382812 6.554688 25.382812 6.597656 25.382812 C 6.597656 25.46875 6.597656 25.515625 6.597656 25.601562 C 6.597656 30.546875 10.605469 34.570312 15.527344 34.570312 C 18.3125 34.570312 20.839844 33.257812 22.453125 31.246094 C 23.410156 32.207031 24.71875 32.820312 26.199219 32.820312 C 28.246094 32.820312 29.988281 31.640625 30.859375 29.976562 C 31.335938 30.109375 31.816406 30.195312 32.296875 30.195312 C 34.953125 30.195312 37.085938 28.050781 37.085938 25.382812 C 37.085938 23.9375 36.476562 22.625 35.429688 21.75 Z M 35.429688 21.75 "/>
</g>
<path style=" stroke:none;fill-rule:nonzero;fill:rgb(47.059631%,80.389404%,83.139038%);fill-opacity:1;" d="M 15.484375 18.339844 L 16.789062 18.339844 L 16.789062 22.363281 L 15.484375 22.363281 Z M 15.484375 18.339844 "/>
<path style=" stroke:none;fill-rule:nonzero;fill:rgb(27.839661%,16.859436%,16.079712%);fill-opacity:1;" d="M 15.527344 22.320312 C 15.394531 22.320312 15.308594 22.234375 15.308594 22.101562 L 15.308594 18.601562 C 15.308594 18.46875 15.394531 18.382812 15.527344 18.382812 C 15.65625 18.382812 15.746094 18.46875 15.746094 18.601562 L 15.746094 22.101562 C 15.746094 22.234375 15.65625 22.320312 15.527344 22.320312 Z M 16.832031 22.320312 C 16.703125 22.320312 16.617188 22.234375 16.617188 22.101562 L 16.617188 18.601562 C 16.617188 18.46875 16.703125 18.382812 16.832031 18.382812 C 16.964844 18.382812 17.050781 18.46875 17.050781 18.601562 L 17.050781 22.101562 C 17.050781 22.234375 16.964844 22.320312 16.832031 22.320312 Z M 16.832031 22.320312 "/>
<path style=" stroke:none;fill-rule:nonzero;fill:rgb(47.059631%,80.389404%,83.139038%);fill-opacity:1;" d="M 19.488281 17.472656 L 20.09375 16.308594 L 23.648438 18.164062 L 23.046875 19.328125 Z M 19.488281 17.472656 "/>
<path style=" stroke:none;fill-rule:nonzero;fill:rgb(27.839661%,16.859436%,16.079712%);fill-opacity:1;" d="M 22.84375 19.390625 C 22.800781 19.390625 22.757812 19.390625 22.757812 19.34375 L 19.621094 17.726562 C 19.535156 17.683594 19.492188 17.550781 19.535156 17.421875 C 19.578125 17.332031 19.707031 17.289062 19.839844 17.332031 L 22.929688 18.953125 C 23.019531 18.996094 23.0625 19.125 23.019531 19.257812 C 22.976562 19.34375 22.886719 19.390625 22.84375 19.390625 Z M 23.453125 18.207031 C 23.410156 18.207031 23.367188 18.207031 23.367188 18.164062 L 20.273438 16.546875 C 20.1875 16.5 20.144531 16.371094 20.1875 16.238281 C 20.230469 16.152344 20.363281 16.109375 20.492188 16.152344 L 23.585938 17.769531 C 23.671875 17.8125 23.714844 17.945312 23.671875 18.078125 C 23.585938 18.164062 23.496094 18.207031 23.453125 18.207031 Z M 23.453125 18.207031 "/>
<path style=" stroke:none;fill-rule:nonzero;fill:rgb(47.059631%,80.389404%,83.139038%);fill-opacity:1;" d="M 19.628906 23.355469 L 23.183594 21.496094 L 23.785156 22.660156 L 20.230469 24.519531 Z M 19.628906 23.355469 "/>
<path style=" stroke:none;fill-rule:nonzero;fill:rgb(27.839661%,16.859436%,16.079712%);fill-opacity:1;" d="M 20.40625 24.59375 C 20.316406 24.59375 20.230469 24.550781 20.230469 24.464844 C 20.1875 24.375 20.230469 24.246094 20.316406 24.15625 L 23.410156 22.539062 C 23.496094 22.496094 23.628906 22.539062 23.714844 22.625 C 23.757812 22.714844 23.714844 22.84375 23.628906 22.933594 L 20.492188 24.59375 C 20.492188 24.59375 20.449219 24.59375 20.40625 24.59375 Z M 19.796875 23.457031 C 19.707031 23.457031 19.621094 23.414062 19.621094 23.328125 C 19.578125 23.238281 19.621094 23.109375 19.707031 23.019531 L 22.800781 21.402344 C 22.886719 21.359375 23.019531 21.402344 23.105469 21.488281 C 23.148438 21.578125 23.105469 21.707031 23.019531 21.796875 L 19.925781 23.414062 C 19.882812 23.457031 19.839844 23.457031 19.796875 23.457031 Z M 19.796875 23.457031 "/>
<path style=" stroke:none;fill-rule:nonzero;fill:rgb(99.21875%,98.81897%,93.728638%);fill-opacity:1;" d="M 31.773438 12.914062 C 31.773438 12.914062 33.339844 12.914062 34.429688 12.914062 C 35.519531 12.914062 36.390625 12.039062 36.390625 10.945312 C 36.390625 9.9375 35.605469 9.109375 34.605469 8.976562 C 34.605469 8.890625 34.648438 8.800781 34.648438 8.757812 C 34.648438 7.664062 33.777344 6.789062 32.6875 6.789062 C 32.078125 6.789062 31.511719 7.09375 31.164062 7.53125 C 31.121094 6.394531 30.160156 5.476562 28.984375 5.476562 C 27.765625 5.476562 26.808594 6.4375 26.808594 7.664062 C 26.808594 7.839844 26.851562 8.058594 26.894531 8.234375 C 26.589844 7.882812 26.199219 7.664062 25.71875 7.664062 C 24.933594 7.664062 24.324219 8.234375 24.195312 9.019531 C 24.105469 9.019531 24.019531 8.976562 23.976562 8.976562 C 22.886719 8.976562 22.015625 9.851562 22.015625 10.945312 C 22.015625 12.039062 22.886719 12.914062 23.976562 12.914062 C 25.066406 12.914062 28.113281 12.914062 28.113281 12.914062 L 30.464844 12.914062 L 30.464844 13.132812 L 31.773438 13.132812 Z M 31.773438 12.914062 "/>
<path style=" stroke:none;fill-rule:nonzero;fill:rgb(27.839661%,16.859436%,16.079712%);fill-opacity:1;" d="M 28.984375 5.257812 C 27.679688 5.257812 26.589844 6.351562 26.589844 7.664062 C 26.328125 7.488281 26.023438 7.445312 25.71875 7.445312 C 24.933594 7.445312 24.238281 8.015625 24.019531 8.757812 C 24.019531 8.757812 23.976562 8.757812 23.976562 8.757812 C 22.757812 8.757812 21.796875 9.71875 21.796875 10.945312 C 21.796875 12.171875 22.757812 13.132812 23.976562 13.132812 L 30.464844 13.132812 C 30.597656 13.132812 30.683594 13.046875 30.683594 12.914062 C 30.683594 12.78125 30.597656 12.695312 30.464844 12.695312 L 23.976562 12.695312 C 23.019531 12.695312 22.234375 11.90625 22.234375 10.945312 C 22.234375 9.984375 23.019531 9.195312 23.976562 9.195312 C 24.019531 9.195312 24.0625 9.195312 24.105469 9.195312 L 24.152344 9.195312 C 24.152344 9.195312 24.152344 9.195312 24.195312 9.195312 C 24.28125 9.195312 24.410156 9.109375 24.410156 9.019531 C 24.5 8.363281 25.066406 7.882812 25.71875 7.882812 C 26.109375 7.882812 26.460938 8.058594 26.71875 8.363281 C 26.765625 8.40625 26.808594 8.453125 26.894531 8.453125 C 26.9375 8.453125 26.980469 8.453125 26.980469 8.40625 C 27.070312 8.363281 27.113281 8.277344 27.113281 8.144531 C 27.070312 7.96875 27.027344 7.796875 27.027344 7.621094 C 27.027344 6.527344 27.898438 5.652344 28.984375 5.652344 C 30.03125 5.652344 30.859375 6.484375 30.945312 7.53125 C 30.945312 7.621094 31.03125 7.707031 31.074219 7.75 C 31.121094 7.75 31.121094 7.75 31.164062 7.75 C 31.25 7.75 31.292969 7.707031 31.335938 7.664062 C 31.6875 7.226562 32.164062 7.007812 32.6875 7.007812 C 33.644531 7.007812 34.429688 7.796875 34.429688 8.757812 C 34.429688 8.800781 34.429688 8.84375 34.429688 8.890625 L 34.429688 8.933594 C 34.429688 8.976562 34.429688 9.0625 34.472656 9.109375 C 34.515625 9.152344 34.558594 9.195312 34.605469 9.195312 C 35.519531 9.28125 36.171875 10.027344 36.171875 10.945312 C 36.171875 11.90625 35.386719 12.695312 34.429688 12.695312 L 31.773438 12.695312 C 31.640625 12.695312 31.554688 12.78125 31.554688 12.914062 C 31.554688 13.046875 31.640625 13.132812 31.773438 13.132812 L 34.429688 13.132812 C 35.648438 13.132812 36.605469 12.171875 36.605469 10.945312 C 36.605469 9.894531 35.867188 9.019531 34.863281 8.800781 C 34.863281 8.800781 34.863281 8.757812 34.863281 8.757812 C 34.863281 7.53125 33.90625 6.570312 32.6875 6.570312 C 32.164062 6.570312 31.6875 6.746094 31.292969 7.09375 C 31.03125 6.046875 30.117188 5.257812 28.984375 5.257812 Z M 28.984375 5.257812 "/>
<path style=" stroke:none;fill-rule:nonzero;fill:rgb(27.839661%,16.859436%,16.079712%);fill-opacity:1;" d="M 28.332031 8.320312 C 27.722656 8.320312 27.199219 8.757812 27.070312 9.328125 C 26.894531 9.238281 26.71875 9.195312 26.546875 9.195312 C 26.023438 9.195312 25.589844 9.589844 25.5 10.113281 C 25.414062 10.113281 25.328125 10.070312 25.238281 10.070312 C 24.585938 10.070312 24.019531 10.59375 23.976562 11.25 C 23.976562 11.296875 24.019531 11.382812 24.0625 11.382812 C 24.105469 11.382812 24.152344 11.339844 24.152344 11.296875 C 24.195312 10.726562 24.671875 10.289062 25.195312 10.289062 C 25.28125 10.289062 25.414062 10.289062 25.5 10.332031 C 25.5 10.332031 25.5 10.332031 25.542969 10.332031 C 25.589844 10.332031 25.589844 10.332031 25.632812 10.289062 C 25.675781 10.289062 25.675781 10.246094 25.675781 10.203125 C 25.675781 9.765625 26.023438 9.371094 26.503906 9.371094 C 26.675781 9.371094 26.894531 9.457031 27.023438 9.589844 C 27.023438 9.589844 27.070312 9.632812 27.113281 9.632812 C 27.113281 9.632812 27.15625 9.632812 27.15625 9.632812 C 27.199219 9.632812 27.199219 9.589844 27.242188 9.546875 C 27.285156 8.976562 27.765625 8.539062 28.332031 8.539062 C 28.417969 8.539062 28.507812 8.539062 28.636719 8.582031 C 28.636719 8.582031 28.636719 8.582031 28.679688 8.582031 C 28.722656 8.582031 28.765625 8.539062 28.765625 8.496094 C 28.765625 8.453125 28.765625 8.363281 28.679688 8.363281 C 28.550781 8.320312 28.460938 8.320312 28.332031 8.320312 Z M 34.386719 8.976562 C 33.820312 8.976562 33.296875 9.371094 33.121094 9.9375 C 33.121094 9.984375 33.121094 10.070312 33.210938 10.070312 C 33.210938 10.070312 33.210938 10.070312 33.253906 10.070312 C 33.296875 10.070312 33.339844 10.027344 33.339844 9.984375 C 33.472656 9.5 33.90625 9.195312 34.386719 9.195312 C 34.429688 9.195312 34.472656 9.195312 34.515625 9.195312 C 34.558594 9.195312 34.605469 9.152344 34.605469 9.109375 C 34.605469 9.0625 34.558594 8.976562 34.515625 8.976562 C 34.515625 8.976562 34.429688 8.976562 34.386719 8.976562 Z M 34.386719 8.976562 "/>
<g clip-path="url(#clip2)" clip-rule="nonzero">
<path style=" stroke:none;fill-rule:nonzero;fill:rgb(100%,100%,100%);fill-opacity:1;" d="M 19.054688 6.132812 L 14.742188 6.132812 C 14.613281 6.132812 14.523438 6.046875 14.523438 5.914062 C 14.523438 5.78125 14.613281 5.695312 14.742188 5.695312 L 19.054688 5.695312 C 19.1875 5.695312 19.273438 5.78125 19.273438 5.914062 C 19.273438 6.046875 19.183594 6.132812 19.054688 6.132812 Z M 20.40625 6.132812 L 19.96875 6.132812 C 19.839844 6.132812 19.75 6.046875 19.75 5.914062 C 19.75 5.78125 19.839844 5.695312 19.96875 5.695312 L 20.40625 5.695312 C 20.535156 5.695312 20.621094 5.78125 20.621094 5.914062 C 20.621094 6.046875 20.535156 6.132812 20.40625 6.132812 Z M 22.582031 7.007812 L 18.664062 7.007812 C 18.53125 7.007812 18.445312 6.921875 18.445312 6.789062 C 18.445312 6.65625 18.53125 6.570312 18.664062 6.570312 L 22.582031 6.570312 C 22.714844 6.570312 22.800781 6.65625 22.800781 6.789062 C 22.800781 6.921875 22.714844 7.007812 22.582031 7.007812 Z M 17.792969 7.007812 L 17.355469 7.007812 C 17.226562 7.007812 17.136719 6.921875 17.136719 6.789062 C 17.136719 6.65625 17.226562 6.570312 17.355469 6.570312 L 17.792969 6.570312 C 17.921875 6.570312 18.007812 6.65625 18.007812 6.789062 C 18.007812 6.921875 17.921875 7.007812 17.792969 7.007812 Z M 16.484375 7.007812 L 15.613281 7.007812 C 15.484375 7.007812 15.394531 6.921875 15.394531 6.789062 C 15.394531 6.65625 15.484375 6.570312 15.613281 6.570312 L 16.484375 6.570312 C 16.617188 6.570312 16.703125 6.65625 16.703125 6.789062 C 16.703125 6.921875 16.617188 7.007812 16.484375 7.007812 Z M 19.097656 7.882812 L 18.226562 7.882812 C 18.097656 7.882812 18.007812 7.796875 18.007812 7.664062 C 18.007812 7.53125 18.097656 7.445312 18.226562 7.445312 L 19.097656 7.445312 C 19.230469 7.445312 19.316406 7.53125 19.316406 7.664062 C 19.316406 7.796875 19.230469 7.882812 19.097656 7.882812 Z M 20.40625 3.945312 C 20.316406 3.945312 20.054688 3.945312 19.96875 3.945312 C 19.839844 3.945312 19.75 4.03125 19.75 4.164062 C 19.75 4.296875 19.839844 4.382812 19.96875 4.382812 C 20.054688 4.382812 20.316406 4.382812 20.40625 4.382812 C 20.535156 4.382812 20.621094 4.296875 20.621094 4.164062 C 20.621094 4.03125 20.535156 3.945312 20.40625 3.945312 Z M 20.40625 4.820312 C 20.316406 4.820312 18.3125 4.820312 18.226562 4.820312 C 18.097656 4.820312 18.007812 4.90625 18.007812 5.039062 C 18.007812 5.171875 18.097656 5.257812 18.226562 5.257812 C 18.3125 5.257812 20.316406 5.257812 20.40625 5.257812 C 20.535156 5.257812 20.621094 5.171875 20.621094 5.039062 C 20.621094 4.90625 20.535156 4.820312 20.40625 4.820312 Z M 22.582031 5.695312 C 22.496094 5.695312 21.363281 5.695312 21.277344 5.695312 C 21.144531 5.695312 21.058594 5.78125 21.058594 5.914062 C 21.058594 6.046875 21.144531 6.132812 21.277344 6.132812 C 21.363281 6.132812 22.496094 6.132812 22.582031 6.132812 C 22.714844 6.132812 22.800781 6.046875 22.800781 5.914062 C 22.800781 5.78125 22.714844 5.695312 22.582031 5.695312 Z M 22.582031 5.695312 "/>
</g>
<g clip-path="url(#clip3)" clip-rule="nonzero">
<path style=" stroke:none;fill-rule:nonzero;fill:rgb(100%,100%,100%);fill-opacity:1;" d="M 33.339844 26.695312 L 28.984375 26.695312 C 28.855469 26.695312 28.765625 26.609375 28.765625 26.476562 C 28.765625 26.34375 28.855469 26.257812 28.984375 26.257812 L 33.339844 26.257812 C 33.472656 26.257812 33.558594 26.34375 33.558594 26.476562 C 33.558594 26.609375 33.472656 26.695312 33.339844 26.695312 Z M 35.082031 26.695312 L 34.210938 26.695312 C 34.082031 26.695312 33.992188 26.609375 33.992188 26.476562 C 33.992188 26.34375 34.082031 26.257812 34.210938 26.257812 L 35.082031 26.257812 C 35.214844 26.257812 35.300781 26.34375 35.300781 26.476562 C 35.300781 26.609375 35.214844 26.695312 35.082031 26.695312 Z M 37.261719 27.570312 L 32.90625 27.570312 C 32.773438 27.570312 32.6875 27.484375 32.6875 27.351562 C 32.6875 27.21875 32.773438 27.132812 32.90625 27.132812 L 37.261719 27.132812 C 37.390625 27.132812 37.476562 27.21875 37.476562 27.351562 C 37.476562 27.484375 37.390625 27.570312 37.261719 27.570312 Z M 32.035156 27.570312 L 31.597656 27.570312 C 31.46875 27.570312 31.378906 27.484375 31.378906 27.351562 C 31.378906 27.21875 31.46875 27.132812 31.597656 27.132812 L 32.035156 27.132812 C 32.164062 27.132812 32.25 27.21875 32.25 27.351562 C 32.25 27.484375 32.164062 27.570312 32.035156 27.570312 Z M 30.683594 27.570312 L 29.855469 27.570312 C 29.726562 27.570312 29.636719 27.484375 29.636719 27.351562 C 29.636719 27.21875 29.726562 27.132812 29.855469 27.132812 L 30.683594 27.132812 C 30.816406 27.132812 30.902344 27.21875 30.902344 27.351562 C 30.902344 27.484375 30.816406 27.570312 30.683594 27.570312 Z M 34.648438 25.820312 L 32.46875 25.820312 C 32.339844 25.820312 32.25 25.734375 32.25 25.601562 C 32.25 25.46875 32.339844 25.382812 32.46875 25.382812 L 34.648438 25.382812 C 34.777344 25.382812 34.863281 25.46875 34.863281 25.601562 C 34.863281 25.734375 34.777344 25.820312 34.648438 25.820312 Z M 33.339844 28.445312 L 32.46875 28.445312 C 32.339844 28.445312 32.25 28.359375 32.25 28.226562 C 32.25 28.09375 32.339844 28.007812 32.46875 28.007812 L 33.339844 28.007812 C 33.472656 28.007812 33.558594 28.09375 33.558594 28.226562 C 33.558594 28.359375 33.472656 28.445312 33.339844 28.445312 Z M 33.339844 28.445312 "/>
</g>
<path style=" stroke:none;fill-rule:nonzero;fill:rgb(99.21875%,98.81897%,93.728638%);fill-opacity:1;" d="M 8.078125 23.414062 C 8.078125 23.414062 8.777344 23.414062 9.601562 23.414062 C 10.429688 23.414062 11.128906 22.714844 11.128906 21.882812 C 11.128906 21.09375 10.5625 20.484375 9.777344 20.351562 C 9.777344 20.265625 9.820312 20.175781 9.820312 20.132812 C 9.820312 19.300781 9.125 18.601562 8.296875 18.601562 C 7.863281 18.601562 7.425781 18.820312 7.164062 19.125 C 6.992188 18.339844 6.292969 17.726562 5.464844 17.726562 C 4.507812 17.726562 3.722656 18.515625 3.722656 19.476562 C 3.722656 19.5625 3.722656 19.652344 3.765625 19.738281 C 3.59375 19.609375 3.332031 19.476562 3.070312 19.476562 C 2.546875 19.476562 2.113281 19.871094 1.980469 20.394531 C 1.894531 20.394531 1.808594 20.351562 1.765625 20.351562 C 0.9375 20.351562 0.238281 21.050781 0.238281 21.882812 C 0.238281 22.714844 0.9375 23.414062 1.765625 23.414062 C 2.589844 23.414062 5.03125 23.414062 5.03125 23.414062 L 5.03125 23.632812 L 8.078125 23.632812 Z M 8.078125 23.414062 "/>
<path style=" stroke:none;fill-rule:nonzero;fill:rgb(27.839661%,16.859436%,16.079712%);fill-opacity:1;" d="M 8.863281 21.445312 C 8.820312 21.445312 8.734375 21.402344 8.734375 21.3125 C 8.734375 20.789062 9.167969 20.351562 9.691406 20.351562 C 9.691406 20.351562 9.996094 20.351562 10.214844 20.394531 C 10.257812 20.394531 10.300781 20.484375 10.300781 20.527344 C 10.300781 20.570312 10.214844 20.613281 10.167969 20.613281 C 9.996094 20.570312 9.691406 20.570312 9.691406 20.570312 C 9.296875 20.570312 8.949219 20.921875 8.949219 21.3125 C 8.949219 21.402344 8.90625 21.445312 8.863281 21.445312 Z M 5.902344 23.195312 C 5.757812 23.195312 5.683594 23.269531 5.683594 23.414062 C 5.683594 23.558594 5.757812 23.632812 5.902344 23.632812 C 6.046875 23.632812 6.121094 23.558594 6.121094 23.414062 C 6.121094 23.269531 6.046875 23.195312 5.902344 23.195312 Z M 5.902344 23.195312 "/>
<path style=" stroke:none;fill-rule:nonzero;fill:rgb(27.839661%,16.859436%,16.079712%);fill-opacity:1;" d="M 9.601562 23.632812 L 8.078125 23.632812 C 7.949219 23.632812 7.863281 23.546875 7.863281 23.414062 C 7.863281 23.28125 7.949219 23.195312 8.078125 23.195312 L 9.601562 23.195312 C 10.34375 23.195312 10.910156 22.625 10.910156 21.882812 C 10.910156 21.226562 10.429688 20.65625 9.777344 20.570312 C 9.734375 20.570312 9.648438 20.527344 9.648438 20.484375 C 9.648438 20.4375 9.601562 20.394531 9.601562 20.308594 C 9.601562 20.21875 9.601562 20.175781 9.601562 20.089844 C 9.601562 19.34375 9.039062 18.777344 8.296875 18.777344 C 7.90625 18.777344 7.601562 18.953125 7.339844 19.214844 C 7.296875 19.257812 7.207031 19.300781 7.121094 19.257812 C 7.035156 19.257812 6.992188 19.171875 6.945312 19.082031 C 6.816406 18.382812 6.164062 17.859375 5.464844 17.859375 C 4.636719 17.859375 3.941406 18.558594 3.941406 19.390625 C 3.941406 19.433594 3.941406 19.519531 3.941406 19.5625 C 3.941406 19.652344 3.898438 19.738281 3.855469 19.78125 C 3.8125 19.828125 3.679688 19.828125 3.59375 19.78125 C 3.460938 19.78125 3.246094 19.695312 3.070312 19.695312 C 2.636719 19.695312 2.285156 20 2.199219 20.394531 C 2.199219 20.527344 2.070312 20.570312 1.9375 20.570312 C 1.851562 20.570312 1.808594 20.570312 1.71875 20.570312 C 0.980469 20.570312 0.414062 21.140625 0.414062 21.882812 C 0.414062 22.625 0.980469 23.195312 1.71875 23.195312 L 4.988281 23.195312 C 5.117188 23.195312 5.203125 23.28125 5.203125 23.414062 C 5.203125 23.546875 5.160156 23.632812 5.03125 23.632812 L 1.765625 23.632812 C 0.804688 23.632812 0.0234375 22.84375 0.0234375 21.882812 C 0.0234375 20.921875 0.804688 20.132812 1.765625 20.132812 C 1.808594 20.132812 1.808594 20.132812 1.851562 20.132812 C 2.023438 19.609375 2.503906 19.257812 3.070312 19.257812 C 3.199219 19.257812 3.375 19.300781 3.507812 19.34375 C 3.59375 18.339844 4.421875 17.507812 5.464844 17.507812 C 6.25 17.507812 6.992188 17.988281 7.296875 18.734375 C 7.601562 18.515625 7.949219 18.382812 8.296875 18.382812 C 9.253906 18.382812 10.039062 19.171875 10.039062 20.132812 C 10.039062 20.132812 10.039062 20.175781 10.039062 20.175781 C 10.78125 20.351562 11.34375 21.050781 11.34375 21.882812 C 11.34375 22.84375 10.5625 23.632812 9.601562 23.632812 Z M 9.601562 23.632812 "/>
<path style=" stroke:none;fill-rule:nonzero;fill:rgb(27.839661%,16.859436%,16.079712%);fill-opacity:1;" d="M 7.207031 23.195312 C 7.121094 23.195312 6.859375 23.195312 6.773438 23.195312 C 6.640625 23.195312 6.554688 23.28125 6.554688 23.414062 C 6.554688 23.546875 6.640625 23.632812 6.773438 23.632812 C 6.859375 23.632812 7.121094 23.632812 7.207031 23.632812 C 7.339844 23.632812 7.425781 23.546875 7.425781 23.414062 C 7.425781 23.28125 7.339844 23.195312 7.207031 23.195312 Z M 7.207031 23.195312 "/>
<path style=" stroke:none;fill-rule:nonzero;fill:rgb(47.059631%,80.389404%,83.139038%);fill-opacity:1;" d="M 27.023438 16.0625 C 26.757812 16.0625 26.496094 16.089844 26.234375 16.140625 C 25.972656 16.195312 25.71875 16.269531 25.472656 16.371094 C 25.230469 16.476562 24.996094 16.601562 24.773438 16.75 C 24.550781 16.898438 24.347656 17.066406 24.160156 17.253906 C 23.972656 17.445312 23.804688 17.648438 23.65625 17.871094 C 23.507812 18.09375 23.382812 18.328125 23.28125 18.574219 C 23.179688 18.820312 23.101562 19.078125 23.050781 19.339844 C 22.996094 19.601562 22.972656 19.867188 22.972656 20.132812 C 22.972656 20.398438 22.996094 20.664062 23.050781 20.925781 C 23.101562 21.1875 23.179688 21.445312 23.28125 21.691406 C 23.382812 21.9375 23.507812 22.171875 23.65625 22.394531 C 23.804688 22.617188 23.972656 22.820312 24.160156 23.011719 C 24.347656 23.199219 24.550781 23.367188 24.773438 23.515625 C 24.996094 23.664062 25.230469 23.789062 25.472656 23.894531 C 25.71875 23.996094 25.972656 24.070312 26.234375 24.125 C 26.496094 24.175781 26.757812 24.203125 27.023438 24.203125 C 27.292969 24.203125 27.554688 24.175781 27.816406 24.125 C 28.078125 24.070312 28.332031 23.996094 28.578125 23.894531 C 28.820312 23.789062 29.054688 23.664062 29.277344 23.515625 C 29.5 23.367188 29.703125 23.199219 29.890625 23.011719 C 30.078125 22.820312 30.246094 22.617188 30.394531 22.394531 C 30.542969 22.171875 30.667969 21.9375 30.769531 21.691406 C 30.871094 21.445312 30.949219 21.1875 31 20.925781 C 31.054688 20.664062 31.078125 20.398438 31.078125 20.132812 C 31.078125 19.867188 31.054688 19.601562 31 19.339844 C 30.949219 19.078125 30.871094 18.820312 30.769531 18.574219 C 30.667969 18.328125 30.542969 18.09375 30.394531 17.871094 C 30.246094 17.648438 30.078125 17.445312 29.890625 17.253906 C 29.703125 17.066406 29.5 16.898438 29.277344 16.75 C 29.054688 16.601562 28.820312 16.476562 28.578125 16.371094 C 28.332031 16.269531 28.078125 16.195312 27.816406 16.140625 C 27.554688 16.089844 27.292969 16.0625 27.023438 16.0625 Z M 27.023438 16.0625 "/>
<path style=" stroke:none;fill-rule:nonzero;fill:rgb(27.839661%,16.859436%,16.079712%);fill-opacity:1;" d="M 27.023438 16.371094 C 29.074219 16.371094 30.769531 18.078125 30.769531 20.132812 C 30.769531 22.1875 29.074219 23.894531 27.023438 23.894531 C 24.976562 23.894531 23.28125 22.1875 23.28125 20.132812 C 23.28125 18.078125 24.976562 16.371094 27.023438 16.371094 M 27.023438 15.757812 C 24.628906 15.757812 22.667969 17.726562 22.667969 20.132812 C 22.667969 22.539062 24.628906 24.507812 27.023438 24.507812 C 29.421875 24.507812 31.378906 22.539062 31.378906 20.132812 C 31.378906 17.726562 29.421875 15.757812 27.023438 15.757812 Z M 27.023438 15.757812 "/>
<path style=" stroke:none;fill-rule:nonzero;fill:rgb(27.839661%,16.859436%,16.079712%);fill-opacity:1;" d="M 27.113281 22.84375 C 25.632812 22.84375 24.457031 21.664062 24.457031 20.175781 C 24.457031 18.6875 25.632812 17.507812 27.113281 17.507812 C 27.242188 17.507812 27.332031 17.59375 27.332031 17.726562 C 27.332031 17.859375 27.242188 17.945312 27.113281 17.945312 C 25.894531 17.945312 24.890625 18.953125 24.890625 20.175781 C 24.890625 21.402344 25.894531 22.40625 27.113281 22.40625 C 28.332031 22.40625 29.332031 21.402344 29.332031 20.175781 C 29.332031 20.046875 29.421875 19.957031 29.550781 19.957031 C 29.683594 19.957031 29.769531 20.046875 29.769531 20.175781 C 29.769531 21.621094 28.550781 22.84375 27.113281 22.84375 Z M 29.289062 19.257812 C 29.203125 19.257812 29.117188 19.214844 29.117188 19.125 C 28.898438 18.734375 28.59375 18.382812 28.203125 18.164062 C 28.113281 18.121094 28.070312 17.988281 28.113281 17.859375 C 28.15625 17.769531 28.289062 17.726562 28.417969 17.769531 C 28.898438 18.03125 29.289062 18.425781 29.507812 18.90625 C 29.550781 18.996094 29.507812 19.125 29.421875 19.214844 C 29.332031 19.257812 29.332031 19.257812 29.289062 19.257812 Z M 29.289062 19.257812 "/>
<path style=" stroke:none;fill-rule:nonzero;fill:rgb(47.059631%,80.389404%,83.139038%);fill-opacity:1;" d="M 16.136719 10.8125 C 15.871094 10.8125 15.605469 10.839844 15.347656 10.890625 C 15.085938 10.945312 14.832031 11.019531 14.585938 11.125 C 14.339844 11.226562 14.105469 11.351562 13.886719 11.5 C 13.664062 11.648438 13.460938 11.816406 13.269531 12.003906 C 13.082031 12.195312 12.914062 12.398438 12.765625 12.621094 C 12.621094 12.84375 12.496094 13.078125 12.394531 13.324219 C 12.289062 13.570312 12.214844 13.828125 12.160156 14.089844 C 12.109375 14.351562 12.085938 14.617188 12.085938 14.882812 C 12.085938 15.148438 12.109375 15.414062 12.160156 15.675781 C 12.214844 15.9375 12.289062 16.195312 12.394531 16.441406 C 12.496094 16.6875 12.621094 16.921875 12.765625 17.144531 C 12.914062 17.367188 13.082031 17.570312 13.269531 17.761719 C 13.460938 17.949219 13.664062 18.117188 13.886719 18.265625 C 14.105469 18.414062 14.339844 18.539062 14.585938 18.640625 C 14.832031 18.746094 15.085938 18.820312 15.347656 18.875 C 15.605469 18.925781 15.871094 18.953125 16.136719 18.953125 C 16.402344 18.953125 16.667969 18.925781 16.925781 18.875 C 17.1875 18.820312 17.441406 18.746094 17.6875 18.640625 C 17.933594 18.539062 18.167969 18.414062 18.386719 18.265625 C 18.609375 18.117188 18.8125 17.949219 19.003906 17.761719 C 19.191406 17.570312 19.359375 17.367188 19.507812 17.144531 C 19.652344 16.921875 19.777344 16.6875 19.878906 16.441406 C 19.984375 16.195312 20.058594 15.9375 20.113281 15.675781 C 20.164062 15.414062 20.1875 15.148438 20.1875 14.882812 C 20.1875 14.617188 20.164062 14.351562 20.113281 14.089844 C 20.058594 13.828125 19.984375 13.570312 19.878906 13.324219 C 19.777344 13.078125 19.652344 12.84375 19.507812 12.621094 C 19.359375 12.398438 19.191406 12.195312 19.003906 12.003906 C 18.8125 11.816406 18.609375 11.648438 18.386719 11.5 C 18.167969 11.351562 17.933594 11.226562 17.6875 11.125 C 17.441406 11.019531 17.1875 10.945312 16.925781 10.890625 C 16.667969 10.839844 16.402344 10.8125 16.136719 10.8125 Z M 16.136719 10.8125 "/>
<path style=" stroke:none;fill-rule:nonzero;fill:rgb(27.839661%,16.859436%,16.079712%);fill-opacity:1;" d="M 16.136719 11.121094 C 18.183594 11.121094 19.882812 12.828125 19.882812 14.882812 C 19.882812 16.9375 18.183594 18.644531 16.136719 18.644531 C 14.089844 18.644531 12.390625 16.9375 12.390625 14.882812 C 12.390625 12.828125 14.089844 11.121094 16.136719 11.121094 M 16.136719 10.507812 C 13.742188 10.507812 11.78125 12.476562 11.78125 14.882812 C 11.78125 17.289062 13.742188 19.257812 16.136719 19.257812 C 18.53125 19.257812 20.492188 17.289062 20.492188 14.882812 C 20.492188 12.476562 18.53125 10.507812 16.136719 10.507812 Z M 16.136719 10.507812 "/>
<path style=" stroke:none;fill-rule:nonzero;fill:rgb(27.839661%,16.859436%,16.079712%);fill-opacity:1;" d="M 16.050781 17.507812 C 14.570312 17.507812 13.394531 16.328125 13.394531 14.839844 C 13.394531 13.351562 14.570312 12.171875 16.050781 12.171875 C 16.179688 12.171875 16.265625 12.257812 16.265625 12.390625 C 16.265625 12.519531 16.179688 12.609375 16.050781 12.609375 C 14.828125 12.609375 13.828125 13.613281 13.828125 14.839844 C 13.828125 16.0625 14.828125 17.070312 16.050781 17.070312 C 17.269531 17.070312 18.269531 16.0625 18.269531 14.839844 C 18.269531 14.707031 18.359375 14.621094 18.488281 14.621094 C 18.621094 14.621094 18.707031 14.707031 18.707031 14.839844 C 18.75 16.28125 17.53125 17.507812 16.050781 17.507812 Z M 18.269531 13.921875 C 18.183594 13.921875 18.097656 13.875 18.097656 13.789062 C 17.878906 13.394531 17.574219 13.046875 17.183594 12.828125 C 17.09375 12.78125 17.050781 12.652344 17.09375 12.519531 C 17.136719 12.433594 17.269531 12.390625 17.398438 12.433594 C 17.878906 12.695312 18.269531 13.089844 18.488281 13.570312 C 18.53125 13.65625 18.488281 13.789062 18.402344 13.875 C 18.3125 13.921875 18.3125 13.921875 18.269531 13.921875 Z M 18.269531 13.921875 "/>
<path style=" stroke:none;fill-rule:nonzero;fill:rgb(47.059631%,80.389404%,83.139038%);fill-opacity:1;" d="M 16.136719 21.75 C 15.871094 21.75 15.605469 21.777344 15.347656 21.828125 C 15.085938 21.882812 14.832031 21.960938 14.585938 22.0625 C 14.339844 22.164062 14.109375 22.289062 13.886719 22.4375 C 13.664062 22.585938 13.460938 22.753906 13.273438 22.941406 C 13.085938 23.132812 12.917969 23.335938 12.769531 23.558594 C 12.621094 23.78125 12.496094 24.015625 12.394531 24.261719 C 12.292969 24.511719 12.214844 24.765625 12.164062 25.027344 C 12.113281 25.289062 12.085938 25.554688 12.085938 25.820312 C 12.085938 26.085938 12.113281 26.351562 12.164062 26.613281 C 12.214844 26.875 12.292969 27.128906 12.394531 27.378906 C 12.496094 27.625 12.621094 27.859375 12.769531 28.082031 C 12.917969 28.304688 13.085938 28.507812 13.273438 28.699219 C 13.460938 28.886719 13.664062 29.054688 13.886719 29.203125 C 14.109375 29.351562 14.339844 29.476562 14.585938 29.578125 C 14.832031 29.679688 15.085938 29.757812 15.347656 29.8125 C 15.605469 29.863281 15.871094 29.890625 16.136719 29.890625 C 16.402344 29.890625 16.667969 29.863281 16.925781 29.8125 C 17.1875 29.757812 17.441406 29.679688 17.6875 29.578125 C 17.933594 29.476562 18.164062 29.351562 18.386719 29.203125 C 18.609375 29.054688 18.8125 28.886719 19 28.699219 C 19.1875 28.507812 19.355469 28.304688 19.503906 28.082031 C 19.652344 27.859375 19.777344 27.625 19.878906 27.378906 C 19.980469 27.128906 20.058594 26.875 20.109375 26.613281 C 20.160156 26.351562 20.1875 26.085938 20.1875 25.820312 C 20.1875 25.554688 20.160156 25.289062 20.109375 25.027344 C 20.058594 24.765625 19.980469 24.511719 19.878906 24.261719 C 19.777344 24.015625 19.652344 23.78125 19.503906 23.558594 C 19.355469 23.335938 19.1875 23.132812 19 22.941406 C 18.8125 22.753906 18.609375 22.585938 18.386719 22.4375 C 18.164062 22.289062 17.933594 22.164062 17.6875 22.0625 C 17.441406 21.960938 17.1875 21.882812 16.925781 21.828125 C 16.667969 21.777344 16.402344 21.75 16.136719 21.75 Z M 16.136719 21.75 "/>
<path style=" stroke:none;fill-rule:nonzero;fill:rgb(27.839661%,16.859436%,16.079712%);fill-opacity:1;" d="M 16.136719 22.058594 C 18.183594 22.058594 19.882812 23.765625 19.882812 25.820312 C 19.882812 27.875 18.183594 29.582031 16.136719 29.582031 C 14.089844 29.582031 12.390625 27.875 12.390625 25.820312 C 12.390625 23.765625 14.089844 22.058594 16.136719 22.058594 M 16.136719 21.445312 C 13.742188 21.445312 11.78125 23.414062 11.78125 25.820312 C 11.78125 28.226562 13.742188 30.195312 16.136719 30.195312 C 18.53125 30.195312 20.492188 28.226562 20.492188 25.820312 C 20.492188 23.414062 18.53125 21.445312 16.136719 21.445312 Z M 16.136719 21.445312 "/>
<path style=" stroke:none;fill-rule:nonzero;fill:rgb(27.839661%,16.859436%,16.079712%);fill-opacity:1;" d="M 16.050781 28.578125 C 14.570312 28.578125 13.394531 27.394531 13.394531 25.90625 C 13.394531 24.421875 14.570312 23.238281 16.050781 23.238281 C 16.179688 23.238281 16.265625 23.328125 16.265625 23.457031 C 16.265625 23.589844 16.179688 23.632812 16.050781 23.632812 C 14.828125 23.632812 13.828125 24.640625 13.828125 25.863281 C 13.828125 27.089844 14.828125 28.09375 16.050781 28.09375 C 17.269531 28.09375 18.3125 27.132812 18.3125 25.90625 C 18.3125 25.777344 18.402344 25.6875 18.53125 25.6875 C 18.664062 25.6875 18.75 25.777344 18.75 25.90625 C 18.75 27.351562 17.53125 28.578125 16.050781 28.578125 Z M 18.269531 25.03125 C 18.183594 25.03125 18.097656 24.988281 18.097656 24.902344 C 17.878906 24.507812 17.574219 24.15625 17.183594 23.9375 C 17.09375 23.894531 17.050781 23.765625 17.09375 23.632812 C 17.136719 23.546875 17.269531 23.5 17.398438 23.546875 C 17.878906 23.808594 18.269531 24.203125 18.488281 24.683594 C 18.53125 24.769531 18.488281 24.902344 18.402344 24.988281 C 18.3125 24.988281 18.3125 25.03125 18.269531 25.03125 Z M 18.269531 25.03125 "/>
</g>
</svg>
