<?xml version="1.0" encoding="UTF-8"?>
<svg xmlns="http://www.w3.org/2000/svg" xmlns:xlink="http://www.w3.org/1999/xlink" width="37.5pt" height="37.499999pt" viewBox="0 0 37.5 37.499999" version="1.2">
<defs>
<clipPath id="clip1">
  <path d="M 1 3.75 L 36 3.75 L 36 33.75 L 1 33.75 Z M 1 3.75 "/>
</clipPath>
<clipPath id="clip2">
  <path d="M 26 13 L 37.007812 13 L 37.007812 19 L 26 19 Z M 26 13 "/>
</clipPath>
<clipPath id="clip3">
  <path d="M 26 13 L 37.007812 13 L 37.007812 20 L 26 20 Z M 26 13 "/>
</clipPath>
</defs>
<g id="surface1">
<g clip-path="url(#clip1)" clip-rule="nonzero">
<path style=" stroke:none;fill-rule:nonzero;fill:rgb(78.039551%,92.939758%,90.19928%);fill-opacity:1;" d="M 34.257812 21.546875 C 34.730469 20.648438 35 19.628906 35 18.542969 C 35 15.78125 33.265625 13.433594 30.832031 12.507812 C 30.832031 12.507812 30.832031 12.503906 30.832031 12.5 C 30.832031 7.667969 26.914062 3.75 22.082031 3.75 C 18.007812 3.75 14.589844 6.542969 13.621094 10.316406 C 13.003906 10.113281 12.347656 10 11.667969 10 C 8.460938 10 5.824219 12.414062 5.460938 15.523438 C 3.292969 15.980469 1.667969 17.902344 1.667969 20.207031 C 1.667969 22.855469 3.8125 25 6.457031 25 C 6.53125 25 6.605469 24.996094 6.675781 24.992188 C 6.675781 25.0625 6.667969 25.136719 6.667969 25.207031 C 6.667969 29.925781 10.492188 33.75 15.207031 33.75 C 17.890625 33.75 20.28125 32.511719 21.847656 30.578125 C 22.753906 31.503906 24.015625 32.082031 25.417969 32.082031 C 27.355469 32.082031 29.03125 30.980469 29.859375 29.367188 C 30.300781 29.507812 30.765625 29.582031 31.25 29.582031 C 33.78125 29.582031 35.832031 27.53125 35.832031 25 C 35.832031 23.621094 35.222656 22.386719 34.257812 21.546875 Z M 34.257812 21.546875 "/>
</g>
<path style=" stroke:none;fill-rule:nonzero;fill:rgb(100%,100%,100%);fill-opacity:1;" d="M 4.375 19.167969 L 0.207031 19.167969 C 0.09375 19.167969 0 19.074219 0 18.957031 C 0 18.84375 0.09375 18.75 0.207031 18.75 L 4.375 18.75 C 4.488281 18.75 4.582031 18.84375 4.582031 18.957031 C 4.582031 19.074219 4.492188 19.167969 4.375 19.167969 Z M 5.625 19.167969 L 5.207031 19.167969 C 5.09375 19.167969 5 19.074219 5 18.957031 C 5 18.84375 5.09375 18.75 5.207031 18.75 L 5.625 18.75 C 5.738281 18.75 5.832031 18.84375 5.832031 18.957031 C 5.832031 19.074219 5.742188 19.167969 5.625 19.167969 Z M 7.703125 20 L 3.957031 20 C 3.84375 20 3.75 19.90625 3.75 19.792969 C 3.75 19.675781 3.84375 19.582031 3.957031 19.582031 L 7.703125 19.582031 C 7.820312 19.582031 7.914062 19.675781 7.914062 19.792969 C 7.914062 19.90625 7.820312 20 7.703125 20 Z M 3.125 20 L 2.707031 20 C 2.59375 20 2.5 19.90625 2.5 19.792969 C 2.5 19.675781 2.59375 19.582031 2.707031 19.582031 L 3.125 19.582031 C 3.238281 19.582031 3.332031 19.675781 3.332031 19.792969 C 3.332031 19.90625 3.242188 20 3.125 20 Z M 1.875 20 L 1.042969 20 C 0.925781 20 0.832031 19.90625 0.832031 19.792969 C 0.832031 19.675781 0.925781 19.582031 1.042969 19.582031 L 1.875 19.582031 C 1.988281 19.582031 2.082031 19.675781 2.082031 19.792969 C 2.082031 19.90625 1.992188 20 1.875 20 Z M 4.375 20.832031 L 3.542969 20.832031 C 3.425781 20.832031 3.332031 20.738281 3.332031 20.625 C 3.332031 20.511719 3.425781 20.417969 3.542969 20.417969 L 4.375 20.417969 C 4.488281 20.417969 4.582031 20.511719 4.582031 20.625 C 4.582031 20.738281 4.488281 20.832031 4.375 20.832031 Z M 5.625 17.082031 C 5.550781 17.082031 5.28125 17.082031 5.207031 17.082031 C 5.09375 17.082031 5 17.175781 5 17.292969 C 5 17.40625 5.09375 17.5 5.207031 17.5 C 5.28125 17.5 5.550781 17.5 5.625 17.5 C 5.738281 17.5 5.832031 17.40625 5.832031 17.292969 C 5.832031 17.175781 5.738281 17.082031 5.625 17.082031 Z M 5.625 17.917969 C 5.550781 17.917969 3.617188 17.917969 3.542969 17.917969 C 3.425781 17.917969 3.332031 18.011719 3.332031 18.125 C 3.332031 18.238281 3.425781 18.332031 3.542969 18.332031 C 3.617188 18.332031 5.550781 18.332031 5.625 18.332031 C 5.738281 18.332031 5.832031 18.238281 5.832031 18.125 C 5.832031 18.011719 5.738281 17.917969 5.625 17.917969 Z M 7.707031 18.75 C 7.632812 18.75 6.53125 18.75 6.457031 18.75 C 6.34375 18.75 6.25 18.84375 6.25 18.957031 C 6.25 19.074219 6.34375 19.167969 6.457031 19.167969 C 6.53125 19.167969 7.632812 19.167969 7.707031 19.167969 C 7.824219 19.167969 7.917969 19.074219 7.917969 18.957031 C 7.917969 18.84375 7.824219 18.75 7.707031 18.75 Z M 28.125 7.917969 L 23.957031 7.917969 C 23.84375 7.917969 23.75 7.824219 23.75 7.707031 C 23.75 7.59375 23.84375 7.5 23.957031 7.5 L 28.125 7.5 C 28.238281 7.5 28.332031 7.59375 28.332031 7.707031 C 28.332031 7.824219 28.238281 7.917969 28.125 7.917969 Z M 29.792969 7.917969 L 28.957031 7.917969 C 28.84375 7.917969 28.75 7.824219 28.75 7.707031 C 28.75 7.59375 28.84375 7.5 28.957031 7.5 L 29.792969 7.5 C 29.90625 7.5 30 7.59375 30 7.707031 C 30 7.824219 29.90625 7.917969 29.792969 7.917969 Z M 31.875 8.75 L 27.707031 8.75 C 27.59375 8.75 27.5 8.65625 27.5 8.542969 C 27.5 8.425781 27.59375 8.332031 27.707031 8.332031 L 31.875 8.332031 C 31.988281 8.332031 32.082031 8.425781 32.082031 8.542969 C 32.082031 8.65625 31.992188 8.75 31.875 8.75 Z M 26.875 8.75 L 26.457031 8.75 C 26.34375 8.75 26.25 8.65625 26.25 8.542969 C 26.25 8.425781 26.34375 8.332031 26.457031 8.332031 L 26.875 8.332031 C 26.988281 8.332031 27.082031 8.425781 27.082031 8.542969 C 27.082031 8.65625 26.988281 8.75 26.875 8.75 Z M 25.613281 8.75 L 24.792969 8.75 C 24.675781 8.75 24.582031 8.65625 24.582031 8.542969 C 24.582031 8.425781 24.675781 8.332031 24.792969 8.332031 L 25.613281 8.332031 C 25.726562 8.332031 25.820312 8.425781 25.820312 8.542969 C 25.820312 8.65625 25.726562 8.75 25.613281 8.75 Z M 29.375 7.082031 L 27.292969 7.082031 C 27.175781 7.082031 27.082031 6.988281 27.082031 6.875 C 27.082031 6.761719 27.175781 6.667969 27.292969 6.667969 L 29.375 6.667969 C 29.488281 6.667969 29.582031 6.761719 29.582031 6.875 C 29.582031 6.988281 29.492188 7.082031 29.375 7.082031 Z M 28.125 9.582031 L 27.292969 9.582031 C 27.175781 9.582031 27.082031 9.488281 27.082031 9.375 C 27.082031 9.261719 27.175781 9.167969 27.292969 9.167969 L 28.125 9.167969 C 28.238281 9.167969 28.332031 9.261719 28.332031 9.375 C 28.332031 9.488281 28.238281 9.582031 28.125 9.582031 Z M 28.125 9.582031 "/>
<path style=" stroke:none;fill-rule:nonzero;fill:rgb(93.328857%,24.308777%,32.939148%);fill-opacity:1;" d="M 30 17.640625 C 30 23.125 22.585938 27.988281 19.167969 29.9375 C 15.746094 27.988281 8.332031 23.125 8.332031 17.640625 C 8.332031 14.800781 9.707031 12.527344 11.832031 11.859375 C 12.242188 11.734375 12.664062 11.667969 13.082031 11.667969 C 14.925781 11.667969 16.917969 13 18.550781 15.328125 C 18.683594 15.523438 18.917969 15.640625 19.167969 15.640625 C 19.417969 15.640625 19.648438 15.523438 19.785156 15.328125 C 21.414062 13.007812 23.425781 11.675781 25.304688 11.675781 C 25.710938 11.675781 26.113281 11.738281 26.5 11.859375 C 28.625 12.527344 30 14.800781 30 17.640625 Z M 30 17.640625 "/>
<path style=" stroke:none;fill-rule:nonzero;fill:rgb(27.839661%,16.859436%,16.079712%);fill-opacity:1;" d="M 13.085938 11.832031 C 14.871094 11.832031 16.8125 13.140625 18.410156 15.421875 C 18.578125 15.664062 18.859375 15.808594 19.167969 15.808594 C 19.472656 15.808594 19.753906 15.664062 19.921875 15.425781 C 21.515625 13.148438 23.480469 11.84375 25.304688 11.84375 C 25.695312 11.84375 26.078125 11.902344 26.449219 12.015625 C 28.503906 12.664062 29.832031 14.871094 29.832031 17.640625 C 29.832031 22.996094 22.597656 27.78125 19.167969 29.746094 C 15.738281 27.78125 8.5 22.996094 8.5 17.640625 C 8.5 14.871094 9.828125 12.664062 11.886719 12.019531 C 12.273438 11.894531 12.679688 11.832031 13.085938 11.832031 M 13.085938 11.25 C 12.621094 11.25 12.160156 11.320312 11.710938 11.460938 C 9.40625 12.1875 7.917969 14.613281 7.917969 17.640625 C 7.917969 23.316406 15.363281 28.25 18.964844 30.300781 C 19.089844 30.375 19.242188 30.375 19.371094 30.300781 C 22.972656 28.25 30.417969 23.316406 30.417969 17.640625 C 30.417969 14.613281 28.929688 12.1875 26.625 11.460938 C 26.191406 11.324219 25.75 11.257812 25.304688 11.257812 C 23.265625 11.257812 21.152344 12.652344 19.441406 15.089844 C 19.378906 15.179688 19.273438 15.226562 19.167969 15.226562 C 19.058594 15.226562 18.953125 15.179688 18.890625 15.089844 C 17.199219 12.675781 15.105469 11.25 13.085938 11.25 Z M 13.085938 11.25 "/>
<path style=" stroke:none;fill-rule:nonzero;fill:rgb(27.839661%,16.859436%,16.079712%);fill-opacity:1;" d="M 10.539062 15 C 10.609375 15 10.675781 14.964844 10.714844 14.898438 C 10.855469 14.667969 11.015625 14.457031 11.191406 14.269531 C 11.273438 14.1875 11.269531 14.054688 11.183594 13.976562 C 11.101562 13.898438 10.96875 13.902344 10.890625 13.984375 C 10.695312 14.191406 10.515625 14.425781 10.359375 14.683594 C 10.300781 14.78125 10.332031 14.910156 10.429688 14.96875 C 10.464844 14.992188 10.5 15 10.539062 15 Z M 10.539062 15 "/>
<path style=" stroke:none;fill-rule:nonzero;fill:rgb(27.839661%,16.859436%,16.079712%);fill-opacity:1;" d="M 19.160156 28.332031 C 19.195312 28.332031 19.238281 28.324219 19.269531 28.304688 C 22.121094 26.648438 28.75 22.300781 28.75 17.722656 C 28.75 15.410156 27.660156 13.578125 25.972656 13.058594 C 25.667969 12.964844 25.347656 12.917969 25.027344 12.917969 C 23.53125 12.917969 21.871094 14.042969 20.464844 16.007812 C 20.171875 16.417969 19.6875 16.664062 19.164062 16.664062 C 18.636719 16.664062 18.152344 16.417969 17.863281 16.007812 C 16.457031 14.042969 14.796875 12.917969 13.304688 12.917969 C 12.984375 12.917969 12.664062 12.964844 12.355469 13.058594 C 12.15625 13.121094 11.960938 13.203125 11.777344 13.300781 C 11.675781 13.355469 11.636719 13.484375 11.691406 13.585938 C 11.746094 13.6875 11.871094 13.722656 11.972656 13.667969 C 12.136719 13.582031 12.304688 13.511719 12.480469 13.457031 C 12.746094 13.375 13.023438 13.332031 13.304688 13.332031 C 14.660156 13.332031 16.199219 14.394531 17.523438 16.25 C 17.890625 16.769531 18.503906 17.082031 19.160156 17.082031 C 19.820312 17.082031 20.433594 16.769531 20.804688 16.25 C 22.128906 14.394531 23.667969 13.332031 25.027344 13.332031 C 25.304688 13.332031 25.582031 13.375 25.851562 13.457031 C 27.359375 13.921875 28.332031 15.597656 28.332031 17.722656 C 28.332031 22.03125 22.003906 26.222656 19.164062 27.886719 C 16.324219 26.222656 10 22.035156 10 17.722656 C 10 16.992188 10.113281 16.308594 10.335938 15.695312 C 10.375 15.589844 10.320312 15.46875 10.210938 15.429688 C 10.101562 15.390625 9.984375 15.445312 9.945312 15.554688 C 9.703125 16.214844 9.582031 16.941406 9.582031 17.722656 C 9.582031 22.300781 16.207031 26.648438 19.054688 28.304688 C 19.085938 28.324219 19.121094 28.332031 19.160156 28.332031 Z M 19.160156 28.332031 "/>
<g clip-path="url(#clip2)" clip-rule="nonzero">
<path style=" stroke:none;fill-rule:nonzero;fill:rgb(99.21875%,98.81897%,93.728638%);fill-opacity:1;" d="M 34.375 18.957031 C 34.375 18.957031 35.027344 18.957031 35.832031 18.957031 C 36.640625 18.957031 37.292969 18.304688 37.292969 17.5 C 37.292969 16.757812 36.734375 16.152344 36.019531 16.058594 C 36.03125 15.984375 36.042969 15.910156 36.042969 15.832031 C 36.042969 15.027344 35.390625 14.375 34.582031 14.375 C 34.152344 14.375 33.769531 14.566406 33.503906 14.859375 C 33.34375 14.105469 32.675781 13.542969 31.875 13.542969 C 30.953125 13.542969 30.207031 14.289062 30.207031 15.207031 C 30.207031 15.289062 30.222656 15.363281 30.230469 15.441406 C 30.054688 15.296875 29.828125 15.207031 29.582031 15.207031 C 29.070312 15.207031 28.648438 15.578125 28.558594 16.066406 C 28.484375 16.054688 28.410156 16.042969 28.332031 16.042969 C 27.527344 16.042969 26.875 16.695312 26.875 17.5 C 26.875 18.304688 27.527344 18.957031 28.332031 18.957031 C 29.140625 18.957031 31.457031 18.957031 31.457031 18.957031 "/>
</g>
<path style=" stroke:none;fill-rule:nonzero;fill:rgb(27.839661%,16.859436%,16.079712%);fill-opacity:1;" d="M 35.105469 17.082031 C 35.046875 17.082031 35 17.035156 35 16.980469 C 35 16.46875 35.414062 16.054688 35.925781 16.054688 C 35.9375 16.058594 36.230469 16.054688 36.441406 16.113281 C 36.496094 16.125 36.53125 16.183594 36.515625 16.238281 C 36.5 16.296875 36.445312 16.328125 36.386719 16.3125 C 36.203125 16.261719 35.929688 16.261719 35.925781 16.261719 C 35.53125 16.261719 35.207031 16.585938 35.207031 16.980469 C 35.207031 17.035156 35.160156 17.082031 35.105469 17.082031 Z M 32.292969 18.75 C 32.152344 18.75 32.082031 18.820312 32.082031 18.957031 C 32.082031 19.097656 32.152344 19.167969 32.292969 19.167969 C 32.429688 19.167969 32.5 19.097656 32.5 18.957031 C 32.5 18.820312 32.429688 18.75 32.292969 18.75 Z M 32.292969 18.75 "/>
<g clip-path="url(#clip3)" clip-rule="nonzero">
<path style=" stroke:none;fill-rule:nonzero;fill:rgb(27.839661%,16.859436%,16.079712%);fill-opacity:1;" d="M 35.832031 19.167969 L 34.375 19.167969 C 34.261719 19.167969 34.167969 19.074219 34.167969 18.957031 C 34.167969 18.84375 34.261719 18.75 34.375 18.75 L 35.832031 18.75 C 36.523438 18.75 37.082031 18.1875 37.082031 17.5 C 37.082031 16.875 36.613281 16.347656 35.992188 16.265625 C 35.9375 16.257812 35.886719 16.230469 35.851562 16.183594 C 35.820312 16.140625 35.804688 16.082031 35.8125 16.027344 C 35.824219 15.964844 35.832031 15.898438 35.832031 15.832031 C 35.832031 15.144531 35.273438 14.582031 34.582031 14.582031 C 34.230469 14.582031 33.902344 14.730469 33.660156 15 C 33.605469 15.058594 33.523438 15.082031 33.449219 15.0625 C 33.375 15.042969 33.316406 14.980469 33.300781 14.902344 C 33.160156 14.234375 32.558594 13.75 31.875 13.75 C 31.070312 13.75 30.417969 14.402344 30.417969 15.207031 C 30.417969 15.269531 30.425781 15.324219 30.433594 15.382812 C 30.445312 15.46875 30.40625 15.566406 30.332031 15.609375 C 30.257812 15.648438 30.167969 15.65625 30.101562 15.601562 C 29.949219 15.480469 29.769531 15.417969 29.582031 15.417969 C 29.179688 15.417969 28.835938 15.703125 28.765625 16.101562 C 28.746094 16.214844 28.640625 16.289062 28.527344 16.269531 C 28.464844 16.261719 28.398438 16.25 28.332031 16.25 C 27.644531 16.25 27.082031 16.8125 27.082031 17.5 C 27.082031 18.1875 27.644531 18.75 28.332031 18.75 L 31.457031 18.75 C 31.574219 18.75 31.667969 18.84375 31.667969 18.957031 C 31.667969 19.074219 31.574219 19.167969 31.457031 19.167969 L 28.332031 19.167969 C 27.414062 19.167969 26.667969 18.417969 26.667969 17.5 C 26.667969 16.582031 27.414062 15.832031 28.332031 15.832031 C 28.359375 15.832031 28.382812 15.835938 28.40625 15.835938 C 28.578125 15.339844 29.046875 15 29.582031 15 C 29.730469 15 29.871094 15.027344 30.003906 15.074219 C 30.074219 14.101562 30.886719 13.332031 31.875 13.332031 C 32.636719 13.332031 33.320312 13.804688 33.605469 14.488281 C 33.890625 14.28125 34.230469 14.167969 34.582031 14.167969 C 35.503906 14.167969 36.25 14.914062 36.25 15.832031 C 36.25 15.851562 36.25 15.871094 36.25 15.890625 C 36.972656 16.078125 37.5 16.738281 37.5 17.5 C 37.5 18.417969 36.753906 19.167969 35.832031 19.167969 Z M 35.832031 19.167969 "/>
</g>
<path style=" stroke:none;fill-rule:nonzero;fill:rgb(27.839661%,16.859436%,16.079712%);fill-opacity:1;" d="M 33.542969 18.75 C 33.476562 18.75 33.191406 18.75 33.125 18.75 C 33.011719 18.75 32.917969 18.84375 32.917969 18.957031 C 32.917969 19.074219 33.011719 19.167969 33.125 19.167969 C 33.191406 19.167969 33.476562 19.167969 33.542969 19.167969 C 33.65625 19.167969 33.75 19.074219 33.75 18.957031 C 33.75 18.84375 33.65625 18.75 33.542969 18.75 Z M 33.542969 18.75 "/>
<path style=" stroke:none;fill-rule:nonzero;fill:rgb(99.21875%,98.81897%,93.728638%);fill-opacity:1;" d="M 14.113281 28.125 C 14.113281 28.125 16.046875 28.125 17.082031 28.125 C 18.117188 28.125 18.957031 27.285156 18.957031 26.25 C 18.957031 25.277344 18.214844 24.488281 17.269531 24.394531 C 17.277344 24.316406 17.292969 24.246094 17.292969 24.167969 C 17.292969 23.132812 16.453125 22.292969 15.417969 22.292969 C 14.816406 22.292969 14.289062 22.578125 13.945312 23.015625 C 13.890625 21.917969 12.988281 21.042969 11.875 21.042969 C 10.722656 21.042969 9.792969 21.972656 9.792969 23.125 C 9.792969 23.3125 9.824219 23.488281 9.871094 23.660156 C 9.601562 23.335938 9.203125 23.125 8.75 23.125 C 8.007812 23.125 7.402344 23.679688 7.308594 24.398438 C 7.234375 24.390625 7.160156 24.375 7.082031 24.375 C 6.046875 24.375 5.207031 25.214844 5.207031 26.25 C 5.207031 27.285156 6.046875 28.125 7.082031 28.125 C 8.117188 28.125 11.042969 28.125 11.042969 28.125 Z M 14.113281 28.125 "/>
<path style=" stroke:none;fill-rule:nonzero;fill:rgb(27.839661%,16.859436%,16.079712%);fill-opacity:1;" d="M 11.875 20.832031 C 10.609375 20.832031 9.582031 21.859375 9.582031 23.125 C 9.582031 23.132812 9.582031 23.136719 9.582031 23.144531 C 9.332031 22.996094 9.046875 22.917969 8.75 22.917969 C 7.988281 22.917969 7.328125 23.441406 7.140625 24.167969 C 7.121094 24.167969 7.101562 24.167969 7.082031 24.167969 C 5.933594 24.167969 5 25.101562 5 26.25 C 5 27.398438 5.933594 28.332031 7.082031 28.332031 L 13.125 28.332031 C 13.238281 28.332031 13.332031 28.238281 13.332031 28.125 C 13.332031 28.011719 13.238281 27.917969 13.125 27.917969 L 7.082031 27.917969 C 6.164062 27.917969 5.417969 27.167969 5.417969 26.25 C 5.417969 25.332031 6.164062 24.582031 7.082031 24.582031 C 7.132812 24.582031 7.179688 24.589844 7.226562 24.597656 L 7.285156 24.605469 C 7.292969 24.605469 7.300781 24.605469 7.3125 24.605469 C 7.414062 24.605469 7.503906 24.527344 7.515625 24.425781 C 7.597656 23.800781 8.125 23.332031 8.75 23.332031 C 9.117188 23.332031 9.46875 23.5 9.707031 23.792969 C 9.75 23.839844 9.808594 23.867188 9.871094 23.867188 C 9.902344 23.867188 9.933594 23.859375 9.964844 23.84375 C 10.050781 23.800781 10.09375 23.699219 10.070312 23.605469 C 10.023438 23.425781 10 23.273438 10 23.125 C 10 22.089844 10.839844 21.25 11.875 21.25 C 12.867188 21.25 13.6875 22.03125 13.738281 23.027344 C 13.742188 23.113281 13.800781 23.1875 13.882812 23.214844 C 13.90625 23.21875 13.925781 23.222656 13.949219 23.222656 C 14.011719 23.222656 14.070312 23.195312 14.109375 23.144531 C 14.433594 22.734375 14.90625 22.5 15.417969 22.5 C 16.335938 22.5 17.082031 23.246094 17.082031 24.167969 C 17.082031 24.214844 17.078125 24.261719 17.070312 24.308594 L 17.0625 24.367188 C 17.054688 24.425781 17.070312 24.480469 17.105469 24.523438 C 17.140625 24.566406 17.191406 24.59375 17.246094 24.601562 C 18.105469 24.6875 18.75 25.394531 18.75 26.25 C 18.75 27.167969 18.003906 27.917969 17.082031 27.917969 L 14.375 27.917969 C 14.261719 27.917969 14.167969 28.011719 14.167969 28.125 C 14.167969 28.238281 14.261719 28.332031 14.375 28.332031 L 17.082031 28.332031 C 18.230469 28.332031 19.167969 27.398438 19.167969 26.25 C 19.167969 25.25 18.464844 24.410156 17.5 24.21875 C 17.5 24.199219 17.5 24.183594 17.5 24.167969 C 17.5 23.019531 16.566406 22.082031 15.417969 22.082031 C 14.925781 22.082031 14.460938 22.257812 14.089844 22.566406 C 13.839844 21.566406 12.941406 20.832031 11.875 20.832031 Z M 11.875 20.832031 "/>
<path style=" stroke:none;fill-rule:nonzero;fill:rgb(27.839661%,16.859436%,16.079712%);fill-opacity:1;" d="M 11.25 23.75 C 10.664062 23.75 10.164062 24.167969 10.035156 24.726562 C 9.882812 24.632812 9.707031 24.582031 9.53125 24.582031 C 9.03125 24.582031 8.617188 24.957031 8.550781 25.445312 C 8.464844 25.425781 8.386719 25.417969 8.308594 25.417969 C 7.671875 25.417969 7.136719 25.917969 7.089844 26.554688 C 7.085938 26.613281 7.128906 26.664062 7.1875 26.667969 C 7.191406 26.667969 7.191406 26.667969 7.195312 26.667969 C 7.25 26.667969 7.296875 26.625 7.300781 26.570312 C 7.335938 26.039062 7.777344 25.625 8.308594 25.625 C 8.402344 25.625 8.503906 25.640625 8.613281 25.679688 C 8.625 25.679688 8.632812 25.683594 8.640625 25.683594 C 8.664062 25.683594 8.6875 25.671875 8.707031 25.660156 C 8.734375 25.640625 8.75 25.605469 8.75 25.574219 C 8.75 25.140625 9.101562 24.792969 9.53125 24.792969 C 9.71875 24.792969 9.898438 24.863281 10.042969 24.988281 C 10.0625 25.003906 10.089844 25.015625 10.113281 25.015625 C 10.125 25.015625 10.140625 25.011719 10.152344 25.007812 C 10.1875 24.992188 10.214844 24.957031 10.214844 24.917969 C 10.257812 24.378906 10.714844 23.957031 11.25 23.957031 C 11.335938 23.957031 11.425781 23.972656 11.535156 24.003906 C 11.542969 24.003906 11.554688 24.007812 11.5625 24.007812 C 11.609375 24.007812 11.648438 23.976562 11.664062 23.929688 C 11.679688 23.875 11.648438 23.816406 11.589844 23.800781 C 11.464844 23.765625 11.355469 23.75 11.25 23.75 Z M 17.035156 24.375 C 16.480469 24.375 15.988281 24.75 15.835938 25.285156 C 15.820312 25.339844 15.851562 25.398438 15.910156 25.414062 C 15.917969 25.414062 15.929688 25.417969 15.9375 25.417969 C 15.984375 25.417969 16.023438 25.386719 16.039062 25.339844 C 16.164062 24.894531 16.574219 24.582031 17.035156 24.582031 C 17.082031 24.582031 17.128906 24.589844 17.175781 24.59375 C 17.183594 24.597656 17.1875 24.597656 17.191406 24.597656 C 17.242188 24.597656 17.285156 24.558594 17.292969 24.507812 C 17.300781 24.449219 17.261719 24.398438 17.203125 24.390625 C 17.148438 24.382812 17.09375 24.375 17.035156 24.375 Z M 17.035156 24.375 "/>
</g>
</svg>
