<?xml version="1.0" encoding="UTF-8"?>
<svg xmlns="http://www.w3.org/2000/svg" xmlns:xlink="http://www.w3.org/1999/xlink" width="47.5pt" height="47.499999pt" viewBox="0 0 37.5 37.499999" version="1.2">
<defs>
<clipPath id="clip1">
  <path d="M 1 2.25 L 37.007812 2.25 L 37.007812 35 L 1 35 Z M 1 2.25 "/>
</clipPath>
</defs>
<g id="surface1">
<g clip-path="url(#clip1)" clip-rule="nonzero">
<path style=" stroke:none;fill-rule:nonzero;fill:rgb(78.039551%,92.939758%,90.19928%);fill-opacity:1;" d="M 35.953125 21.578125 C 36.085938 21.304688 36.203125 21.015625 36.308594 20.714844 C 37.476562 17.261719 35.707031 13.121094 31.980469 12.125 C 31.578125 7.0625 28.019531 3.589844 24.003906 3 C 19.40625 2.320312 15.195312 5.242188 13.792969 9.882812 C 12.105469 9.285156 10.457031 9.359375 8.90625 10.265625 C 8.203125 10.589844 7.558594 11.070312 6.980469 11.703125 C 6.132812 12.628906 5.582031 13.800781 5.359375 15.035156 C 5.027344 15.085938 4.699219 15.140625 4.390625 15.25 C 2.59375 15.894531 1.460938 17.21875 1.152344 19.214844 C 0.957031 20.460938 1.347656 21.699219 1.566406 22.203125 C 2.425781 24.183594 4.421875 25.304688 6.449219 25.007812 C 6.546875 24.992188 6.695312 25.039062 6.78125 25.109375 C 6.890625 28.277344 8.425781 31.078125 10.730469 32.675781 C 14.429688 35.242188 19.191406 34.449219 22.195312 30.933594 C 23.480469 32.25 25.011719 32.886719 26.8125 32.65625 C 28.597656 32.425781 29.988281 31.4375 31 29.832031 C 31.46875 29.957031 31.914062 30.140625 32.371094 30.191406 C 34.167969 30.386719 35.628906 29.671875 36.699219 28.058594 C 37.109375 27.4375 37.496094 26.636719 37.496094 25.230469 C 37.496094 23.785156 36.921875 22.464844 35.953125 21.578125 Z M 35.953125 21.578125 "/>
</g>
<path style=" stroke:none;fill-rule:nonzero;fill:rgb(99.21875%,98.81897%,93.728638%);fill-opacity:1;" d="M 27.921875 25.765625 C 27.921875 25.765625 33.121094 25.765625 33.152344 25.765625 C 34.351562 25.765625 35.324219 24.792969 35.324219 23.59375 C 35.324219 22.546875 34.585938 21.671875 33.597656 21.464844 C 33.609375 21.375 33.617188 21.28125 33.617188 21.1875 C 33.617188 19.941406 32.609375 18.933594 31.367188 18.933594 C 30.632812 18.933594 29.984375 19.289062 29.574219 19.832031 C 29.46875 18.449219 28.230469 17.378906 26.785156 17.558594 C 25.726562 17.6875 24.851562 18.503906 24.65625 19.550781 C 24.59375 19.886719 24.601562 20.214844 24.664062 20.519531 C 24.378906 20.214844 23.976562 20.019531 23.527344 20.019531 C 22.703125 20.019531 22.035156 20.660156 21.980469 21.472656 C 21.605469 21.390625 21.199219 21.394531 20.773438 21.554688 C 19.953125 21.863281 19.371094 22.632812 19.335938 23.503906 C 19.289062 24.746094 20.28125 25.765625 21.507812 25.765625 C 21.601562 25.765625 21.929688 25.765625 22.007812 25.765625 L 26.519531 25.765625 "/>
<path style=" stroke:none;fill-rule:nonzero;fill:rgb(27.839661%,16.859436%,16.079712%);fill-opacity:1;" d="M 33.152344 25.988281 L 27.921875 25.988281 C 27.800781 25.988281 27.699219 25.890625 27.699219 25.765625 C 27.699219 25.640625 27.800781 25.542969 27.921875 25.542969 L 33.152344 25.542969 C 34.226562 25.542969 35.101562 24.667969 35.101562 23.59375 C 35.101562 22.671875 34.449219 21.871094 33.550781 21.683594 C 33.4375 21.660156 33.363281 21.554688 33.375 21.4375 C 33.386719 21.355469 33.394531 21.273438 33.394531 21.1875 C 33.394531 20.066406 32.484375 19.160156 31.367188 19.160156 C 30.726562 19.160156 30.136719 19.453125 29.75 19.964844 C 29.695312 20.039062 29.597656 20.070312 29.507812 20.046875 C 29.417969 20.019531 29.355469 19.941406 29.347656 19.847656 C 29.300781 19.238281 29.003906 18.664062 28.527344 18.273438 C 28.046875 17.878906 27.4375 17.703125 26.8125 17.777344 C 25.847656 17.898438 25.054688 18.644531 24.875 19.59375 C 24.820312 19.890625 24.824219 20.1875 24.882812 20.476562 C 24.902344 20.574219 24.855469 20.671875 24.765625 20.71875 C 24.679688 20.765625 24.566406 20.746094 24.5 20.671875 C 24.246094 20.398438 23.898438 20.246094 23.527344 20.246094 C 22.828125 20.246094 22.246094 20.792969 22.203125 21.488281 C 22.199219 21.550781 22.164062 21.613281 22.113281 21.652344 C 22.0625 21.691406 21.992188 21.703125 21.933594 21.691406 C 21.554688 21.605469 21.203125 21.632812 20.851562 21.765625 C 20.109375 22.042969 19.589844 22.746094 19.558594 23.515625 C 19.539062 24.050781 19.730469 24.558594 20.101562 24.945312 C 20.472656 25.332031 20.972656 25.542969 21.507812 25.542969 L 26.519531 25.542969 C 26.640625 25.542969 26.742188 25.644531 26.742188 25.765625 C 26.742188 25.890625 26.640625 25.988281 26.519531 25.988281 L 21.507812 25.988281 C 20.851562 25.988281 20.238281 25.730469 19.78125 25.253906 C 19.324219 24.78125 19.089844 24.15625 19.113281 23.496094 C 19.152344 22.550781 19.785156 21.6875 20.695312 21.347656 C 21.050781 21.214844 21.417969 21.167969 21.789062 21.214844 C 21.957031 20.402344 22.679688 19.800781 23.527344 19.800781 C 23.832031 19.800781 24.128906 19.878906 24.390625 20.023438 C 24.390625 19.855469 24.40625 19.683594 24.4375 19.511719 C 24.652344 18.371094 25.605469 17.476562 26.757812 17.335938 C 27.503906 17.246094 28.234375 17.453125 28.808594 17.925781 C 29.257812 18.292969 29.574219 18.792969 29.714844 19.34375 C 30.167969 18.9375 30.746094 18.714844 31.367188 18.714844 C 32.730469 18.714844 33.839844 19.824219 33.839844 21.1875 C 33.839844 21.222656 33.839844 21.261719 33.839844 21.296875 C 34.839844 21.597656 35.546875 22.53125 35.546875 23.59375 C 35.546875 24.914062 34.472656 25.988281 33.152344 25.988281 Z M 33.152344 25.988281 "/>
<path style=" stroke:none;fill-rule:nonzero;fill:rgb(99.21875%,98.81897%,93.728638%);fill-opacity:1;" d="M 26.664062 20.976562 C 25.859375 20.925781 25.167969 21.480469 25.117188 22.21875 C 25.109375 22.308594 25.113281 22.398438 25.128906 22.488281 C 24.972656 22.3125 24.742188 22.195312 24.480469 22.175781 C 24 22.144531 23.582031 22.464844 23.519531 22.898438 C 23.433594 22.871094 23.34375 22.855469 23.246094 22.851562 C 22.542969 22.804688 21.9375 23.289062 21.894531 23.9375 "/>
<path style=" stroke:none;fill-rule:nonzero;fill:rgb(27.839661%,16.859436%,16.079712%);fill-opacity:1;" d="M 21.894531 24.046875 C 21.890625 24.046875 21.890625 24.046875 21.886719 24.046875 C 21.824219 24.042969 21.777344 23.988281 21.785156 23.925781 C 21.832031 23.222656 22.480469 22.683594 23.253906 22.738281 C 23.3125 22.742188 23.375 22.75 23.4375 22.761719 C 23.558594 22.332031 23.988281 22.03125 24.488281 22.066406 C 24.675781 22.078125 24.851562 22.136719 25.003906 22.234375 C 25.003906 22.226562 25.003906 22.21875 25.003906 22.210938 C 25.058594 21.414062 25.796875 20.804688 26.671875 20.867188 C 26.730469 20.871094 26.777344 20.921875 26.773438 20.984375 C 26.769531 21.046875 26.726562 21.097656 26.65625 21.089844 C 25.917969 21.050781 25.273438 21.550781 25.226562 22.226562 C 25.222656 22.304688 25.226562 22.390625 25.238281 22.472656 C 25.246094 22.519531 25.21875 22.566406 25.175781 22.589844 C 25.128906 22.609375 25.078125 22.597656 25.042969 22.5625 C 24.902344 22.398438 24.699219 22.300781 24.472656 22.289062 C 24.046875 22.265625 23.683594 22.535156 23.632812 22.910156 C 23.625 22.941406 23.609375 22.972656 23.582031 22.988281 C 23.554688 23.007812 23.523438 23.011719 23.492188 23.003906 C 23.40625 22.980469 23.320312 22.964844 23.238281 22.960938 C 22.59375 22.925781 22.046875 23.359375 22.003906 23.941406 C 22 24 21.953125 24.046875 21.894531 24.046875 Z M 21.894531 24.046875 "/>
<path style=" stroke:none;fill-rule:nonzero;fill:rgb(99.21875%,98.81897%,93.728638%);fill-opacity:1;" d="M 34.03125 21.71875 C 33.277344 21.363281 32.402344 21.617188 32.082031 22.28125 C 32.039062 22.367188 32.011719 22.453125 31.992188 22.539062 "/>
<path style=" stroke:none;fill-rule:nonzero;fill:rgb(27.839661%,16.859436%,16.079712%);fill-opacity:1;" d="M 31.992188 22.648438 C 31.984375 22.648438 31.972656 22.648438 31.964844 22.648438 C 31.90625 22.632812 31.867188 22.574219 31.882812 22.511719 C 31.90625 22.414062 31.9375 22.320312 31.980469 22.234375 C 32.328125 21.511719 33.269531 21.238281 34.078125 21.617188 C 34.136719 21.644531 34.160156 21.710938 34.132812 21.765625 C 34.105469 21.824219 34.039062 21.847656 33.984375 21.820312 C 33.285156 21.492188 32.476562 21.71875 32.179688 22.332031 C 32.144531 22.402344 32.117188 22.480469 32.097656 22.5625 C 32.089844 22.613281 32.042969 22.648438 31.992188 22.648438 Z M 31.992188 22.648438 "/>
<path style=" stroke:none;fill-rule:nonzero;fill:rgb(100%,100%,100%);fill-opacity:1;" d="M 4.683594 18.039062 L 0.222656 18.039062 C 0.101562 18.039062 0 17.941406 0 17.816406 C 0 17.691406 0.101562 17.59375 0.222656 17.59375 L 4.683594 17.59375 C 4.804688 17.59375 4.90625 17.691406 4.90625 17.816406 C 4.90625 17.941406 4.804688 18.039062 4.683594 18.039062 Z M 5.964844 18.039062 L 5.320312 18.039062 C 5.199219 18.039062 5.097656 17.941406 5.097656 17.816406 C 5.097656 17.691406 5.199219 17.59375 5.320312 17.59375 L 5.964844 17.59375 C 6.085938 17.59375 6.1875 17.691406 6.1875 17.816406 C 6.1875 17.941406 6.085938 18.039062 5.964844 18.039062 Z M 7.765625 18.039062 L 6.636719 18.039062 C 6.511719 18.039062 6.410156 17.941406 6.410156 17.816406 C 6.410156 17.691406 6.511719 17.59375 6.636719 17.59375 L 7.765625 17.59375 C 7.890625 17.59375 7.988281 17.691406 7.988281 17.816406 C 7.988281 17.941406 7.890625 18.039062 7.765625 18.039062 Z M 7.765625 18.867188 L 3.492188 18.867188 C 3.367188 18.867188 3.269531 18.769531 3.269531 18.644531 C 3.269531 18.523438 3.367188 18.421875 3.492188 18.421875 L 7.765625 18.421875 C 7.890625 18.421875 7.988281 18.523438 7.988281 18.644531 C 7.988281 18.769531 7.890625 18.867188 7.765625 18.867188 Z M 2.722656 18.867188 L 2.464844 18.867188 C 2.339844 18.867188 2.238281 18.769531 2.238281 18.644531 C 2.238281 18.523438 2.339844 18.421875 2.464844 18.421875 L 2.722656 18.421875 C 2.84375 18.421875 2.945312 18.523438 2.945312 18.644531 C 2.945312 18.769531 2.84375 18.867188 2.722656 18.867188 Z M 1.664062 18.867188 L 1.015625 18.867188 C 0.894531 18.867188 0.792969 18.769531 0.792969 18.644531 C 0.792969 18.523438 0.894531 18.421875 1.015625 18.421875 L 1.664062 18.421875 C 1.789062 18.421875 1.886719 18.523438 1.886719 18.644531 C 1.886719 18.769531 1.789062 18.867188 1.664062 18.867188 Z M 5.726562 17.210938 L 3.492188 17.210938 C 3.367188 17.210938 3.269531 17.109375 3.269531 16.988281 C 3.269531 16.863281 3.367188 16.765625 3.492188 16.765625 L 5.726562 16.765625 C 5.847656 16.765625 5.949219 16.863281 5.949219 16.988281 C 5.949219 17.109375 5.851562 17.210938 5.726562 17.210938 Z M 5.726562 16.382812 L 5.167969 16.382812 C 5.042969 16.382812 4.945312 16.28125 4.945312 16.160156 C 4.945312 16.035156 5.042969 15.933594 5.167969 15.933594 L 5.726562 15.933594 C 5.847656 15.933594 5.949219 16.035156 5.949219 16.160156 C 5.949219 16.28125 5.851562 16.382812 5.726562 16.382812 Z M 4.273438 19.699219 L 3.492188 19.699219 C 3.367188 19.699219 3.269531 19.597656 3.269531 19.476562 C 3.269531 19.351562 3.367188 19.25 3.492188 19.25 L 4.273438 19.25 C 4.394531 19.25 4.496094 19.351562 4.496094 19.476562 C 4.496094 19.597656 4.394531 19.699219 4.273438 19.699219 Z M 28.324219 6.355469 L 23.867188 6.355469 C 23.742188 6.355469 23.644531 6.257812 23.644531 6.132812 C 23.644531 6.011719 23.742188 5.910156 23.867188 5.910156 L 28.324219 5.910156 C 28.449219 5.910156 28.546875 6.011719 28.546875 6.132812 C 28.546875 6.257812 28.449219 6.355469 28.324219 6.355469 Z M 29.605469 6.355469 L 28.964844 6.355469 C 28.839844 6.355469 28.742188 6.257812 28.742188 6.132812 C 28.742188 6.011719 28.839844 5.910156 28.964844 5.910156 L 29.605469 5.910156 C 29.730469 5.910156 29.828125 6.011719 29.828125 6.132812 C 29.828125 6.257812 29.730469 6.355469 29.605469 6.355469 Z M 31.410156 6.355469 L 30.277344 6.355469 C 30.152344 6.355469 30.054688 6.257812 30.054688 6.132812 C 30.054688 6.011719 30.152344 5.910156 30.277344 5.910156 L 31.410156 5.910156 C 31.53125 5.910156 31.632812 6.011719 31.632812 6.132812 C 31.632812 6.257812 31.53125 6.355469 31.410156 6.355469 Z M 30.507812 4.699219 L 26.234375 4.699219 C 26.109375 4.699219 26.011719 4.597656 26.011719 4.476562 C 26.011719 4.351562 26.109375 4.253906 26.234375 4.253906 L 30.507812 4.253906 C 30.632812 4.253906 30.730469 4.351562 30.730469 4.476562 C 30.730469 4.597656 30.632812 4.699219 30.507812 4.699219 Z M 25.464844 4.699219 L 25.207031 4.699219 C 25.082031 4.699219 24.980469 4.597656 24.980469 4.476562 C 24.980469 4.351562 25.082031 4.253906 25.207031 4.253906 L 25.464844 4.253906 C 25.585938 4.253906 25.6875 4.351562 25.6875 4.476562 C 25.6875 4.597656 25.585938 4.699219 25.464844 4.699219 Z M 24.40625 4.699219 L 23.757812 4.699219 C 23.636719 4.699219 23.535156 4.597656 23.535156 4.476562 C 23.535156 4.351562 23.636719 4.253906 23.757812 4.253906 L 24.40625 4.253906 C 24.53125 4.253906 24.628906 4.351562 24.628906 4.476562 C 24.628906 4.597656 24.53125 4.699219 24.40625 4.699219 Z M 29.367188 5.527344 L 27.132812 5.527344 C 27.011719 5.527344 26.910156 5.425781 26.910156 5.304688 C 26.910156 5.179688 27.011719 5.082031 27.132812 5.082031 L 29.367188 5.082031 C 29.492188 5.082031 29.59375 5.179688 29.59375 5.304688 C 29.59375 5.425781 29.492188 5.527344 29.367188 5.527344 Z M 29.367188 5.527344 "/>
<path style=" stroke:none;fill-rule:nonzero;fill:rgb(100%,100%,100%);fill-opacity:1;" d="M 29.367188 4.699219 L 28.808594 4.699219 C 28.6875 4.699219 28.585938 4.597656 28.585938 4.476562 C 28.585938 4.351562 28.6875 4.253906 28.808594 4.253906 L 29.367188 4.253906 C 29.492188 4.253906 29.59375 4.351562 29.59375 4.476562 C 29.59375 4.597656 29.492188 4.699219 29.367188 4.699219 Z M 26.488281 5.527344 L 25.703125 5.527344 C 25.582031 5.527344 25.480469 5.425781 25.480469 5.304688 C 25.480469 5.179688 25.582031 5.082031 25.703125 5.082031 L 26.488281 5.082031 C 26.609375 5.082031 26.710938 5.179688 26.710938 5.304688 C 26.710938 5.425781 26.609375 5.527344 26.488281 5.527344 Z M 26.488281 5.527344 "/>
<path style=" stroke:none;fill-rule:nonzero;fill:rgb(75.289917%,89.7995%,89.408875%);fill-opacity:1;" d="M 25.828125 25.765625 L 10.917969 25.765625 C 9.769531 25.765625 8.832031 24.828125 8.832031 23.683594 L 8.832031 14.863281 C 8.832031 13.714844 9.769531 12.777344 10.917969 12.777344 L 25.828125 12.777344 C 26.972656 12.777344 27.910156 13.714844 27.910156 14.863281 L 27.910156 23.683594 C 27.910156 24.828125 26.972656 25.765625 25.828125 25.765625 Z M 25.828125 25.765625 "/>
<path style=" stroke:none;fill-rule:nonzero;fill:rgb(27.839661%,16.859436%,16.079712%);fill-opacity:1;" d="M 25.828125 26.078125 L 10.917969 26.078125 C 9.597656 26.078125 8.519531 25.003906 8.519531 23.683594 L 8.519531 14.863281 C 8.519531 13.539062 9.597656 12.464844 10.917969 12.464844 L 25.828125 12.464844 C 27.148438 12.464844 28.222656 13.539062 28.222656 14.863281 L 28.222656 23.683594 C 28.222656 25.003906 27.148438 26.078125 25.828125 26.078125 Z M 10.917969 13.089844 C 9.941406 13.089844 9.144531 13.886719 9.144531 14.863281 L 9.144531 23.683594 C 9.144531 24.660156 9.941406 25.453125 10.917969 25.453125 L 25.828125 25.453125 C 26.804688 25.453125 27.597656 24.660156 27.597656 23.683594 L 27.597656 14.863281 C 27.597656 13.886719 26.804688 13.089844 25.828125 13.089844 Z M 10.917969 13.089844 "/>
<path style=" stroke:none;fill-rule:nonzero;fill:rgb(65.879822%,85.879517%,85.879517%);fill-opacity:1;" d="M 9.785156 24.957031 C 10.164062 25.363281 10.425781 25.441406 11 25.441406 L 25.847656 25.441406 C 26.425781 25.441406 26.597656 25.449219 26.972656 25.042969 L 18.378906 17.21875 Z M 9.785156 24.957031 "/>
<path style=" stroke:none;fill-rule:nonzero;fill:rgb(87.838745%,98.81897%,97.24884%);fill-opacity:1;" d="M 26.972656 13.515625 C 26.597656 13.160156 26.335938 13.089844 25.757812 13.089844 L 10.910156 13.089844 C 10.335938 13.089844 10.164062 13.085938 9.785156 13.441406 L 18.585938 20.347656 Z M 26.972656 13.515625 "/>
<path style=" stroke:none;fill-rule:nonzero;fill:rgb(27.839661%,16.859436%,16.079712%);fill-opacity:1;" d="M 18.621094 20.71875 C 18.585938 20.71875 18.550781 20.707031 18.519531 20.683594 L 9.3125 13.515625 C 9.238281 13.457031 9.226562 13.351562 9.28125 13.28125 C 9.339844 13.207031 9.445312 13.195312 9.515625 13.25 L 18.621094 20.335938 L 27.222656 13.253906 C 27.292969 13.195312 27.402344 13.207031 27.460938 13.277344 C 27.519531 13.347656 27.507812 13.453125 27.4375 13.511719 L 18.730469 20.679688 C 18.699219 20.707031 18.660156 20.71875 18.621094 20.71875 Z M 9.664062 25.375 C 9.617188 25.375 9.574219 25.355469 9.539062 25.320312 C 9.476562 25.25 9.484375 25.144531 9.550781 25.082031 L 15.257812 19.984375 C 15.328125 19.921875 15.433594 19.929688 15.496094 19.996094 C 15.558594 20.066406 15.550781 20.171875 15.484375 20.234375 L 9.777344 25.332031 C 9.746094 25.363281 9.703125 25.375 9.664062 25.375 Z M 27.078125 25.375 C 27.039062 25.375 27 25.363281 26.96875 25.332031 L 21.261719 20.234375 C 21.191406 20.171875 21.1875 20.066406 21.25 20 C 21.308594 19.929688 21.417969 19.921875 21.484375 19.984375 L 27.191406 25.082031 C 27.261719 25.144531 27.265625 25.25 27.203125 25.320312 C 27.171875 25.355469 27.125 25.375 27.078125 25.375 Z M 27.078125 25.375 "/>
<path style=" stroke:none;fill-rule:nonzero;fill:rgb(88.238525%,87.838745%,84.709167%);fill-opacity:1;" d="M 22.054688 10.695312 C 22.050781 12.007812 22.859375 13.246094 24.25 14.0625 C 24.25 14.769531 24.042969 15.554688 23.785156 16.050781 C 23.695312 16.226562 23.839844 16.433594 24.035156 16.414062 C 25.316406 16.273438 26.53125 15.636719 27.179688 15.003906 L 27.910156 15.003906 C 31.144531 15.003906 33.769531 13.078125 33.769531 10.695312 C 33.769531 8.316406 31.144531 6.386719 27.910156 6.386719 C 24.675781 6.386719 22.054688 8.316406 22.054688 10.695312 "/>
<path style=" stroke:none;fill-rule:nonzero;fill:rgb(27.839661%,16.859436%,16.079712%);fill-opacity:1;" d="M 24.007812 16.636719 C 23.851562 16.636719 23.707031 16.5625 23.617188 16.429688 C 23.519531 16.289062 23.507812 16.101562 23.589844 15.949219 C 23.792969 15.550781 24 14.863281 24.023438 14.1875 C 22.625 13.324219 21.828125 12.058594 21.832031 10.695312 C 21.832031 8.199219 24.558594 6.164062 27.910156 6.164062 C 31.265625 6.164062 33.992188 8.199219 33.992188 10.695312 C 33.992188 13.195312 31.265625 15.230469 27.910156 15.230469 L 27.269531 15.230469 C 26.613281 15.832031 25.394531 16.488281 24.058594 16.632812 C 24.042969 16.636719 24.027344 16.636719 24.007812 16.636719 Z M 27.910156 6.613281 C 24.804688 6.613281 22.277344 8.445312 22.277344 10.695312 C 22.277344 11.933594 23.035156 13.089844 24.363281 13.871094 C 24.429688 13.910156 24.472656 13.984375 24.472656 14.0625 C 24.472656 14.757812 24.28125 15.578125 23.984375 16.152344 L 24.035156 16.414062 L 24.011719 16.191406 C 25.285156 16.050781 26.441406 15.414062 27.023438 14.84375 C 27.0625 14.804688 27.121094 14.78125 27.179688 14.78125 L 27.910156 14.78125 C 31.019531 14.78125 33.546875 12.949219 33.546875 10.695312 C 33.546875 8.445312 31.019531 6.613281 27.910156 6.613281 Z M 22.054688 10.695312 L 22.058594 10.695312 Z M 22.054688 10.695312 "/>
<path style=" stroke:none;fill-rule:nonzero;fill:rgb(27.839661%,16.859436%,16.079712%);fill-opacity:1;" d="M 30.625 9.113281 L 29.011719 9.113281 C 28.953125 9.113281 28.902344 9.0625 28.902344 9 C 28.902344 8.941406 28.953125 8.890625 29.011719 8.890625 L 30.625 8.890625 C 30.6875 8.890625 30.738281 8.941406 30.738281 9 C 30.738281 9.0625 30.6875 9.113281 30.625 9.113281 Z M 28.296875 9.113281 L 24.890625 9.113281 C 24.828125 9.113281 24.777344 9.0625 24.777344 9 C 24.777344 8.941406 24.828125 8.890625 24.890625 8.890625 L 28.296875 8.890625 C 28.359375 8.890625 28.40625 8.941406 28.40625 9 C 28.40625 9.0625 28.359375 9.113281 28.296875 9.113281 Z M 31.34375 10.1875 L 26.863281 10.1875 C 26.800781 10.1875 26.75 10.136719 26.75 10.078125 C 26.75 10.015625 26.800781 9.964844 26.863281 9.964844 L 31.34375 9.964844 C 31.402344 9.964844 31.453125 10.015625 31.453125 10.078125 C 31.453125 10.136719 31.402344 10.1875 31.34375 10.1875 Z M 26.144531 10.1875 L 23.996094 10.1875 C 23.933594 10.1875 23.882812 10.136719 23.882812 10.078125 C 23.882812 10.015625 23.933594 9.964844 23.996094 9.964844 L 26.144531 9.964844 C 26.207031 9.964844 26.257812 10.015625 26.257812 10.078125 C 26.257812 10.136719 26.207031 10.1875 26.144531 10.1875 Z M 29.550781 11.265625 L 23.996094 11.265625 C 23.933594 11.265625 23.882812 11.214844 23.882812 11.152344 C 23.882812 11.089844 23.933594 11.039062 23.996094 11.039062 L 29.550781 11.039062 C 29.613281 11.039062 29.660156 11.089844 29.660156 11.152344 C 29.660156 11.214844 29.613281 11.265625 29.550781 11.265625 Z M 28.089844 12.519531 L 24.890625 12.519531 C 24.828125 12.519531 24.777344 12.46875 24.777344 12.40625 C 24.777344 12.34375 24.828125 12.296875 24.890625 12.296875 L 28.089844 12.296875 C 28.152344 12.296875 28.203125 12.34375 28.203125 12.40625 C 28.203125 12.46875 28.152344 12.519531 28.089844 12.519531 Z M 28.089844 12.519531 "/>
<path style=" stroke:none;fill-rule:nonzero;fill:rgb(94.509888%,73.728943%,9.799194%);fill-opacity:1;" d="M 31.144531 11.484375 C 30.851562 11.484375 30.566406 11.542969 30.289062 11.65625 C 30.015625 11.769531 29.773438 11.929688 29.566406 12.140625 C 29.355469 12.347656 29.195312 12.589844 29.082031 12.863281 C 28.96875 13.136719 28.910156 13.421875 28.910156 13.71875 C 28.910156 14.015625 28.96875 14.300781 29.082031 14.574219 C 29.195312 14.847656 29.355469 15.089844 29.566406 15.300781 C 29.773438 15.511719 30.015625 15.671875 30.289062 15.785156 C 30.566406 15.898438 30.851562 15.953125 31.144531 15.953125 C 31.441406 15.953125 31.726562 15.898438 32.003906 15.785156 C 32.277344 15.671875 32.519531 15.511719 32.726562 15.300781 C 32.9375 15.089844 33.097656 14.847656 33.210938 14.574219 C 33.324219 14.300781 33.382812 14.015625 33.382812 13.71875 C 33.382812 13.421875 33.324219 13.136719 33.210938 12.863281 C 33.097656 12.589844 32.9375 12.347656 32.726562 12.140625 C 32.519531 11.929688 32.277344 11.769531 32.003906 11.65625 C 31.726562 11.542969 31.441406 11.484375 31.144531 11.484375 Z M 31.144531 11.484375 "/>
<path style=" stroke:none;fill-rule:nonzero;fill:rgb(27.839661%,16.859436%,16.079712%);fill-opacity:1;" d="M 31.148438 16.179688 C 29.792969 16.179688 28.6875 15.074219 28.6875 13.71875 C 28.6875 12.363281 29.792969 11.261719 31.148438 11.261719 C 32.5 11.261719 33.605469 12.363281 33.605469 13.71875 C 33.605469 15.074219 32.5 16.179688 31.148438 16.179688 Z M 31.148438 11.707031 C 30.039062 11.707031 29.136719 12.609375 29.136719 13.71875 C 29.136719 14.828125 30.039062 15.730469 31.148438 15.730469 C 32.257812 15.730469 33.15625 14.828125 33.15625 13.71875 C 33.15625 12.609375 32.253906 11.707031 31.148438 11.707031 Z M 31.148438 11.707031 "/>
<path style=" stroke:none;fill-rule:nonzero;fill:rgb(27.839661%,16.859436%,16.079712%);fill-opacity:1;" d="M 31.71875 13.179688 L 31.632812 13.882812 C 31.628906 13.910156 31.628906 13.933594 31.625 13.957031 C 31.625 13.980469 31.625 14.003906 31.625 14.023438 C 31.625 14.089844 31.652344 14.125 31.707031 14.125 C 31.785156 14.125 31.855469 14.070312 31.917969 13.960938 C 31.980469 13.851562 32.011719 13.726562 32.011719 13.589844 C 32.011719 13.371094 31.9375 13.191406 31.78125 13.050781 C 31.628906 12.90625 31.433594 12.835938 31.195312 12.835938 C 30.949219 12.835938 30.738281 12.921875 30.566406 13.089844 C 30.398438 13.261719 30.316406 13.46875 30.316406 13.71875 C 30.316406 13.855469 30.34375 13.992188 30.40625 14.125 C 30.46875 14.246094 30.554688 14.351562 30.664062 14.429688 C 30.8125 14.539062 31 14.589844 31.222656 14.589844 C 31.433594 14.589844 31.652344 14.539062 31.878906 14.433594 L 31.898438 14.421875 L 31.96875 14.613281 L 31.953125 14.621094 C 31.71875 14.734375 31.476562 14.792969 31.222656 14.792969 C 30.945312 14.792969 30.710938 14.722656 30.519531 14.589844 C 30.382812 14.492188 30.273438 14.363281 30.195312 14.210938 C 30.121094 14.050781 30.082031 13.886719 30.082031 13.722656 C 30.082031 13.417969 30.1875 13.164062 30.402344 12.957031 C 30.617188 12.753906 30.878906 12.648438 31.191406 12.648438 C 31.480469 12.648438 31.722656 12.738281 31.917969 12.914062 C 32.113281 13.089844 32.210938 13.308594 32.210938 13.574219 C 32.210938 13.777344 32.15625 13.953125 32.050781 14.097656 C 31.945312 14.246094 31.820312 14.320312 31.675781 14.320312 C 31.5625 14.320312 31.484375 14.265625 31.445312 14.15625 C 31.332031 14.269531 31.210938 14.328125 31.078125 14.328125 C 30.929688 14.328125 30.804688 14.273438 30.707031 14.167969 C 30.609375 14.0625 30.5625 13.925781 30.5625 13.761719 C 30.5625 13.585938 30.617188 13.441406 30.726562 13.328125 C 30.832031 13.214844 30.96875 13.15625 31.132812 13.15625 C 31.28125 13.15625 31.402344 13.214844 31.496094 13.328125 L 31.515625 13.179688 Z M 31.445312 13.695312 C 31.445312 13.613281 31.417969 13.542969 31.359375 13.488281 C 31.300781 13.433594 31.230469 13.40625 31.148438 13.40625 C 31.058594 13.40625 30.984375 13.441406 30.925781 13.511719 C 30.867188 13.578125 30.839844 13.667969 30.839844 13.773438 C 30.839844 13.867188 30.863281 13.945312 30.910156 14.003906 C 30.957031 14.0625 31.015625 14.09375 31.089844 14.09375 C 31.183594 14.09375 31.265625 14.054688 31.335938 13.972656 C 31.410156 13.894531 31.445312 13.800781 31.445312 13.695312 Z M 31.445312 13.695312 "/>
<path style=" stroke:none;fill-rule:nonzero;fill:rgb(99.21875%,98.81897%,93.728638%);fill-opacity:1;" d="M 12.714844 27.082031 C 13.550781 27.082031 14.277344 27.082031 14.289062 27.082031 C 15.226562 27.082031 15.988281 26.339844 15.988281 25.417969 C 15.988281 24.617188 15.410156 23.949219 14.636719 23.792969 C 14.648438 23.722656 14.652344 23.652344 14.652344 23.578125 C 14.652344 22.628906 13.867188 21.855469 12.894531 21.855469 C 12.320312 21.855469 11.8125 22.128906 11.492188 22.542969 C 11.410156 21.484375 10.441406 20.667969 9.3125 20.804688 C 8.484375 20.902344 7.800781 21.527344 7.652344 22.328125 C 7.601562 22.585938 7.605469 22.835938 7.65625 23.070312 C 7.433594 22.835938 7.117188 22.6875 6.765625 22.6875 C 6.125 22.6875 5.597656 23.179688 5.558594 23.796875 C 5.265625 23.734375 4.949219 23.738281 4.613281 23.859375 C 3.972656 24.097656 3.519531 24.683594 3.492188 25.351562 C 3.453125 26.300781 4.230469 27.082031 5.1875 27.082031 C 5.261719 27.082031 5.519531 27.082031 5.578125 27.082031 L 9.105469 27.082031 M 9.835938 27.082031 L 9.996094 27.082031 "/>
<path style=" stroke:none;fill-rule:nonzero;fill:rgb(27.839661%,16.859436%,16.079712%);fill-opacity:1;" d="M 14.289062 27.304688 L 12.714844 27.304688 C 12.59375 27.304688 12.492188 27.207031 12.492188 27.082031 C 12.492188 26.957031 12.59375 26.859375 12.714844 26.859375 L 14.289062 26.859375 C 15.101562 26.859375 15.765625 26.214844 15.765625 25.417969 C 15.765625 24.742188 15.273438 24.148438 14.59375 24.011719 C 14.480469 23.988281 14.402344 23.878906 14.417969 23.765625 C 14.425781 23.703125 14.429688 23.640625 14.429688 23.578125 C 14.429688 22.753906 13.742188 22.082031 12.894531 22.082031 C 12.410156 22.082031 11.960938 22.296875 11.667969 22.679688 C 11.613281 22.753906 11.515625 22.78125 11.425781 22.757812 C 11.339844 22.730469 11.277344 22.652344 11.269531 22.5625 C 11.234375 22.109375 11.019531 21.695312 10.660156 21.402344 C 10.292969 21.101562 9.824219 20.96875 9.339844 21.023438 C 8.609375 21.113281 8.003906 21.667969 7.871094 22.371094 C 7.828125 22.589844 7.832031 22.808594 7.875 23.023438 C 7.894531 23.121094 7.847656 23.222656 7.757812 23.265625 C 7.671875 23.3125 7.5625 23.296875 7.492188 23.222656 C 7.304688 23.023438 7.046875 22.910156 6.769531 22.910156 C 6.25 22.910156 5.816406 23.308594 5.78125 23.8125 C 5.777344 23.878906 5.746094 23.9375 5.691406 23.976562 C 5.640625 24.015625 5.574219 24.03125 5.511719 24.015625 C 5.226562 23.957031 4.960938 23.972656 4.691406 24.070312 C 4.128906 24.277344 3.738281 24.796875 3.714844 25.363281 C 3.699219 25.75 3.84375 26.121094 4.113281 26.40625 C 4.394531 26.699219 4.777344 26.859375 5.191406 26.859375 L 9.105469 26.859375 C 9.230469 26.859375 9.328125 26.960938 9.328125 27.082031 C 9.328125 27.207031 9.230469 27.304688 9.105469 27.304688 L 5.191406 27.304688 C 4.664062 27.304688 4.152344 27.089844 3.792969 26.714844 C 3.433594 26.34375 3.25 25.855469 3.269531 25.34375 C 3.300781 24.601562 3.808594 23.921875 4.539062 23.652344 C 4.808594 23.554688 5.089844 23.519531 5.375 23.542969 C 5.527344 22.921875 6.097656 22.464844 6.769531 22.464844 C 6.988281 22.464844 7.203125 22.515625 7.394531 22.609375 C 7.398438 22.503906 7.410156 22.394531 7.433594 22.289062 C 7.601562 21.394531 8.363281 20.691406 9.285156 20.582031 C 9.894531 20.511719 10.480469 20.679688 10.945312 21.058594 C 11.277344 21.332031 11.511719 21.683594 11.632812 22.082031 C 11.984375 21.792969 12.425781 21.636719 12.894531 21.636719 C 13.988281 21.636719 14.875 22.507812 14.875 23.578125 C 14.875 23.59375 14.875 23.609375 14.875 23.625 C 15.660156 23.871094 16.210938 24.597656 16.210938 25.421875 C 16.210938 26.460938 15.347656 27.304688 14.289062 27.304688 Z M 9.996094 27.304688 L 9.835938 27.304688 C 9.710938 27.304688 9.613281 27.207031 9.613281 27.082031 C 9.613281 26.957031 9.710938 26.859375 9.835938 26.859375 L 9.996094 26.859375 C 10.117188 26.859375 10.21875 26.957031 10.21875 27.082031 C 10.21875 27.207031 10.117188 27.304688 9.996094 27.304688 Z M 9.996094 27.304688 "/>
<path style=" stroke:none;fill-rule:nonzero;fill:rgb(27.839661%,16.859436%,16.079712%);fill-opacity:1;" d="M 13.53125 24.722656 C 13.523438 24.722656 13.515625 24.722656 13.503906 24.722656 C 13.445312 24.707031 13.40625 24.648438 13.421875 24.589844 C 13.4375 24.515625 13.464844 24.441406 13.496094 24.375 C 13.765625 23.832031 14.507812 23.628906 15.152344 23.925781 C 15.207031 23.953125 15.234375 24.019531 15.207031 24.074219 C 15.179688 24.132812 15.113281 24.15625 15.058594 24.128906 C 14.523438 23.882812 13.914062 24.035156 13.695312 24.472656 C 13.671875 24.527344 13.652344 24.582031 13.640625 24.636719 C 13.628906 24.6875 13.582031 24.722656 13.53125 24.722656 Z M 11.238281 27.304688 L 10.746094 27.304688 C 10.621094 27.304688 10.519531 27.207031 10.519531 27.082031 C 10.519531 26.957031 10.621094 26.859375 10.746094 26.859375 L 11.238281 26.859375 C 11.359375 26.859375 11.460938 26.957031 11.460938 27.082031 C 11.460938 27.207031 11.359375 27.304688 11.238281 27.304688 Z M 11.238281 27.304688 "/>
</g>
</svg>
