<?xml version="1.0" encoding="UTF-8"?>
<svg xmlns="http://www.w3.org/2000/svg" xmlns:xlink="http://www.w3.org/1999/xlink" width="47.5pt" height="47.499999pt" viewBox="0 0 37.5 37.499999" version="1.2">
<defs>
<clipPath id="clip1">
  <path d="M 1 3.070312 L 37.007812 3.070312 L 37.007812 34.570312 L 1 34.570312 Z M 1 3.070312 "/>
</clipPath>
<clipPath id="clip2">
  <path d="M 22 16 L 37.007812 16 L 37.007812 24 L 22 24 Z M 22 16 "/>
</clipPath>
<clipPath id="clip3">
  <path d="M 22 15 L 37.007812 15 L 37.007812 24 L 22 24 Z M 22 15 "/>
</clipPath>
</defs>
<g id="surface1">
<g clip-path="url(#clip1)" clip-rule="nonzero">
<path style=" stroke:none;fill-rule:nonzero;fill:rgb(78.039551%,92.939758%,90.19928%);fill-opacity:1;" d="M 35.828125 21.839844 C 36.324219 20.894531 36.605469 19.816406 36.605469 18.671875 C 36.605469 15.761719 34.796875 13.285156 32.25 12.308594 C 32.25 12.304688 32.25 12.300781 32.25 12.300781 C 32.25 7.203125 28.15625 3.070312 23.105469 3.070312 C 18.84375 3.070312 15.273438 6.015625 14.257812 9.996094 C 13.617188 9.78125 12.929688 9.664062 12.214844 9.664062 C 8.867188 9.664062 6.109375 12.207031 5.730469 15.484375 C 3.464844 15.96875 1.765625 18 1.765625 20.429688 C 1.765625 23.21875 4.007812 25.484375 6.773438 25.484375 C 6.847656 25.484375 6.925781 25.476562 7 25.472656 C 7 25.550781 6.992188 25.625 6.992188 25.703125 C 6.992188 30.679688 10.988281 34.710938 15.917969 34.710938 C 18.722656 34.710938 21.222656 33.40625 22.859375 31.367188 C 23.808594 32.34375 25.125 32.953125 26.589844 32.953125 C 28.613281 32.953125 30.367188 31.789062 31.234375 30.089844 C 31.695312 30.238281 32.179688 30.316406 32.6875 30.316406 C 35.332031 30.316406 37.476562 28.152344 37.476562 25.484375 C 37.476562 24.027344 36.839844 22.726562 35.828125 21.839844 Z M 35.828125 21.839844 "/>
</g>
<g clip-path="url(#clip2)" clip-rule="nonzero">
<path style=" stroke:none;fill-rule:nonzero;fill:rgb(99.21875%,98.81897%,93.728638%);fill-opacity:1;" d="M 31.597656 23.503906 L 31.597656 23.726562 L 32.90625 23.726562 L 32.90625 23.503906 C 32.90625 23.503906 34.753906 23.503906 35.300781 23.503906 C 36.382812 23.503906 37.261719 22.621094 37.261719 21.527344 C 37.261719 20.503906 36.484375 19.667969 35.496094 19.570312 C 35.503906 19.492188 35.519531 19.414062 35.519531 19.332031 C 35.519531 18.238281 34.640625 17.351562 33.558594 17.351562 C 32.933594 17.351562 32.382812 17.652344 32.023438 18.117188 C 31.960938 16.957031 31.019531 16.035156 29.855469 16.035156 C 28.652344 16.035156 27.679688 17.019531 27.679688 18.230469 C 27.679688 18.429688 27.710938 18.613281 27.761719 18.796875 C 27.480469 18.453125 27.0625 18.230469 26.589844 18.230469 C 25.8125 18.230469 25.179688 18.820312 25.085938 19.574219 C 25.007812 19.566406 24.929688 19.550781 24.847656 19.550781 C 23.765625 19.550781 22.886719 20.4375 22.886719 21.527344 C 22.886719 22.621094 23.765625 23.503906 24.847656 23.503906 C 25.929688 23.503906 28.984375 23.503906 28.984375 23.503906 Z M 31.597656 23.503906 "/>
</g>
<g clip-path="url(#clip3)" clip-rule="nonzero">
<path style=" stroke:none;fill-rule:nonzero;fill:rgb(27.839661%,16.859436%,16.079712%);fill-opacity:1;" d="M 29.855469 15.816406 C 28.535156 15.816406 27.460938 16.898438 27.460938 18.230469 C 27.460938 18.238281 27.460938 18.246094 27.460938 18.253906 C 27.199219 18.097656 26.898438 18.011719 26.589844 18.011719 C 25.792969 18.011719 25.105469 18.566406 24.910156 19.332031 C 24.890625 19.332031 24.867188 19.332031 24.847656 19.332031 C 23.648438 19.332031 22.667969 20.316406 22.667969 21.527344 C 22.667969 22.738281 23.648438 23.726562 24.847656 23.726562 L 31.597656 23.726562 C 31.71875 23.726562 31.816406 23.625 31.816406 23.503906 C 31.816406 23.382812 31.71875 23.285156 31.597656 23.285156 L 24.847656 23.285156 C 23.886719 23.285156 23.105469 22.496094 23.105469 21.527344 C 23.105469 20.558594 23.886719 19.769531 24.847656 19.769531 C 24.898438 19.769531 24.949219 19.777344 24.996094 19.785156 L 25.058594 19.792969 C 25.066406 19.792969 25.078125 19.792969 25.085938 19.792969 C 25.191406 19.792969 25.285156 19.710938 25.300781 19.601562 C 25.382812 18.945312 25.9375 18.453125 26.589844 18.453125 C 26.976562 18.453125 27.339844 18.628906 27.59375 18.933594 C 27.632812 18.988281 27.695312 19.015625 27.761719 19.015625 C 27.792969 19.015625 27.828125 19.007812 27.859375 18.992188 C 27.949219 18.941406 27.996094 18.839844 27.96875 18.738281 C 27.921875 18.546875 27.894531 18.386719 27.894531 18.230469 C 27.894531 17.140625 28.777344 16.253906 29.855469 16.253906 C 30.894531 16.253906 31.75 17.078125 31.804688 18.128906 C 31.808594 18.21875 31.871094 18.296875 31.957031 18.324219 C 31.980469 18.332031 32 18.335938 32.023438 18.335938 C 32.089844 18.335938 32.152344 18.304688 32.195312 18.25 C 32.53125 17.820312 33.027344 17.574219 33.558594 17.574219 C 34.519531 17.574219 35.300781 18.359375 35.300781 19.332031 C 35.300781 19.382812 35.292969 19.429688 35.285156 19.480469 L 35.277344 19.542969 C 35.273438 19.601562 35.289062 19.660156 35.324219 19.707031 C 35.359375 19.753906 35.414062 19.78125 35.472656 19.789062 C 36.367188 19.878906 37.042969 20.625 37.042969 21.527344 C 37.042969 22.496094 36.261719 23.285156 35.300781 23.285156 L 32.90625 23.285156 C 32.785156 23.285156 32.6875 23.382812 32.6875 23.503906 C 32.6875 23.625 32.785156 23.726562 32.90625 23.726562 L 35.300781 23.726562 C 36.5 23.726562 37.476562 22.738281 37.476562 21.527344 C 37.476562 20.472656 36.742188 19.589844 35.734375 19.382812 C 35.734375 19.367188 35.734375 19.347656 35.734375 19.332031 C 35.734375 18.117188 34.757812 17.132812 33.558594 17.132812 C 33.046875 17.132812 32.558594 17.316406 32.171875 17.644531 C 31.910156 16.589844 30.96875 15.816406 29.855469 15.816406 Z M 29.855469 15.816406 "/>
</g>
<path style=" stroke:none;fill-rule:nonzero;fill:rgb(27.839661%,16.859436%,16.079712%);fill-opacity:1;" d="M 29.203125 18.890625 C 28.59375 18.890625 28.066406 19.328125 27.933594 19.917969 C 27.773438 19.820312 27.59375 19.769531 27.40625 19.769531 C 26.882812 19.769531 26.449219 20.164062 26.382812 20.679688 C 26.292969 20.660156 26.210938 20.648438 26.128906 20.648438 C 25.460938 20.648438 24.902344 21.175781 24.855469 21.847656 C 24.851562 21.910156 24.898438 21.960938 24.957031 21.96875 C 24.960938 21.96875 24.960938 21.96875 24.964844 21.96875 C 25.019531 21.96875 25.070312 21.921875 25.074219 21.863281 C 25.113281 21.308594 25.574219 20.867188 26.125 20.867188 C 26.226562 20.867188 26.332031 20.886719 26.449219 20.925781 C 26.457031 20.925781 26.46875 20.929688 26.476562 20.929688 C 26.5 20.929688 26.523438 20.921875 26.546875 20.90625 C 26.574219 20.886719 26.589844 20.847656 26.589844 20.8125 C 26.589844 20.359375 26.957031 19.988281 27.40625 19.988281 C 27.601562 19.988281 27.792969 20.0625 27.941406 20.199219 C 27.964844 20.214844 27.988281 20.226562 28.015625 20.226562 C 28.027344 20.226562 28.042969 20.222656 28.054688 20.214844 C 28.09375 20.203125 28.121094 20.164062 28.121094 20.125 C 28.167969 19.554688 28.640625 19.109375 29.203125 19.109375 C 29.292969 19.109375 29.386719 19.125 29.5 19.15625 C 29.511719 19.160156 29.519531 19.160156 29.53125 19.160156 C 29.578125 19.160156 29.621094 19.128906 29.632812 19.082031 C 29.652344 19.023438 29.617188 18.964844 29.558594 18.945312 C 29.429688 18.910156 29.316406 18.890625 29.203125 18.890625 Z M 35.25 19.550781 C 34.671875 19.550781 34.15625 19.945312 34 20.507812 C 33.980469 20.566406 34.015625 20.628906 34.074219 20.644531 C 34.082031 20.648438 34.09375 20.648438 34.101562 20.648438 C 34.152344 20.648438 34.195312 20.617188 34.207031 20.570312 C 34.339844 20.097656 34.769531 19.769531 35.25 19.769531 C 35.300781 19.769531 35.351562 19.777344 35.398438 19.78125 C 35.402344 19.785156 35.410156 19.785156 35.414062 19.785156 C 35.464844 19.785156 35.515625 19.742188 35.519531 19.6875 C 35.53125 19.628906 35.488281 19.574219 35.429688 19.566406 C 35.371094 19.558594 35.308594 19.550781 35.25 19.550781 Z M 35.25 19.550781 "/>
<path style=" stroke:none;fill-rule:nonzero;fill:rgb(100%,100%,100%);fill-opacity:1;" d="M 4.59375 19.332031 L 0.238281 19.332031 C 0.117188 19.332031 0.0234375 19.230469 0.0234375 19.109375 C 0.0234375 18.988281 0.117188 18.890625 0.238281 18.890625 L 4.59375 18.890625 C 4.714844 18.890625 4.8125 18.988281 4.8125 19.109375 C 4.8125 19.230469 4.714844 19.332031 4.59375 19.332031 Z M 5.902344 19.332031 L 5.464844 19.332031 C 5.34375 19.332031 5.25 19.230469 5.25 19.109375 C 5.25 18.988281 5.34375 18.890625 5.464844 18.890625 L 5.902344 18.890625 C 6.023438 18.890625 6.121094 18.988281 6.121094 19.109375 C 6.121094 19.230469 6.023438 19.332031 5.902344 19.332031 Z M 8.074219 20.210938 L 4.160156 20.210938 C 4.039062 20.210938 3.941406 20.109375 3.941406 19.988281 C 3.941406 19.867188 4.039062 19.769531 4.160156 19.769531 L 8.074219 19.769531 C 8.195312 19.769531 8.292969 19.867188 8.292969 19.988281 C 8.292969 20.109375 8.195312 20.210938 8.074219 20.210938 Z M 3.289062 20.210938 L 2.851562 20.210938 C 2.730469 20.210938 2.636719 20.109375 2.636719 19.988281 C 2.636719 19.867188 2.730469 19.769531 2.851562 19.769531 L 3.289062 19.769531 C 3.410156 19.769531 3.507812 19.867188 3.507812 19.988281 C 3.507812 20.109375 3.410156 20.210938 3.289062 20.210938 Z M 1.980469 20.210938 L 1.109375 20.210938 C 0.988281 20.210938 0.894531 20.109375 0.894531 19.988281 C 0.894531 19.867188 0.988281 19.769531 1.109375 19.769531 L 1.980469 19.769531 C 2.101562 19.769531 2.199219 19.867188 2.199219 19.988281 C 2.199219 20.109375 2.101562 20.210938 1.980469 20.210938 Z M 4.59375 21.089844 L 3.722656 21.089844 C 3.601562 21.089844 3.507812 20.988281 3.507812 20.867188 C 3.507812 20.746094 3.601562 20.648438 3.722656 20.648438 L 4.59375 20.648438 C 4.714844 20.648438 4.8125 20.746094 4.8125 20.867188 C 4.8125 20.988281 4.714844 21.089844 4.59375 21.089844 Z M 5.902344 17.132812 C 5.824219 17.132812 5.542969 17.132812 5.464844 17.132812 C 5.34375 17.132812 5.25 17.230469 5.25 17.351562 C 5.25 17.472656 5.34375 17.574219 5.464844 17.574219 C 5.542969 17.574219 5.824219 17.574219 5.902344 17.574219 C 6.023438 17.574219 6.121094 17.472656 6.121094 17.351562 C 6.121094 17.230469 6.023438 17.132812 5.902344 17.132812 Z M 5.902344 18.011719 C 5.824219 18.011719 3.800781 18.011719 3.722656 18.011719 C 3.601562 18.011719 3.507812 18.109375 3.507812 18.230469 C 3.507812 18.351562 3.601562 18.453125 3.722656 18.453125 C 3.800781 18.453125 5.824219 18.453125 5.902344 18.453125 C 6.023438 18.453125 6.121094 18.351562 6.121094 18.230469 C 6.121094 18.109375 6.023438 18.011719 5.902344 18.011719 Z M 8.078125 18.890625 C 8.003906 18.890625 6.847656 18.890625 6.773438 18.890625 C 6.652344 18.890625 6.554688 18.988281 6.554688 19.109375 C 6.554688 19.230469 6.652344 19.332031 6.773438 19.332031 C 6.847656 19.332031 8.003906 19.332031 8.078125 19.332031 C 8.199219 19.332031 8.296875 19.230469 8.296875 19.109375 C 8.296875 18.988281 8.199219 18.890625 8.078125 18.890625 Z M 8.078125 18.890625 "/>
<path style=" stroke:none;fill-rule:nonzero;fill:rgb(100%,100%,100%);fill-opacity:1;" d="M 29.421875 7.464844 L 25.066406 7.464844 C 24.945312 7.464844 24.847656 7.367188 24.847656 7.246094 C 24.847656 7.125 24.945312 7.027344 25.066406 7.027344 L 29.421875 7.027344 C 29.542969 7.027344 29.636719 7.125 29.636719 7.246094 C 29.636719 7.367188 29.542969 7.464844 29.421875 7.464844 Z M 31.164062 7.464844 L 30.292969 7.464844 C 30.171875 7.464844 30.074219 7.367188 30.074219 7.246094 C 30.074219 7.125 30.171875 7.027344 30.292969 7.027344 L 31.164062 7.027344 C 31.285156 7.027344 31.378906 7.125 31.378906 7.246094 C 31.378906 7.367188 31.285156 7.464844 31.164062 7.464844 Z M 33.339844 8.34375 L 28.984375 8.34375 C 28.863281 8.34375 28.765625 8.246094 28.765625 8.125 C 28.765625 8.003906 28.863281 7.90625 28.984375 7.90625 L 33.339844 7.90625 C 33.460938 7.90625 33.558594 8.003906 33.558594 8.125 C 33.558594 8.246094 33.460938 8.34375 33.339844 8.34375 Z M 28.113281 8.34375 L 27.679688 8.34375 C 27.558594 8.34375 27.460938 8.246094 27.460938 8.125 C 27.460938 8.003906 27.558594 7.90625 27.679688 7.90625 L 28.113281 7.90625 C 28.234375 7.90625 28.332031 8.003906 28.332031 8.125 C 28.332031 8.246094 28.234375 8.34375 28.113281 8.34375 Z M 26.792969 8.34375 L 25.9375 8.34375 C 25.816406 8.34375 25.71875 8.246094 25.71875 8.125 C 25.71875 8.003906 25.816406 7.90625 25.9375 7.90625 L 26.792969 7.90625 C 26.914062 7.90625 27.011719 8.003906 27.011719 8.125 C 27.011719 8.246094 26.914062 8.34375 26.792969 8.34375 Z M 30.726562 6.585938 L 28.550781 6.585938 C 28.429688 6.585938 28.332031 6.488281 28.332031 6.367188 C 28.332031 6.246094 28.429688 6.148438 28.550781 6.148438 L 30.726562 6.148438 C 30.847656 6.148438 30.945312 6.246094 30.945312 6.367188 C 30.945312 6.488281 30.847656 6.585938 30.726562 6.585938 Z M 29.421875 9.222656 L 28.550781 9.222656 C 28.429688 9.222656 28.332031 9.125 28.332031 9.003906 C 28.332031 8.882812 28.429688 8.785156 28.550781 8.785156 L 29.421875 8.785156 C 29.542969 8.785156 29.636719 8.882812 29.636719 9.003906 C 29.636719 9.125 29.542969 9.222656 29.421875 9.222656 Z M 29.421875 9.222656 "/>
<path style=" stroke:none;fill-rule:nonzero;fill:rgb(63.919067%,63.919067%,80.389404%);fill-opacity:1;" d="M 20.492188 8.671875 C 19.828125 8.671875 19.167969 8.738281 18.515625 8.871094 C 17.863281 9 17.230469 9.195312 16.617188 9.453125 C 16.003906 9.707031 15.417969 10.023438 14.867188 10.394531 C 14.3125 10.769531 13.800781 11.191406 13.332031 11.667969 C 12.863281 12.140625 12.441406 12.65625 12.074219 13.214844 C 11.703125 13.773438 11.390625 14.359375 11.136719 14.980469 C 10.882812 15.601562 10.691406 16.238281 10.558594 16.898438 C 10.429688 17.554688 10.367188 18.21875 10.367188 18.890625 C 10.367188 19.5625 10.429688 20.226562 10.558594 20.882812 C 10.691406 21.542969 10.882812 22.179688 11.136719 22.800781 C 11.390625 23.421875 11.703125 24.007812 12.074219 24.566406 C 12.441406 25.125 12.863281 25.640625 13.332031 26.117188 C 13.800781 26.589844 14.3125 27.015625 14.867188 27.386719 C 15.417969 27.757812 16.003906 28.074219 16.617188 28.332031 C 17.230469 28.585938 17.863281 28.78125 18.515625 28.910156 C 19.167969 29.042969 19.828125 29.109375 20.492188 29.109375 C 21.15625 29.109375 21.816406 29.042969 22.46875 28.910156 C 23.121094 28.78125 23.753906 28.585938 24.367188 28.332031 C 24.980469 28.074219 25.566406 27.757812 26.117188 27.386719 C 26.671875 27.015625 27.183594 26.589844 27.652344 26.117188 C 28.121094 25.640625 28.542969 25.125 28.910156 24.566406 C 29.28125 24.007812 29.59375 23.421875 29.847656 22.800781 C 30.101562 22.179688 30.292969 21.542969 30.425781 20.882812 C 30.554688 20.226562 30.617188 19.5625 30.617188 18.890625 C 30.617188 18.21875 30.554688 17.554688 30.425781 16.898438 C 30.292969 16.238281 30.101562 15.601562 29.847656 14.980469 C 29.59375 14.359375 29.28125 13.773438 28.910156 13.214844 C 28.542969 12.65625 28.121094 12.140625 27.652344 11.667969 C 27.183594 11.191406 26.671875 10.769531 26.117188 10.394531 C 25.566406 10.023438 24.980469 9.707031 24.367188 9.453125 C 23.753906 9.195312 23.121094 9 22.46875 8.871094 C 21.816406 8.738281 21.15625 8.671875 20.492188 8.671875 Z M 20.492188 8.671875 "/>
<path style=" stroke:none;fill-rule:nonzero;fill:rgb(27.839661%,16.859436%,16.079712%);fill-opacity:1;" d="M 20.492188 29.417969 C 14.742188 29.417969 10.0625 24.695312 10.0625 18.890625 C 10.0625 13.085938 14.742188 8.367188 20.492188 8.367188 C 26.242188 8.367188 30.921875 13.085938 30.921875 18.890625 C 30.921875 24.695312 26.242188 29.417969 20.492188 29.417969 Z M 20.492188 8.980469 C 15.078125 8.980469 10.671875 13.425781 10.671875 18.890625 C 10.671875 24.355469 15.078125 28.800781 20.492188 28.800781 C 25.90625 28.800781 30.3125 24.355469 30.3125 18.890625 C 30.3125 13.425781 25.90625 8.980469 20.492188 8.980469 Z M 20.492188 8.980469 "/>
<path style=" stroke:none;fill-rule:nonzero;fill:rgb(33.729553%,37.249756%,63.139343%);fill-opacity:1;" d="M 20.492188 10.320312 C 19.933594 10.320312 19.382812 10.375 18.835938 10.484375 C 18.289062 10.597656 17.757812 10.757812 17.242188 10.972656 C 16.726562 11.1875 16.238281 11.453125 15.773438 11.765625 C 15.308594 12.078125 14.882812 12.433594 14.488281 12.832031 C 14.09375 13.230469 13.738281 13.664062 13.429688 14.128906 C 13.121094 14.597656 12.859375 15.089844 12.644531 15.613281 C 12.433594 16.132812 12.269531 16.667969 12.164062 17.21875 C 12.054688 17.769531 12 18.328125 12 18.890625 C 12 19.453125 12.054688 20.011719 12.164062 20.5625 C 12.269531 21.113281 12.433594 21.652344 12.644531 22.171875 C 12.859375 22.691406 13.121094 23.183594 13.429688 23.652344 C 13.738281 24.121094 14.09375 24.550781 14.488281 24.949219 C 14.882812 25.347656 15.308594 25.703125 15.773438 26.015625 C 16.238281 26.328125 16.726562 26.59375 17.242188 26.808594 C 17.757812 27.023438 18.289062 27.1875 18.835938 27.296875 C 19.382812 27.40625 19.933594 27.460938 20.492188 27.460938 C 21.050781 27.460938 21.601562 27.40625 22.148438 27.296875 C 22.695312 27.1875 23.226562 27.023438 23.742188 26.808594 C 24.257812 26.59375 24.746094 26.328125 25.210938 26.015625 C 25.675781 25.703125 26.101562 25.347656 26.496094 24.949219 C 26.890625 24.550781 27.246094 24.121094 27.554688 23.652344 C 27.863281 23.183594 28.125 22.691406 28.339844 22.171875 C 28.550781 21.652344 28.714844 21.113281 28.820312 20.5625 C 28.929688 20.011719 28.984375 19.453125 28.984375 18.890625 C 28.984375 18.328125 28.929688 17.769531 28.820312 17.21875 C 28.714844 16.667969 28.550781 16.132812 28.339844 15.613281 C 28.125 15.089844 27.863281 14.597656 27.554688 14.128906 C 27.246094 13.664062 26.890625 13.230469 26.496094 12.832031 C 26.101562 12.433594 25.675781 12.078125 25.210938 11.765625 C 24.746094 11.453125 24.257812 11.1875 23.742188 10.972656 C 23.226562 10.757812 22.695312 10.597656 22.148438 10.484375 C 21.601562 10.375 21.050781 10.320312 20.492188 10.320312 Z M 20.492188 10.320312 "/>
<path style=" stroke:none;fill-rule:nonzero;fill:rgb(27.839661%,16.859436%,16.079712%);fill-opacity:1;" d="M 28.601562 16.6875 C 28.511719 16.6875 28.425781 16.628906 28.394531 16.53125 C 28.359375 16.410156 28.320312 16.292969 28.277344 16.175781 C 28.113281 15.714844 27.90625 15.265625 27.664062 14.839844 C 27.601562 14.734375 27.640625 14.601562 27.742188 14.539062 C 27.847656 14.476562 27.980469 14.515625 28.039062 14.621094 C 28.296875 15.066406 28.515625 15.539062 28.6875 16.023438 C 28.730469 16.148438 28.773438 16.277344 28.8125 16.402344 C 28.847656 16.519531 28.78125 16.640625 28.667969 16.679688 C 28.644531 16.683594 28.625 16.6875 28.601562 16.6875 Z M 28.601562 16.6875 "/>
<path style=" stroke:none;fill-rule:nonzero;fill:rgb(27.839661%,16.859436%,16.079712%);fill-opacity:1;" d="M 20.492188 27.695312 C 15.679688 27.695312 11.765625 23.757812 11.765625 18.917969 C 11.765625 14.078125 15.679688 10.136719 20.492188 10.136719 C 22.988281 10.136719 25.371094 11.21875 27.027344 13.101562 C 27.152344 13.242188 27.273438 13.390625 27.390625 13.539062 C 27.464844 13.636719 27.445312 13.773438 27.351562 13.847656 C 27.257812 13.925781 27.121094 13.90625 27.046875 13.808594 C 26.9375 13.667969 26.820312 13.527344 26.703125 13.390625 C 25.128906 11.605469 22.867188 10.578125 20.492188 10.578125 C 15.921875 10.578125 12.203125 14.320312 12.203125 18.917969 C 12.203125 23.515625 15.921875 27.257812 20.492188 27.257812 C 25.0625 27.257812 28.78125 23.515625 28.78125 18.917969 C 28.78125 18.496094 28.75 18.078125 28.691406 17.667969 C 28.671875 17.546875 28.753906 17.433594 28.871094 17.417969 C 28.992188 17.398438 29.101562 17.480469 29.121094 17.601562 C 29.1875 18.03125 29.21875 18.476562 29.21875 18.917969 C 29.21875 23.757812 25.304688 27.695312 20.492188 27.695312 Z M 20.492188 27.695312 "/>
<path style=" stroke:none;fill-rule:nonzero;fill:rgb(99.21875%,98.81897%,93.728638%);fill-opacity:1;" d="M 13.742188 29.21875 C 13.742188 29.21875 14.421875 29.21875 15.265625 29.21875 C 16.109375 29.21875 16.789062 28.53125 16.789062 27.679688 C 16.789062 26.898438 16.207031 26.257812 15.460938 26.160156 C 15.472656 26.082031 15.484375 26.003906 15.484375 25.921875 C 15.484375 25.074219 14.800781 24.382812 13.957031 24.382812 C 13.507812 24.382812 13.109375 24.585938 12.832031 24.894531 C 12.664062 24.101562 11.964844 23.503906 11.128906 23.503906 C 10.164062 23.503906 9.386719 24.292969 9.386719 25.261719 C 9.386719 25.347656 9.398438 25.425781 9.410156 25.507812 C 9.222656 25.355469 8.992188 25.261719 8.734375 25.261719 C 8.199219 25.261719 7.753906 25.652344 7.664062 26.167969 C 7.585938 26.152344 7.507812 26.140625 7.425781 26.140625 C 6.582031 26.140625 5.902344 26.832031 5.902344 27.679688 C 5.902344 28.53125 6.582031 29.21875 7.425781 29.21875 C 8.269531 29.21875 10.691406 29.21875 10.691406 29.21875 L 10.691406 29.4375 L 13.742188 29.4375 Z M 13.742188 29.21875 "/>
<path style=" stroke:none;fill-rule:nonzero;fill:rgb(27.839661%,16.859436%,16.079712%);fill-opacity:1;" d="M 14.503906 27.242188 C 14.441406 27.242188 14.394531 27.191406 14.394531 27.128906 C 14.394531 26.59375 14.828125 26.15625 15.359375 26.15625 C 15.375 26.160156 15.679688 26.15625 15.902344 26.214844 C 15.960938 26.230469 15.996094 26.292969 15.980469 26.351562 C 15.964844 26.410156 15.902344 26.445312 15.847656 26.425781 C 15.652344 26.375 15.367188 26.375 15.359375 26.375 C 14.949219 26.375 14.613281 26.714844 14.613281 27.128906 C 14.613281 27.191406 14.5625 27.242188 14.503906 27.242188 Z M 11.5625 29 C 11.417969 29 11.34375 29.070312 11.34375 29.21875 C 11.34375 29.363281 11.417969 29.4375 11.5625 29.4375 C 11.707031 29.4375 11.78125 29.363281 11.78125 29.21875 C 11.78125 29.070312 11.707031 29 11.5625 29 Z M 11.5625 29 "/>
<path style=" stroke:none;fill-rule:nonzero;fill:rgb(27.839661%,16.859436%,16.079712%);fill-opacity:1;" d="M 15.265625 29.4375 L 13.742188 29.4375 C 13.621094 29.4375 13.523438 29.339844 13.523438 29.21875 C 13.523438 29.097656 13.621094 29 13.742188 29 L 15.265625 29 C 15.984375 29 16.570312 28.40625 16.570312 27.679688 C 16.570312 27.023438 16.082031 26.464844 15.433594 26.378906 C 15.375 26.371094 15.320312 26.339844 15.285156 26.292969 C 15.25 26.246094 15.234375 26.1875 15.246094 26.128906 C 15.253906 26.058594 15.265625 25.992188 15.265625 25.921875 C 15.265625 25.195312 14.679688 24.605469 13.957031 24.605469 C 13.589844 24.605469 13.246094 24.761719 12.992188 25.042969 C 12.9375 25.105469 12.851562 25.128906 12.773438 25.109375 C 12.695312 25.085938 12.636719 25.023438 12.617188 24.941406 C 12.46875 24.238281 11.84375 23.726562 11.128906 23.726562 C 10.289062 23.726562 9.605469 24.414062 9.605469 25.261719 C 9.605469 25.324219 9.613281 25.386719 9.621094 25.445312 C 9.632812 25.535156 9.59375 25.640625 9.515625 25.683594 C 9.4375 25.730469 9.34375 25.734375 9.273438 25.679688 C 9.113281 25.550781 8.929688 25.484375 8.734375 25.484375 C 8.3125 25.484375 7.953125 25.785156 7.878906 26.207031 C 7.855469 26.324219 7.75 26.402344 7.628906 26.382812 C 7.5625 26.371094 7.496094 26.363281 7.425781 26.363281 C 6.707031 26.363281 6.121094 26.953125 6.121094 27.679688 C 6.121094 28.40625 6.707031 29 7.425781 29 L 10.691406 29 C 10.8125 29 10.910156 29.097656 10.910156 29.21875 C 10.910156 29.339844 10.8125 29.4375 10.691406 29.4375 L 7.425781 29.4375 C 6.464844 29.4375 5.683594 28.648438 5.683594 27.679688 C 5.683594 26.710938 6.464844 25.921875 7.425781 25.921875 C 7.453125 25.921875 7.476562 25.921875 7.5 25.925781 C 7.683594 25.402344 8.171875 25.042969 8.734375 25.042969 C 8.882812 25.042969 9.03125 25.070312 9.171875 25.121094 C 9.246094 24.097656 10.09375 23.285156 11.128906 23.285156 C 11.925781 23.285156 12.636719 23.78125 12.9375 24.503906 C 13.234375 24.285156 13.589844 24.164062 13.957031 24.164062 C 14.917969 24.164062 15.699219 24.953125 15.699219 25.921875 C 15.699219 25.945312 15.699219 25.964844 15.699219 25.984375 C 16.457031 26.179688 17.007812 26.875 17.007812 27.679688 C 17.007812 28.648438 16.226562 29.4375 15.265625 29.4375 Z M 15.265625 29.4375 "/>
<path style=" stroke:none;fill-rule:nonzero;fill:rgb(27.839661%,16.859436%,16.079712%);fill-opacity:1;" d="M 12.871094 29 C 12.800781 29 12.503906 29 12.433594 29 C 12.3125 29 12.214844 29.097656 12.214844 29.21875 C 12.214844 29.339844 12.3125 29.4375 12.433594 29.4375 C 12.503906 29.4375 12.800781 29.4375 12.871094 29.4375 C 12.992188 29.4375 13.085938 29.339844 13.085938 29.21875 C 13.085938 29.097656 12.992188 29 12.871094 29 Z M 12.871094 29 "/>
<path style=" stroke:none;fill-rule:nonzero;fill:rgb(99.609375%,99.21875%,93.728638%);fill-opacity:1;" d="M 25.519531 15.300781 C 25.640625 14.605469 25.570312 13.761719 25.289062 12.921875 C 23.886719 12.921875 22.808594 13.882812 22.621094 14.058594 L 18.609375 14.058594 C 18.425781 13.882812 17.34375 12.921875 15.941406 12.921875 C 15.691406 13.679688 15.605469 14.4375 15.683594 15.089844 C 14.894531 15.8125 14.394531 16.851562 14.394531 18.011719 C 14.394531 20.195312 16.148438 21.96875 18.3125 21.96875 L 19.113281 21.96875 C 18.484375 22.257812 18.027344 22.847656 17.914062 23.554688 C 17.207031 23.628906 16.355469 23.5625 15.941406 22.9375 C 15.171875 21.769531 14.785156 21.769531 14.398438 21.769531 C 14.015625 21.769531 14.015625 22.160156 14.398438 22.546875 C 14.785156 22.9375 14.785156 22.9375 15.171875 23.714844 C 15.488281 24.355469 16.308594 25.082031 17.878906 24.882812 L 17.878906 26.347656 C 17.878906 26.636719 17.886719 26.84375 17.988281 27.09375 C 18.933594 27.421875 20.730469 27.671875 22.960938 27.109375 C 23.050781 26.871094 23.105469 26.617188 23.105469 26.347656 L 23.105469 23.898438 C 23.105469 23.039062 22.597656 22.304688 21.871094 21.964844 L 22.667969 21.964844 C 24.835938 21.964844 26.589844 20.195312 26.589844 18.011719 C 26.589844 16.960938 26.179688 16.007812 25.519531 15.300781 Z M 25.519531 15.300781 "/>
<path style=" stroke:none;fill-rule:nonzero;fill:rgb(27.839661%,16.859436%,16.079712%);fill-opacity:1;" d="M 20.359375 27.664062 C 19.09375 27.664062 18.238281 27.414062 17.917969 27.300781 C 17.859375 27.28125 17.808594 27.238281 17.785156 27.179688 C 17.671875 26.894531 17.660156 26.65625 17.660156 26.347656 L 17.660156 25.128906 C 15.84375 25.257812 15.148438 24.164062 14.976562 23.8125 C 14.605469 23.066406 14.605469 23.066406 14.246094 22.703125 C 13.945312 22.402344 13.828125 22.074219 13.929688 21.828125 C 14 21.652344 14.171875 21.550781 14.398438 21.550781 C 14.917969 21.550781 15.347656 21.640625 16.121094 22.816406 C 16.453125 23.3125 17.148438 23.386719 17.730469 23.351562 C 17.839844 22.902344 18.074219 22.496094 18.402344 22.1875 L 18.3125 22.1875 C 16.03125 22.1875 14.175781 20.316406 14.175781 18.011719 C 14.175781 16.878906 14.640625 15.789062 15.453125 15.003906 C 15.394531 14.332031 15.492188 13.589844 15.734375 12.851562 C 15.765625 12.761719 15.847656 12.699219 15.941406 12.699219 C 17.304688 12.699219 18.371094 13.550781 18.695312 13.835938 L 22.539062 13.835938 C 22.859375 13.550781 23.925781 12.699219 25.289062 12.699219 C 25.382812 12.699219 25.464844 12.761719 25.496094 12.851562 C 25.765625 13.671875 25.855469 14.511719 25.75 15.230469 C 26.433594 16 26.808594 16.980469 26.808594 18.011719 C 26.808594 20.3125 24.953125 22.1875 22.667969 22.1875 L 22.582031 22.1875 C 23.046875 22.625 23.324219 23.242188 23.324219 23.898438 L 23.324219 26.347656 C 23.324219 26.628906 23.269531 26.910156 23.164062 27.1875 C 23.140625 27.253906 23.082031 27.304688 23.011719 27.320312 C 22.003906 27.574219 21.109375 27.664062 20.359375 27.664062 Z M 18.15625 26.917969 C 18.738281 27.105469 20.40625 27.5 22.796875 26.921875 C 22.855469 26.730469 22.886719 26.539062 22.886719 26.347656 L 22.886719 23.898438 C 22.886719 23.15625 22.453125 22.476562 21.78125 22.167969 C 21.6875 22.125 21.636719 22.023438 21.65625 21.921875 C 21.679688 21.820312 21.769531 21.746094 21.871094 21.746094 L 22.667969 21.746094 C 24.710938 21.746094 26.371094 20.070312 26.371094 18.011719 C 26.371094 17.058594 26.011719 16.148438 25.359375 15.453125 C 25.3125 15.402344 25.292969 15.332031 25.304688 15.261719 C 25.417969 14.632812 25.355469 13.886719 25.132812 13.144531 C 23.894531 13.210938 22.953125 14.042969 22.769531 14.21875 C 22.730469 14.253906 22.675781 14.277344 22.621094 14.277344 L 18.609375 14.277344 C 18.554688 14.277344 18.5 14.253906 18.460938 14.21875 C 18.277344 14.042969 17.335938 13.210938 16.097656 13.144531 C 15.898438 13.8125 15.828125 14.472656 15.898438 15.0625 C 15.90625 15.132812 15.878906 15.203125 15.828125 15.25 C 15.054688 15.957031 14.613281 16.964844 14.613281 18.011719 C 14.613281 20.070312 16.273438 21.746094 18.3125 21.746094 L 19.113281 21.746094 C 19.214844 21.746094 19.304688 21.820312 19.328125 21.921875 C 19.347656 22.019531 19.296875 22.125 19.203125 22.167969 C 18.632812 22.433594 18.230469 22.964844 18.128906 23.589844 C 18.113281 23.691406 18.03125 23.765625 17.933594 23.773438 C 16.890625 23.882812 16.140625 23.632812 15.761719 23.058594 C 15.054688 21.992188 14.734375 21.992188 14.398438 21.992188 C 14.34375 21.992188 14.324219 22.003906 14.324219 22.003906 C 14.316406 22.027344 14.351562 22.1875 14.554688 22.394531 C 14.964844 22.808594 14.980469 22.839844 15.367188 23.617188 C 15.515625 23.917969 16.136719 24.882812 17.851562 24.667969 C 17.914062 24.660156 17.976562 24.679688 18.023438 24.71875 C 18.070312 24.761719 18.097656 24.820312 18.097656 24.886719 L 18.097656 26.347656 C 18.097656 26.578125 18.101562 26.742188 18.15625 26.917969 Z M 18.15625 26.917969 "/>
<path style=" stroke:none;fill-rule:nonzero;fill:rgb(99.609375%,99.21875%,93.728638%);fill-opacity:1;" d="M 25.324219 19.289062 C 24.953125 20.117188 24.140625 20.808594 22.707031 20.921875 "/>
<path style=" stroke:none;fill-rule:nonzero;fill:rgb(27.839661%,16.859436%,16.079712%);fill-opacity:1;" d="M 22.707031 21.035156 C 22.648438 21.035156 22.601562 20.988281 22.597656 20.933594 C 22.59375 20.871094 22.636719 20.820312 22.699219 20.8125 C 24.261719 20.6875 24.9375 19.890625 25.226562 19.242188 C 25.25 19.1875 25.316406 19.164062 25.371094 19.1875 C 25.425781 19.214844 25.449219 19.277344 25.425781 19.332031 C 24.980469 20.324219 24.019531 20.929688 22.714844 21.03125 C 22.710938 21.035156 22.710938 21.035156 22.707031 21.035156 Z M 22.707031 21.035156 "/>
<path style=" stroke:none;fill-rule:nonzero;fill:rgb(99.609375%,99.21875%,93.728638%);fill-opacity:1;" d="M 25.542969 17.644531 C 25.585938 17.957031 25.585938 18.289062 25.527344 18.621094 "/>
<path style=" stroke:none;fill-rule:nonzero;fill:rgb(27.839661%,16.859436%,16.079712%);fill-opacity:1;" d="M 25.527344 18.730469 C 25.523438 18.730469 25.515625 18.730469 25.507812 18.726562 C 25.449219 18.71875 25.410156 18.660156 25.421875 18.601562 C 25.472656 18.296875 25.476562 17.972656 25.433594 17.660156 C 25.425781 17.601562 25.464844 17.542969 25.523438 17.535156 C 25.582031 17.527344 25.640625 17.570312 25.648438 17.628906 C 25.699219 17.964844 25.695312 18.304688 25.636719 18.636719 C 25.625 18.691406 25.582031 18.730469 25.527344 18.730469 Z M 25.527344 18.730469 "/>
<path style=" stroke:none;fill-rule:nonzero;fill:rgb(99.609375%,99.21875%,93.728638%);fill-opacity:1;" d="M 24.765625 16.175781 C 25.027344 16.363281 25.238281 16.664062 25.378906 17.03125 "/>
<path style=" stroke:none;fill-rule:nonzero;fill:rgb(27.839661%,16.859436%,16.079712%);fill-opacity:1;" d="M 25.378906 17.140625 C 25.335938 17.140625 25.296875 17.113281 25.277344 17.070312 C 25.140625 16.714844 24.945312 16.4375 24.703125 16.265625 C 24.65625 16.230469 24.644531 16.160156 24.679688 16.113281 C 24.714844 16.0625 24.78125 16.050781 24.832031 16.085938 C 25.105469 16.28125 25.328125 16.59375 25.480469 16.988281 C 25.503906 17.046875 25.476562 17.109375 25.421875 17.132812 C 25.40625 17.136719 25.394531 17.140625 25.378906 17.140625 Z M 25.378906 17.140625 "/>
</g>
</svg>
