<?xml version="1.0" encoding="UTF-8"?>
<svg xmlns="http://www.w3.org/2000/svg" xmlns:xlink="http://www.w3.org/1999/xlink" width="47.5pt" height="47.499999pt" viewBox="0 0 37.5 37.499999" version="1.2">
<defs>
<clipPath id="clip1">
  <path d="M 1 3.070312 L 37.007812 3.070312 L 37.007812 34.570312 L 1 34.570312 Z M 1 3.070312 "/>
</clipPath>
<clipPath id="clip2">
  <path d="M 22 13 L 37.007812 13 L 37.007812 22 L 22 22 Z M 22 13 "/>
</clipPath>
</defs>
<g id="surface1">
<g clip-path="url(#clip1)" clip-rule="nonzero">
<path style=" stroke:none;fill-rule:nonzero;fill:rgb(78.039551%,92.939758%,90.19928%);fill-opacity:1;" d="M 35.828125 21.839844 C 36.324219 20.894531 36.605469 19.816406 36.605469 18.671875 C 36.605469 15.761719 34.796875 13.285156 32.25 12.308594 C 32.25 12.304688 32.25 12.300781 32.25 12.300781 C 32.25 7.203125 28.15625 3.070312 23.105469 3.070312 C 18.84375 3.070312 15.273438 6.015625 14.257812 9.996094 C 13.617188 9.78125 12.929688 9.664062 12.214844 9.664062 C 8.867188 9.664062 6.109375 12.207031 5.730469 15.484375 C 3.464844 15.96875 1.765625 18 1.765625 20.429688 C 1.765625 23.21875 4.007812 25.484375 6.773438 25.484375 C 6.847656 25.484375 6.925781 25.476562 7 25.472656 C 7 25.550781 6.992188 25.625 6.992188 25.703125 C 6.992188 30.679688 10.988281 34.710938 15.917969 34.710938 C 18.722656 34.710938 21.222656 33.40625 22.859375 31.367188 C 23.808594 32.34375 25.125 32.953125 26.589844 32.953125 C 28.613281 32.953125 30.367188 31.789062 31.234375 30.089844 C 31.695312 30.238281 32.179688 30.316406 32.6875 30.316406 C 35.332031 30.316406 37.476562 28.152344 37.476562 25.484375 C 37.476562 24.027344 36.839844 22.726562 35.828125 21.839844 Z M 35.828125 21.839844 "/>
</g>
<g clip-path="url(#clip2)" clip-rule="nonzero">
<path style=" stroke:none;fill-rule:nonzero;fill:rgb(99.21875%,98.81897%,93.728638%);fill-opacity:1;" d="M 32.632812 21.308594 C 32.632812 21.308594 34.21875 21.308594 35.300781 21.308594 C 36.382812 21.308594 37.261719 20.421875 37.261719 19.332031 C 37.261719 18.304688 36.484375 17.472656 35.496094 17.371094 C 35.503906 17.292969 35.519531 17.214844 35.519531 17.132812 C 35.519531 16.042969 34.640625 15.15625 33.558594 15.15625 C 32.933594 15.15625 32.382812 15.457031 32.023438 15.917969 C 31.960938 14.761719 31.019531 13.835938 29.855469 13.835938 C 28.652344 13.835938 27.679688 14.820312 27.679688 16.035156 C 27.679688 16.230469 27.710938 16.417969 27.761719 16.597656 C 27.480469 16.257812 27.0625 16.035156 26.589844 16.035156 C 25.8125 16.035156 25.179688 16.621094 25.085938 17.378906 C 25.007812 17.367188 24.929688 17.351562 24.847656 17.351562 C 23.765625 17.351562 22.886719 18.238281 22.886719 19.332031 C 22.886719 20.421875 23.765625 21.308594 24.847656 21.308594 C 25.929688 21.308594 28.984375 21.308594 28.984375 21.308594 L 31.328125 21.308594 L 31.328125 21.527344 L 32.632812 21.527344 Z M 32.632812 21.308594 "/>
<path style=" stroke:none;fill-rule:nonzero;fill:rgb(27.839661%,16.859436%,16.079712%);fill-opacity:1;" d="M 29.855469 13.617188 C 28.535156 13.617188 27.460938 14.703125 27.460938 16.035156 C 27.460938 16.042969 27.460938 16.046875 27.460938 16.054688 C 27.199219 15.898438 26.898438 15.816406 26.589844 15.816406 C 25.792969 15.816406 25.105469 16.367188 24.910156 17.136719 C 24.890625 17.132812 24.867188 17.132812 24.847656 17.132812 C 23.648438 17.132812 22.667969 18.117188 22.667969 19.332031 C 22.667969 20.542969 23.648438 21.527344 24.847656 21.527344 L 31.328125 21.527344 C 31.445312 21.527344 31.542969 21.429688 31.542969 21.308594 C 31.542969 21.1875 31.445312 21.089844 31.328125 21.089844 L 24.847656 21.089844 C 23.886719 21.089844 23.105469 20.300781 23.105469 19.332031 C 23.105469 18.359375 23.886719 17.574219 24.847656 17.574219 C 24.898438 17.574219 24.949219 17.578125 24.996094 17.585938 L 25.058594 17.59375 C 25.066406 17.597656 25.078125 17.597656 25.085938 17.597656 C 25.191406 17.597656 25.285156 17.515625 25.300781 17.40625 C 25.382812 16.75 25.9375 16.253906 26.589844 16.253906 C 26.976562 16.253906 27.339844 16.429688 27.59375 16.738281 C 27.632812 16.789062 27.695312 16.816406 27.761719 16.816406 C 27.792969 16.816406 27.828125 16.808594 27.859375 16.792969 C 27.949219 16.746094 27.996094 16.640625 27.96875 16.542969 C 27.921875 16.351562 27.894531 16.1875 27.894531 16.035156 C 27.894531 14.945312 28.777344 14.058594 29.855469 14.058594 C 30.894531 14.058594 31.75 14.878906 31.804688 15.929688 C 31.808594 16.023438 31.871094 16.101562 31.957031 16.128906 C 31.980469 16.136719 32 16.136719 32.023438 16.136719 C 32.089844 16.136719 32.152344 16.109375 32.195312 16.054688 C 32.53125 15.621094 33.027344 15.375 33.558594 15.375 C 34.519531 15.375 35.300781 16.164062 35.300781 17.132812 C 35.300781 17.183594 35.292969 17.234375 35.285156 17.285156 L 35.277344 17.347656 C 35.273438 17.40625 35.289062 17.464844 35.324219 17.507812 C 35.359375 17.554688 35.414062 17.585938 35.472656 17.589844 C 36.367188 17.679688 37.042969 18.429688 37.042969 19.332031 C 37.042969 20.300781 36.261719 21.089844 35.300781 21.089844 L 32.632812 21.089844 C 32.511719 21.089844 32.414062 21.1875 32.414062 21.308594 C 32.414062 21.429688 32.511719 21.527344 32.632812 21.527344 L 35.300781 21.527344 C 36.5 21.527344 37.476562 20.542969 37.476562 19.332031 C 37.476562 18.277344 36.742188 17.390625 35.734375 17.1875 C 35.734375 17.167969 35.734375 17.152344 35.734375 17.132812 C 35.734375 15.921875 34.757812 14.9375 33.558594 14.9375 C 33.046875 14.9375 32.558594 15.117188 32.171875 15.449219 C 31.910156 14.390625 30.96875 13.617188 29.855469 13.617188 Z M 29.855469 13.617188 "/>
</g>
<path style=" stroke:none;fill-rule:nonzero;fill:rgb(27.839661%,16.859436%,16.079712%);fill-opacity:1;" d="M 29.203125 16.695312 C 28.59375 16.695312 28.066406 17.132812 27.933594 17.722656 C 27.773438 17.625 27.59375 17.574219 27.40625 17.574219 C 26.882812 17.574219 26.449219 17.964844 26.382812 18.480469 C 26.292969 18.460938 26.210938 18.453125 26.128906 18.453125 C 25.460938 18.453125 24.902344 18.980469 24.855469 19.652344 C 24.851562 19.710938 24.898438 19.765625 24.957031 19.769531 C 24.960938 19.769531 24.960938 19.769531 24.964844 19.769531 C 25.019531 19.769531 25.070312 19.726562 25.074219 19.667969 C 25.113281 19.109375 25.574219 18.671875 26.125 18.671875 C 26.226562 18.671875 26.332031 18.691406 26.449219 18.726562 C 26.457031 18.730469 26.46875 18.730469 26.476562 18.730469 C 26.5 18.730469 26.523438 18.722656 26.546875 18.707031 C 26.574219 18.6875 26.589844 18.652344 26.589844 18.617188 C 26.589844 18.160156 26.957031 17.792969 27.40625 17.792969 C 27.601562 17.792969 27.792969 17.867188 27.941406 18 C 27.964844 18.019531 27.988281 18.027344 28.015625 18.027344 C 28.027344 18.027344 28.042969 18.023438 28.054688 18.019531 C 28.09375 18.003906 28.121094 17.96875 28.121094 17.925781 C 28.167969 17.359375 28.640625 16.914062 29.203125 16.914062 C 29.292969 16.914062 29.386719 16.929688 29.5 16.960938 C 29.511719 16.964844 29.519531 16.964844 29.53125 16.964844 C 29.578125 16.964844 29.621094 16.933594 29.632812 16.886719 C 29.652344 16.828125 29.617188 16.765625 29.558594 16.75 C 29.429688 16.710938 29.316406 16.695312 29.203125 16.695312 Z M 35.25 17.351562 C 34.671875 17.351562 34.15625 17.746094 34 18.3125 C 33.980469 18.371094 34.015625 18.429688 34.074219 18.449219 C 34.082031 18.449219 34.09375 18.453125 34.101562 18.453125 C 34.152344 18.453125 34.195312 18.417969 34.207031 18.371094 C 34.339844 17.902344 34.769531 17.574219 35.25 17.574219 C 35.300781 17.574219 35.351562 17.578125 35.398438 17.585938 C 35.402344 17.585938 35.410156 17.585938 35.414062 17.585938 C 35.464844 17.585938 35.515625 17.546875 35.519531 17.492188 C 35.53125 17.429688 35.488281 17.375 35.429688 17.367188 C 35.371094 17.359375 35.308594 17.351562 35.25 17.351562 Z M 35.25 17.351562 "/>
<path style=" stroke:none;fill-rule:nonzero;fill:rgb(100%,100%,100%);fill-opacity:1;" d="M 4.554688 19.332031 L 0.238281 19.332031 C 0.117188 19.332031 0.0234375 19.230469 0.0234375 19.109375 C 0.0234375 18.988281 0.117188 18.890625 0.238281 18.890625 L 4.554688 18.890625 C 4.671875 18.890625 4.769531 18.988281 4.769531 19.109375 C 4.769531 19.230469 4.675781 19.332031 4.554688 19.332031 Z M 5.902344 19.332031 L 5.464844 19.332031 C 5.34375 19.332031 5.25 19.230469 5.25 19.109375 C 5.25 18.988281 5.34375 18.890625 5.464844 18.890625 L 5.902344 18.890625 C 6.023438 18.890625 6.121094 18.988281 6.121094 19.109375 C 6.121094 19.230469 6.023438 19.332031 5.902344 19.332031 Z M 8.074219 20.210938 L 4.160156 20.210938 C 4.039062 20.210938 3.941406 20.109375 3.941406 19.988281 C 3.941406 19.867188 4.039062 19.769531 4.160156 19.769531 L 8.074219 19.769531 C 8.195312 19.769531 8.292969 19.867188 8.292969 19.988281 C 8.292969 20.109375 8.195312 20.210938 8.074219 20.210938 Z M 3.289062 20.210938 L 2.851562 20.210938 C 2.730469 20.210938 2.636719 20.109375 2.636719 19.988281 C 2.636719 19.867188 2.730469 19.769531 2.851562 19.769531 L 3.289062 19.769531 C 3.410156 19.769531 3.507812 19.867188 3.507812 19.988281 C 3.507812 20.109375 3.410156 20.210938 3.289062 20.210938 Z M 1.980469 20.210938 L 1.109375 20.210938 C 0.988281 20.210938 0.894531 20.109375 0.894531 19.988281 C 0.894531 19.867188 0.988281 19.769531 1.109375 19.769531 L 1.980469 19.769531 C 2.101562 19.769531 2.199219 19.867188 2.199219 19.988281 C 2.199219 20.109375 2.101562 20.210938 1.980469 20.210938 Z M 4.59375 21.089844 L 3.722656 21.089844 C 3.601562 21.089844 3.507812 20.988281 3.507812 20.867188 C 3.507812 20.746094 3.601562 20.648438 3.722656 20.648438 L 4.59375 20.648438 C 4.714844 20.648438 4.8125 20.746094 4.8125 20.867188 C 4.8125 20.988281 4.714844 21.089844 4.59375 21.089844 Z M 5.902344 17.132812 C 5.824219 17.132812 5.542969 17.132812 5.464844 17.132812 C 5.34375 17.132812 5.25 17.230469 5.25 17.351562 C 5.25 17.472656 5.34375 17.574219 5.464844 17.574219 C 5.542969 17.574219 5.824219 17.574219 5.902344 17.574219 C 6.023438 17.574219 6.121094 17.472656 6.121094 17.351562 C 6.121094 17.230469 6.023438 17.132812 5.902344 17.132812 Z M 5.902344 18.011719 C 5.824219 18.011719 3.800781 18.011719 3.722656 18.011719 C 3.601562 18.011719 3.507812 18.109375 3.507812 18.230469 C 3.507812 18.351562 3.601562 18.453125 3.722656 18.453125 C 3.800781 18.453125 5.824219 18.453125 5.902344 18.453125 C 6.023438 18.453125 6.121094 18.351562 6.121094 18.230469 C 6.121094 18.109375 6.023438 18.011719 5.902344 18.011719 Z M 8.078125 18.890625 C 8.003906 18.890625 6.847656 18.890625 6.773438 18.890625 C 6.652344 18.890625 6.554688 18.988281 6.554688 19.109375 C 6.554688 19.230469 6.652344 19.332031 6.773438 19.332031 C 6.847656 19.332031 8.003906 19.332031 8.078125 19.332031 C 8.199219 19.332031 8.296875 19.230469 8.296875 19.109375 C 8.296875 18.988281 8.199219 18.890625 8.078125 18.890625 Z M 29.421875 7.464844 L 25.066406 7.464844 C 24.945312 7.464844 24.847656 7.367188 24.847656 7.246094 C 24.847656 7.125 24.945312 7.027344 25.066406 7.027344 L 29.421875 7.027344 C 29.542969 7.027344 29.636719 7.125 29.636719 7.246094 C 29.636719 7.367188 29.542969 7.464844 29.421875 7.464844 Z M 31.164062 7.464844 L 30.292969 7.464844 C 30.171875 7.464844 30.074219 7.367188 30.074219 7.246094 C 30.074219 7.125 30.171875 7.027344 30.292969 7.027344 L 31.164062 7.027344 C 31.285156 7.027344 31.378906 7.125 31.378906 7.246094 C 31.378906 7.367188 31.285156 7.464844 31.164062 7.464844 Z M 33.339844 8.34375 L 28.984375 8.34375 C 28.863281 8.34375 28.765625 8.246094 28.765625 8.125 C 28.765625 8.003906 28.863281 7.90625 28.984375 7.90625 L 33.339844 7.90625 C 33.460938 7.90625 33.558594 8.003906 33.558594 8.125 C 33.558594 8.246094 33.460938 8.34375 33.339844 8.34375 Z M 28.113281 8.34375 L 27.679688 8.34375 C 27.558594 8.34375 27.460938 8.246094 27.460938 8.125 C 27.460938 8.003906 27.558594 7.90625 27.679688 7.90625 L 28.113281 7.90625 C 28.234375 7.90625 28.332031 8.003906 28.332031 8.125 C 28.332031 8.246094 28.234375 8.34375 28.113281 8.34375 Z M 26.753906 8.34375 L 25.9375 8.34375 C 25.816406 8.34375 25.71875 8.246094 25.71875 8.125 C 25.71875 8.003906 25.816406 7.90625 25.9375 7.90625 L 26.753906 7.90625 C 26.875 7.90625 26.972656 8.003906 26.972656 8.125 C 26.972656 8.246094 26.875 8.34375 26.753906 8.34375 Z M 30.726562 6.585938 L 28.550781 6.585938 C 28.429688 6.585938 28.332031 6.488281 28.332031 6.367188 C 28.332031 6.246094 28.429688 6.148438 28.550781 6.148438 L 30.726562 6.148438 C 30.847656 6.148438 30.945312 6.246094 30.945312 6.367188 C 30.945312 6.488281 30.847656 6.585938 30.726562 6.585938 Z M 29.421875 9.222656 L 28.550781 9.222656 C 28.429688 9.222656 28.332031 9.125 28.332031 9.003906 C 28.332031 8.882812 28.429688 8.785156 28.550781 8.785156 L 29.421875 8.785156 C 29.542969 8.785156 29.636719 8.882812 29.636719 9.003906 C 29.636719 9.125 29.542969 9.222656 29.421875 9.222656 Z M 29.421875 9.222656 "/>
<path style=" stroke:none;fill-rule:nonzero;fill:rgb(99.609375%,83.529663%,70.199585%);fill-opacity:1;" d="M 10.472656 25.042969 L 10.472656 12.738281 C 10.472656 10.796875 12.035156 9.222656 13.957031 9.222656 L 26.152344 9.222656 C 28.078125 9.222656 29.636719 10.796875 29.636719 12.738281 L 29.636719 25.042969 C 29.636719 26.984375 28.078125 28.558594 26.152344 28.558594 L 13.957031 28.558594 C 12.035156 28.558594 10.472656 26.984375 10.472656 25.042969 Z M 10.472656 25.042969 "/>
<path style=" stroke:none;fill-rule:nonzero;fill:rgb(83.918762%,56.079102%,32.548523%);fill-opacity:1;" d="M 26.625 9.644531 L 13.488281 9.644531 C 12.054688 9.644531 10.890625 10.816406 10.890625 12.261719 L 10.890625 15.265625 L 29.222656 15.265625 L 29.222656 12.261719 C 29.222656 10.816406 28.058594 9.644531 26.625 9.644531 Z M 26.625 9.644531 "/>
<path style=" stroke:none;fill-rule:nonzero;fill:rgb(27.839661%,16.859436%,16.079712%);fill-opacity:1;" d="M 24.628906 15.375 L 11.128906 15.375 C 11.007812 15.375 10.910156 15.277344 10.910156 15.15625 C 10.910156 15.035156 11.007812 14.9375 11.128906 14.9375 L 24.628906 14.9375 C 24.75 14.9375 24.847656 15.035156 24.847656 15.15625 C 24.847656 15.277344 24.75 15.375 24.628906 15.375 Z M 24.628906 15.375 "/>
<path style=" stroke:none;fill-rule:nonzero;fill:rgb(27.839661%,16.859436%,16.079712%);fill-opacity:1;" d="M 29.421875 15.375 L 26.808594 15.375 C 26.6875 15.375 26.589844 15.277344 26.589844 15.15625 C 26.589844 15.035156 26.6875 14.9375 26.808594 14.9375 L 29.421875 14.9375 C 29.542969 14.9375 29.636719 15.035156 29.636719 15.15625 C 29.636719 15.277344 29.542969 15.375 29.421875 15.375 Z M 29.421875 15.375 "/>
<path style=" stroke:none;fill-rule:nonzero;fill:rgb(99.609375%,99.21875%,93.728638%);fill-opacity:1;" d="M 20.054688 14.265625 C 19.753906 14.265625 19.457031 14.296875 19.164062 14.355469 C 18.867188 14.414062 18.582031 14.503906 18.304688 14.617188 C 18.023438 14.734375 17.761719 14.878906 17.511719 15.046875 C 17.261719 15.214844 17.027344 15.40625 16.816406 15.621094 C 16.601562 15.835938 16.414062 16.070312 16.246094 16.320312 C 16.078125 16.574219 15.9375 16.839844 15.824219 17.121094 C 15.707031 17.402344 15.621094 17.691406 15.5625 17.988281 C 15.503906 18.285156 15.472656 18.585938 15.472656 18.890625 C 15.472656 19.195312 15.503906 19.496094 15.5625 19.792969 C 15.621094 20.089844 15.707031 20.378906 15.824219 20.660156 C 15.9375 20.941406 16.078125 21.207031 16.246094 21.460938 C 16.414062 21.710938 16.601562 21.945312 16.816406 22.160156 C 17.027344 22.375 17.261719 22.566406 17.511719 22.734375 C 17.761719 22.90625 18.023438 23.046875 18.304688 23.164062 C 18.582031 23.277344 18.867188 23.367188 19.164062 23.425781 C 19.457031 23.484375 19.753906 23.515625 20.054688 23.515625 C 20.359375 23.515625 20.65625 23.484375 20.949219 23.425781 C 21.246094 23.367188 21.53125 23.277344 21.808594 23.164062 C 22.089844 23.046875 22.351562 22.90625 22.601562 22.734375 C 22.851562 22.566406 23.085938 22.375 23.296875 22.160156 C 23.511719 21.945312 23.699219 21.710938 23.867188 21.460938 C 24.035156 21.207031 24.175781 20.941406 24.289062 20.660156 C 24.40625 20.378906 24.492188 20.089844 24.550781 19.792969 C 24.609375 19.496094 24.640625 19.195312 24.640625 18.890625 C 24.640625 18.585938 24.609375 18.285156 24.550781 17.988281 C 24.492188 17.691406 24.40625 17.402344 24.289062 17.121094 C 24.175781 16.839844 24.035156 16.574219 23.867188 16.320312 C 23.699219 16.070312 23.511719 15.835938 23.296875 15.621094 C 23.085938 15.40625 22.851562 15.214844 22.601562 15.046875 C 22.351562 14.878906 22.089844 14.734375 21.808594 14.617188 C 21.53125 14.503906 21.246094 14.414062 20.949219 14.355469 C 20.65625 14.296875 20.359375 14.265625 20.054688 14.265625 Z M 20.054688 14.265625 "/>
<path style=" stroke:none;fill-rule:nonzero;fill:rgb(27.839661%,16.859436%,16.079712%);fill-opacity:1;" d="M 20.054688 23.734375 C 17.410156 23.734375 15.257812 21.5625 15.257812 18.890625 C 15.257812 16.21875 17.410156 14.046875 20.054688 14.046875 C 22.703125 14.046875 24.855469 16.21875 24.855469 18.890625 C 24.855469 21.5625 22.703125 23.734375 20.054688 23.734375 Z M 20.054688 14.488281 C 17.648438 14.488281 15.691406 16.464844 15.691406 18.890625 C 15.691406 21.320312 17.648438 23.292969 20.054688 23.292969 C 22.464844 23.292969 24.421875 21.320312 24.421875 18.890625 C 24.421875 16.464844 22.464844 14.488281 20.054688 14.488281 Z M 20.054688 14.488281 "/>
<path style=" stroke:none;fill-rule:nonzero;fill:rgb(94.509888%,35.688782%,42.349243%);fill-opacity:1;" d="M 13.085938 9.433594 L 13.070312 9.433594 C 12.601562 9.433594 12.214844 9.820312 12.214844 10.292969 L 12.214844 15.316406 L 13.085938 15.316406 Z M 13.085938 9.433594 "/>
<path style=" stroke:none;fill-rule:nonzero;fill:rgb(56.079102%,61.959839%,71.369934%);fill-opacity:1;" d="M 20.054688 15.949219 C 19.667969 15.949219 19.296875 16.023438 18.941406 16.171875 C 18.582031 16.320312 18.269531 16.535156 17.996094 16.808594 C 17.722656 17.085938 17.511719 17.40625 17.363281 17.765625 C 17.214844 18.125 17.140625 18.5 17.140625 18.890625 C 17.140625 19.28125 17.214844 19.65625 17.363281 20.015625 C 17.511719 20.378906 17.722656 20.695312 17.996094 20.972656 C 18.269531 21.246094 18.582031 21.460938 18.941406 21.609375 C 19.296875 21.757812 19.667969 21.832031 20.054688 21.832031 C 20.445312 21.832031 20.816406 21.757812 21.171875 21.609375 C 21.53125 21.460938 21.84375 21.246094 22.117188 20.972656 C 22.390625 20.695312 22.601562 20.378906 22.75 20.015625 C 22.898438 19.65625 22.972656 19.28125 22.972656 18.890625 C 22.972656 18.5 22.898438 18.125 22.75 17.765625 C 22.601562 17.40625 22.390625 17.085938 22.117188 16.808594 C 21.84375 16.535156 21.53125 16.320312 21.171875 16.171875 C 20.816406 16.023438 20.445312 15.949219 20.054688 15.949219 Z M 20.054688 15.949219 "/>
<path style=" stroke:none;fill-rule:nonzero;fill:rgb(46.669006%,79.60968%,82.348633%);fill-opacity:1;" d="M 18.597656 16.789062 C 18.460938 16.789062 18.328125 16.816406 18.199219 16.871094 C 18.074219 16.921875 17.960938 17 17.863281 17.097656 C 17.765625 17.195312 17.6875 17.308594 17.636719 17.4375 C 17.582031 17.566406 17.558594 17.699219 17.558594 17.839844 C 17.558594 17.980469 17.582031 18.113281 17.636719 18.242188 C 17.6875 18.371094 17.765625 18.484375 17.863281 18.582031 C 17.960938 18.683594 18.074219 18.757812 18.199219 18.8125 C 18.328125 18.863281 18.460938 18.890625 18.597656 18.890625 C 18.738281 18.890625 18.871094 18.863281 18.996094 18.8125 C 19.125 18.757812 19.238281 18.683594 19.335938 18.582031 C 19.433594 18.484375 19.507812 18.371094 19.5625 18.242188 C 19.613281 18.113281 19.640625 17.980469 19.640625 17.839844 C 19.640625 17.699219 19.613281 17.566406 19.5625 17.4375 C 19.507812 17.308594 19.433594 17.195312 19.335938 17.097656 C 19.238281 17 19.125 16.921875 18.996094 16.871094 C 18.871094 16.816406 18.738281 16.789062 18.597656 16.789062 Z M 18.597656 16.789062 "/>
<path style=" stroke:none;fill-rule:nonzero;fill:rgb(27.839661%,16.859436%,16.079712%);fill-opacity:1;" d="M 18.597656 19.109375 C 17.902344 19.109375 17.339844 18.539062 17.339844 17.839844 C 17.339844 17.140625 17.902344 16.570312 18.597656 16.570312 C 19.292969 16.570312 19.859375 17.140625 19.859375 17.839844 C 19.859375 18.539062 19.292969 19.109375 18.597656 19.109375 Z M 18.597656 17.007812 C 18.144531 17.007812 17.773438 17.382812 17.773438 17.839844 C 17.773438 18.296875 18.144531 18.671875 18.597656 18.671875 C 19.050781 18.671875 19.421875 18.296875 19.421875 17.839844 C 19.421875 17.382812 19.050781 17.007812 18.597656 17.007812 Z M 18.597656 17.007812 "/>
<path style=" stroke:none;fill-rule:nonzero;fill:rgb(71.759033%,46.669006%,28.239441%);fill-opacity:1;" d="M 24.628906 11.199219 L 27.242188 11.199219 L 27.242188 13.835938 L 24.628906 13.835938 Z M 24.628906 11.199219 "/>
<path style=" stroke:none;fill-rule:nonzero;fill:rgb(27.839661%,16.859436%,16.079712%);fill-opacity:1;" d="M 27.460938 14.058594 L 24.410156 14.058594 L 24.410156 10.980469 L 27.460938 10.980469 Z M 24.847656 13.617188 L 27.023438 13.617188 L 27.023438 11.421875 L 24.847656 11.421875 Z M 24.847656 13.617188 "/>
<path style=" stroke:none;fill-rule:nonzero;fill:rgb(97.648621%,90.19928%,36.079407%);fill-opacity:1;" d="M 13.085938 9.644531 L 13.957031 9.644531 L 13.957031 15.109375 L 13.085938 15.109375 Z M 13.085938 9.644531 "/>
<path style=" stroke:none;fill-rule:nonzero;fill:rgb(63.139343%,82.749939%,63.529968%);fill-opacity:1;" d="M 13.957031 9.644531 L 14.828125 9.644531 L 14.828125 15.109375 L 13.957031 15.109375 Z M 13.957031 9.644531 "/>
<path style=" stroke:none;fill-rule:nonzero;fill:rgb(22.349548%,76.078796%,84.709167%);fill-opacity:1;" d="M 14.828125 9.644531 L 15.699219 9.644531 L 15.699219 15.109375 L 14.828125 15.109375 Z M 14.828125 9.644531 "/>
<path style=" stroke:none;fill-rule:nonzero;fill:rgb(27.839661%,16.859436%,16.079712%);fill-opacity:1;" d="M 26.304688 9.839844 C 27.808594 9.839844 29.027344 11.070312 29.027344 12.585938 L 29.027344 25.195312 C 29.027344 26.710938 27.808594 27.945312 26.304688 27.945312 L 13.808594 27.945312 C 12.304688 27.945312 11.085938 26.710938 11.085938 25.195312 L 11.085938 12.585938 C 11.085938 11.070312 12.304688 9.839844 13.808594 9.839844 L 26.304688 9.839844 M 26.304688 9.222656 L 13.808594 9.222656 C 11.972656 9.222656 10.472656 10.734375 10.472656 12.585938 L 10.472656 25.195312 C 10.472656 27.046875 11.972656 28.558594 13.808594 28.558594 L 26.304688 28.558594 C 28.140625 28.558594 29.636719 27.046875 29.636719 25.195312 L 29.636719 12.585938 C 29.636719 10.734375 28.140625 9.222656 26.304688 9.222656 Z M 26.304688 9.222656 "/>
<path style=" stroke:none;fill-rule:nonzero;fill:rgb(71.759033%,46.669006%,28.239441%);fill-opacity:1;" d="M 14.949219 14.714844 L 12.640625 14.714844 C 12.320312 14.714844 12.0625 15.011719 12.0625 15.375 C 12.0625 15.738281 12.320312 16.035156 12.640625 16.035156 L 14.949219 16.035156 C 15.269531 16.035156 15.527344 15.738281 15.527344 15.375 C 15.527344 15.011719 15.269531 14.714844 14.949219 14.714844 Z M 14.949219 14.714844 "/>
<path style=" stroke:none;fill-rule:nonzero;fill:rgb(27.839661%,16.859436%,16.079712%);fill-opacity:1;" d="M 14.949219 16.253906 L 12.640625 16.253906 C 12.203125 16.253906 11.84375 15.859375 11.84375 15.375 C 11.84375 14.890625 12.203125 14.496094 12.640625 14.496094 L 14.949219 14.496094 C 15.390625 14.496094 15.746094 14.890625 15.746094 15.375 C 15.746094 15.859375 15.390625 16.253906 14.949219 16.253906 Z M 12.640625 14.9375 C 12.441406 14.9375 12.28125 15.132812 12.28125 15.375 C 12.28125 15.617188 12.441406 15.816406 12.640625 15.816406 L 14.949219 15.816406 C 15.148438 15.816406 15.3125 15.617188 15.3125 15.375 C 15.3125 15.132812 15.148438 14.9375 14.949219 14.9375 Z M 12.640625 14.9375 "/>
<path style=" stroke:none;fill-rule:nonzero;fill:rgb(27.839661%,16.859436%,16.079712%);fill-opacity:1;" d="M 22.476562 20.753906 C 22.433594 20.753906 22.390625 20.742188 22.351562 20.71875 C 22.253906 20.648438 22.226562 20.511719 22.292969 20.414062 C 22.59375 19.964844 22.753906 19.4375 22.753906 18.890625 C 22.753906 18.769531 22.851562 18.671875 22.972656 18.671875 C 23.09375 18.671875 23.191406 18.769531 23.191406 18.890625 C 23.191406 19.523438 23.003906 20.136719 22.65625 20.660156 C 22.613281 20.722656 22.542969 20.753906 22.476562 20.753906 Z M 22.476562 20.753906 "/>
<path style=" stroke:none;fill-rule:nonzero;fill:rgb(27.839661%,16.859436%,16.079712%);fill-opacity:1;" d="M 20.054688 22.054688 C 18.328125 22.054688 16.921875 20.632812 16.921875 18.890625 C 16.921875 17.148438 18.328125 15.730469 20.054688 15.730469 C 21.175781 15.730469 22.214844 16.335938 22.773438 17.316406 C 22.835938 17.421875 22.800781 17.554688 22.695312 17.617188 C 22.589844 17.675781 22.457031 17.640625 22.394531 17.535156 C 21.914062 16.691406 21.019531 16.167969 20.054688 16.167969 C 18.570312 16.167969 17.359375 17.390625 17.359375 18.890625 C 17.359375 20.390625 18.570312 21.613281 20.054688 21.613281 C 20.175781 21.613281 20.273438 21.710938 20.273438 21.832031 C 20.273438 21.953125 20.175781 22.054688 20.054688 22.054688 Z M 20.054688 22.054688 "/>
<path style=" stroke:none;fill-rule:nonzero;fill:rgb(99.21875%,98.81897%,93.728638%);fill-opacity:1;" d="M 13.742188 29.21875 C 13.742188 29.21875 14.421875 29.21875 15.265625 29.21875 C 16.109375 29.21875 16.789062 28.53125 16.789062 27.679688 C 16.789062 26.898438 16.207031 26.257812 15.460938 26.160156 C 15.472656 26.082031 15.484375 26.003906 15.484375 25.921875 C 15.484375 25.074219 14.800781 24.382812 13.957031 24.382812 C 13.507812 24.382812 13.109375 24.585938 12.832031 24.894531 C 12.664062 24.101562 11.964844 23.503906 11.128906 23.503906 C 10.164062 23.503906 9.386719 24.292969 9.386719 25.261719 C 9.386719 25.347656 9.398438 25.425781 9.410156 25.507812 C 9.222656 25.355469 8.992188 25.261719 8.734375 25.261719 C 8.199219 25.261719 7.753906 25.652344 7.664062 26.167969 C 7.585938 26.152344 7.507812 26.140625 7.425781 26.140625 C 6.582031 26.140625 5.902344 26.832031 5.902344 27.679688 C 5.902344 28.53125 6.582031 29.21875 7.425781 29.21875 C 8.269531 29.21875 10.691406 29.21875 10.691406 29.21875 L 10.691406 29.4375 L 13.742188 29.4375 Z M 13.742188 29.21875 "/>
<path style=" stroke:none;fill-rule:nonzero;fill:rgb(27.839661%,16.859436%,16.079712%);fill-opacity:1;" d="M 14.503906 27.242188 C 14.441406 27.242188 14.394531 27.191406 14.394531 27.128906 C 14.394531 26.59375 14.828125 26.15625 15.359375 26.15625 C 15.375 26.160156 15.679688 26.15625 15.902344 26.214844 C 15.960938 26.230469 15.996094 26.292969 15.980469 26.351562 C 15.964844 26.410156 15.902344 26.445312 15.847656 26.425781 C 15.652344 26.375 15.367188 26.375 15.359375 26.375 C 14.949219 26.375 14.613281 26.714844 14.613281 27.128906 C 14.613281 27.191406 14.5625 27.242188 14.503906 27.242188 Z M 11.5625 29 C 11.417969 29 11.34375 29.070312 11.34375 29.21875 C 11.34375 29.363281 11.417969 29.4375 11.5625 29.4375 C 11.707031 29.4375 11.78125 29.363281 11.78125 29.21875 C 11.78125 29.070312 11.707031 29 11.5625 29 Z M 11.5625 29 "/>
<path style=" stroke:none;fill-rule:nonzero;fill:rgb(27.839661%,16.859436%,16.079712%);fill-opacity:1;" d="M 15.265625 29.4375 L 13.742188 29.4375 C 13.621094 29.4375 13.523438 29.339844 13.523438 29.21875 C 13.523438 29.097656 13.621094 29 13.742188 29 L 15.265625 29 C 15.984375 29 16.570312 28.40625 16.570312 27.679688 C 16.570312 27.023438 16.082031 26.464844 15.433594 26.378906 C 15.375 26.371094 15.320312 26.339844 15.285156 26.292969 C 15.25 26.246094 15.234375 26.1875 15.246094 26.128906 C 15.253906 26.058594 15.265625 25.992188 15.265625 25.921875 C 15.265625 25.195312 14.679688 24.605469 13.957031 24.605469 C 13.589844 24.605469 13.246094 24.761719 12.992188 25.042969 C 12.9375 25.105469 12.851562 25.128906 12.773438 25.109375 C 12.695312 25.085938 12.636719 25.023438 12.617188 24.941406 C 12.46875 24.238281 11.84375 23.726562 11.128906 23.726562 C 10.289062 23.726562 9.605469 24.414062 9.605469 25.261719 C 9.605469 25.324219 9.613281 25.386719 9.621094 25.445312 C 9.632812 25.535156 9.59375 25.640625 9.515625 25.683594 C 9.4375 25.730469 9.34375 25.734375 9.273438 25.679688 C 9.113281 25.550781 8.929688 25.484375 8.734375 25.484375 C 8.3125 25.484375 7.953125 25.785156 7.878906 26.207031 C 7.855469 26.324219 7.75 26.402344 7.628906 26.382812 C 7.5625 26.371094 7.496094 26.363281 7.425781 26.363281 C 6.707031 26.363281 6.121094 26.953125 6.121094 27.679688 C 6.121094 28.40625 6.707031 29 7.425781 29 L 10.691406 29 C 10.8125 29 10.910156 29.097656 10.910156 29.21875 C 10.910156 29.339844 10.8125 29.4375 10.691406 29.4375 L 7.425781 29.4375 C 6.464844 29.4375 5.683594 28.648438 5.683594 27.679688 C 5.683594 26.710938 6.464844 25.921875 7.425781 25.921875 C 7.453125 25.921875 7.476562 25.921875 7.5 25.925781 C 7.683594 25.402344 8.171875 25.042969 8.734375 25.042969 C 8.882812 25.042969 9.03125 25.070312 9.171875 25.121094 C 9.246094 24.097656 10.09375 23.285156 11.128906 23.285156 C 11.925781 23.285156 12.636719 23.78125 12.9375 24.503906 C 13.234375 24.285156 13.589844 24.164062 13.957031 24.164062 C 14.917969 24.164062 15.699219 24.953125 15.699219 25.921875 C 15.699219 25.945312 15.699219 25.964844 15.699219 25.984375 C 16.457031 26.179688 17.007812 26.875 17.007812 27.679688 C 17.007812 28.648438 16.226562 29.4375 15.265625 29.4375 Z M 15.265625 29.4375 "/>
<path style=" stroke:none;fill-rule:nonzero;fill:rgb(27.839661%,16.859436%,16.079712%);fill-opacity:1;" d="M 12.871094 29 C 12.800781 29 12.503906 29 12.433594 29 C 12.3125 29 12.214844 29.097656 12.214844 29.21875 C 12.214844 29.339844 12.3125 29.4375 12.433594 29.4375 C 12.503906 29.4375 12.800781 29.4375 12.871094 29.4375 C 12.992188 29.4375 13.085938 29.339844 13.085938 29.21875 C 13.085938 29.097656 12.992188 29 12.871094 29 Z M 12.871094 29 "/>
</g>
</svg>
