<?xml version="1.0" encoding="UTF-8"?>
<svg xmlns="http://www.w3.org/2000/svg" xmlns:xlink="http://www.w3.org/1999/xlink" width="47.5pt" height="47.499999pt" viewBox="0 0 37.5 37.499999" version="1.2">
<defs>
<clipPath id="clip1">
  <path d="M 1 2.25 L 37.007812 2.25 L 37.007812 35 L 1 35 Z M 1 2.25 "/>
</clipPath>
</defs>
<g id="surface1">
<g clip-path="url(#clip1)" clip-rule="nonzero">
<path style=" stroke:none;fill-rule:nonzero;fill:rgb(78.039551%,92.939758%,90.19928%);fill-opacity:1;" d="M 35.988281 21.566406 C 36.121094 21.292969 36.242188 21.003906 36.34375 20.699219 C 37.515625 17.246094 35.742188 13.105469 32.015625 12.105469 C 31.609375 7.039062 28.050781 3.566406 24.03125 2.972656 C 19.433594 2.296875 15.21875 5.21875 13.816406 9.863281 C 12.125 9.265625 10.480469 9.335938 8.929688 10.242188 C 8.222656 10.570312 7.578125 11.050781 7 11.683594 C 6.152344 12.609375 5.601562 13.78125 5.378906 15.015625 C 5.042969 15.070312 4.71875 15.121094 4.410156 15.230469 C 2.613281 15.875 1.476562 17.203125 1.167969 19.199219 C 0.972656 20.445312 1.363281 21.6875 1.582031 22.1875 C 2.441406 24.167969 4.4375 25.292969 6.46875 24.996094 C 6.566406 24.980469 6.714844 25.027344 6.800781 25.097656 C 6.910156 28.265625 8.445312 31.066406 10.753906 32.667969 C 14.453125 35.234375 19.21875 34.445312 22.222656 30.921875 C 23.507812 32.238281 25.039062 32.878906 26.839844 32.648438 C 28.628906 32.417969 30.019531 31.429688 31.035156 29.824219 C 31.503906 29.949219 31.945312 30.128906 32.40625 30.179688 C 34.203125 30.378906 35.664062 29.664062 36.734375 28.046875 C 37.144531 27.425781 37.53125 26.625 37.53125 25.21875 C 37.53125 23.769531 36.957031 22.449219 35.988281 21.566406 Z M 35.988281 21.566406 "/>
</g>
<path style=" stroke:none;fill-rule:nonzero;fill:rgb(100%,100%,100%);fill-opacity:1;" d="M 4.703125 18.023438 L 0.238281 18.023438 C 0.117188 18.023438 0.015625 17.921875 0.015625 17.800781 C 0.015625 17.675781 0.117188 17.578125 0.238281 17.578125 L 4.699219 17.578125 C 4.824219 17.578125 4.921875 17.675781 4.921875 17.800781 C 4.921875 17.921875 4.824219 18.023438 4.703125 18.023438 Z M 5.984375 18.023438 L 5.339844 18.023438 C 5.214844 18.023438 5.117188 17.921875 5.117188 17.800781 C 5.117188 17.675781 5.214844 17.578125 5.339844 17.578125 L 5.984375 17.578125 C 6.105469 17.578125 6.203125 17.675781 6.203125 17.800781 C 6.203125 17.921875 6.105469 18.023438 5.984375 18.023438 Z M 7.785156 18.023438 L 6.652344 18.023438 C 6.53125 18.023438 6.429688 17.921875 6.429688 17.800781 C 6.429688 17.675781 6.53125 17.578125 6.652344 17.578125 L 7.785156 17.578125 C 7.910156 17.578125 8.007812 17.675781 8.007812 17.800781 C 8.007812 17.921875 7.910156 18.023438 7.785156 18.023438 Z M 7.785156 18.851562 L 3.507812 18.851562 C 3.386719 18.851562 3.285156 18.753906 3.285156 18.628906 C 3.285156 18.507812 3.386719 18.40625 3.507812 18.40625 L 7.785156 18.40625 C 7.910156 18.40625 8.007812 18.507812 8.007812 18.628906 C 8.007812 18.753906 7.910156 18.851562 7.785156 18.851562 Z M 2.738281 18.851562 L 2.480469 18.851562 C 2.359375 18.851562 2.257812 18.753906 2.257812 18.628906 C 2.257812 18.507812 2.359375 18.40625 2.480469 18.40625 L 2.738281 18.40625 C 2.859375 18.40625 2.960938 18.507812 2.960938 18.628906 C 2.960938 18.753906 2.863281 18.851562 2.738281 18.851562 Z M 1.679688 18.851562 L 1.035156 18.851562 C 0.910156 18.851562 0.8125 18.753906 0.8125 18.628906 C 0.8125 18.507812 0.910156 18.40625 1.035156 18.40625 L 1.679688 18.40625 C 1.804688 18.40625 1.902344 18.507812 1.902344 18.628906 C 1.902344 18.753906 1.804688 18.851562 1.679688 18.851562 Z M 5.746094 17.191406 L 3.507812 17.191406 C 3.386719 17.191406 3.285156 17.09375 3.285156 16.96875 C 3.285156 16.847656 3.386719 16.75 3.507812 16.75 L 5.746094 16.75 C 5.867188 16.75 5.96875 16.847656 5.96875 16.96875 C 5.96875 17.09375 5.867188 17.191406 5.746094 17.191406 Z M 5.746094 16.363281 L 5.1875 16.363281 C 5.0625 16.363281 4.964844 16.265625 4.964844 16.140625 C 4.964844 16.019531 5.0625 15.917969 5.1875 15.917969 L 5.746094 15.917969 C 5.867188 15.917969 5.96875 16.019531 5.96875 16.140625 C 5.96875 16.265625 5.867188 16.363281 5.746094 16.363281 Z M 4.292969 19.683594 L 3.507812 19.683594 C 3.386719 19.683594 3.285156 19.582031 3.285156 19.460938 C 3.285156 19.335938 3.386719 19.238281 3.507812 19.238281 L 4.292969 19.238281 C 4.414062 19.238281 4.515625 19.335938 4.515625 19.460938 C 4.515625 19.582031 4.414062 19.683594 4.292969 19.683594 Z M 29.625 8.09375 L 25.160156 8.09375 C 25.039062 8.09375 24.941406 7.992188 24.941406 7.871094 C 24.941406 7.75 25.039062 7.648438 25.160156 7.648438 L 29.625 7.648438 C 29.746094 7.648438 29.847656 7.75 29.847656 7.871094 C 29.847656 7.992188 29.746094 8.09375 29.625 8.09375 Z M 30.90625 8.09375 L 30.261719 8.09375 C 30.140625 8.09375 30.039062 7.992188 30.039062 7.871094 C 30.039062 7.75 30.140625 7.648438 30.261719 7.648438 L 30.90625 7.648438 C 31.027344 7.648438 31.128906 7.75 31.128906 7.871094 C 31.128906 7.992188 31.027344 8.09375 30.90625 8.09375 Z M 32.710938 8.09375 L 31.578125 8.09375 C 31.453125 8.09375 31.355469 7.992188 31.355469 7.871094 C 31.355469 7.75 31.453125 7.648438 31.578125 7.648438 L 32.710938 7.648438 C 32.832031 7.648438 32.929688 7.75 32.929688 7.871094 C 32.929688 7.992188 32.832031 8.09375 32.710938 8.09375 Z M 32.710938 8.921875 L 28.429688 8.921875 C 28.308594 8.921875 28.210938 8.824219 28.210938 8.699219 C 28.210938 8.578125 28.308594 8.476562 28.429688 8.476562 L 32.710938 8.476562 C 32.832031 8.476562 32.929688 8.578125 32.929688 8.699219 C 32.929688 8.824219 32.832031 8.921875 32.710938 8.921875 Z M 27.660156 8.921875 L 27.402344 8.921875 C 27.28125 8.921875 27.179688 8.824219 27.179688 8.699219 C 27.179688 8.578125 27.28125 8.476562 27.402344 8.476562 L 27.660156 8.476562 C 27.785156 8.476562 27.882812 8.578125 27.882812 8.699219 C 27.882812 8.824219 27.785156 8.921875 27.660156 8.921875 Z M 26.605469 8.921875 L 25.957031 8.921875 C 25.832031 8.921875 25.734375 8.824219 25.734375 8.699219 C 25.734375 8.578125 25.832031 8.476562 25.957031 8.476562 L 26.605469 8.476562 C 26.726562 8.476562 26.824219 8.578125 26.824219 8.699219 C 26.824219 8.824219 26.726562 8.921875 26.605469 8.921875 Z M 30.667969 7.265625 L 28.429688 7.265625 C 28.308594 7.265625 28.210938 7.164062 28.210938 7.042969 C 28.210938 6.917969 28.308594 6.820312 28.429688 6.820312 L 30.667969 6.820312 C 30.789062 6.820312 30.890625 6.917969 30.890625 7.042969 C 30.890625 7.164062 30.789062 7.265625 30.667969 7.265625 Z M 30.667969 6.433594 L 30.109375 6.433594 C 29.984375 6.433594 29.886719 6.335938 29.886719 6.210938 C 29.886719 6.089844 29.984375 5.988281 30.109375 5.988281 L 30.667969 5.988281 C 30.789062 5.988281 30.890625 6.089844 30.890625 6.210938 C 30.890625 6.335938 30.789062 6.433594 30.667969 6.433594 Z M 29.214844 9.753906 L 28.429688 9.753906 C 28.308594 9.753906 28.210938 9.652344 28.210938 9.53125 C 28.210938 9.40625 28.308594 9.308594 28.429688 9.308594 L 29.214844 9.308594 C 29.335938 9.308594 29.4375 9.40625 29.4375 9.53125 C 29.4375 9.652344 29.335938 9.753906 29.214844 9.753906 Z M 29.214844 9.753906 "/>
<path style=" stroke:none;fill-rule:nonzero;fill:rgb(99.21875%,98.81897%,93.728638%);fill-opacity:1;" d="M 29.878906 18.394531 C 29.878906 18.394531 34.601562 18.394531 34.628906 18.394531 C 35.71875 18.394531 36.605469 17.507812 36.605469 16.417969 C 36.605469 15.46875 35.929688 14.671875 35.035156 14.484375 C 35.046875 14.402344 35.050781 14.320312 35.050781 14.234375 C 35.050781 13.101562 34.136719 12.1875 33.007812 12.1875 C 32.339844 12.1875 31.75 12.507812 31.375 13 C 31.28125 11.746094 30.15625 10.773438 28.84375 10.933594 C 27.882812 11.050781 27.089844 11.796875 26.910156 12.746094 C 26.855469 13.050781 26.859375 13.347656 26.917969 13.625 C 26.660156 13.347656 26.292969 13.175781 25.882812 13.175781 C 25.136719 13.175781 24.527344 13.757812 24.480469 14.492188 C 24.140625 14.417969 23.769531 14.421875 23.382812 14.566406 C 22.636719 14.847656 22.109375 15.546875 22.078125 16.339844 C 22.035156 17.464844 22.933594 18.394531 24.050781 18.394531 C 24.136719 18.394531 24.433594 18.394531 24.503906 18.394531 L 28.601562 18.394531 "/>
<path style=" stroke:none;fill-rule:nonzero;fill:rgb(27.839661%,16.859436%,16.079712%);fill-opacity:1;" d="M 34.628906 18.617188 L 29.878906 18.617188 C 29.753906 18.617188 29.65625 18.515625 29.65625 18.394531 C 29.65625 18.269531 29.753906 18.171875 29.878906 18.171875 L 34.628906 18.171875 C 35.59375 18.171875 36.382812 17.386719 36.382812 16.417969 C 36.382812 15.59375 35.796875 14.871094 34.988281 14.703125 C 34.875 14.679688 34.800781 14.574219 34.8125 14.460938 C 34.824219 14.386719 34.828125 14.308594 34.828125 14.234375 C 34.828125 13.226562 34.011719 12.410156 33.007812 12.410156 C 32.433594 12.410156 31.902344 12.675781 31.554688 13.136719 C 31.496094 13.210938 31.402344 13.242188 31.3125 13.214844 C 31.226562 13.1875 31.160156 13.109375 31.15625 13.019531 C 31.113281 12.46875 30.84375 11.949219 30.414062 11.601562 C 29.980469 11.246094 29.433594 11.089844 28.871094 11.15625 C 28.003906 11.261719 27.289062 11.933594 27.128906 12.789062 C 27.078125 13.054688 27.082031 13.320312 27.136719 13.582031 C 27.15625 13.679688 27.105469 13.777344 27.019531 13.824219 C 26.929688 13.871094 26.820312 13.851562 26.753906 13.777344 C 26.527344 13.53125 26.214844 13.398438 25.882812 13.398438 C 25.261719 13.398438 24.742188 13.886719 24.699219 14.507812 C 24.695312 14.570312 24.664062 14.632812 24.613281 14.671875 C 24.558594 14.710938 24.492188 14.722656 24.429688 14.710938 C 24.09375 14.636719 23.777344 14.65625 23.460938 14.777344 C 22.792969 15.027344 22.328125 15.660156 22.300781 16.347656 C 22.28125 16.832031 22.453125 17.285156 22.789062 17.632812 C 23.121094 17.980469 23.570312 18.171875 24.050781 18.171875 L 28.601562 18.171875 C 28.726562 18.171875 28.824219 18.269531 28.824219 18.394531 C 28.824219 18.515625 28.726562 18.617188 28.601562 18.617188 L 24.050781 18.617188 C 23.449219 18.617188 22.886719 18.375 22.46875 17.941406 C 22.050781 17.507812 21.832031 16.933594 21.855469 16.332031 C 21.890625 15.464844 22.46875 14.671875 23.304688 14.359375 C 23.625 14.238281 23.953125 14.199219 24.289062 14.234375 C 24.453125 13.5 25.109375 12.953125 25.882812 12.953125 C 26.152344 12.953125 26.414062 13.019531 26.648438 13.144531 C 26.652344 13 26.664062 12.851562 26.691406 12.707031 C 26.886719 11.664062 27.761719 10.84375 28.816406 10.714844 C 29.5 10.628906 30.167969 10.824219 30.695312 11.257812 C 31.097656 11.585938 31.382812 12.03125 31.519531 12.523438 C 31.925781 12.164062 32.449219 11.964844 33.007812 11.964844 C 34.257812 11.964844 35.273438 12.984375 35.273438 14.234375 C 35.273438 14.261719 35.273438 14.289062 35.273438 14.320312 C 36.183594 14.597656 36.828125 15.453125 36.828125 16.421875 C 36.824219 17.628906 35.839844 18.617188 34.628906 18.617188 Z M 34.628906 18.617188 "/>
<path style=" stroke:none;fill-rule:nonzero;fill:rgb(99.21875%,98.81897%,93.728638%);fill-opacity:1;" d="M 28.734375 14.042969 C 28.003906 13.996094 27.375 14.5 27.328125 15.171875 C 27.324219 15.253906 27.328125 15.335938 27.339844 15.414062 C 27.199219 15.253906 26.988281 15.148438 26.75 15.132812 C 26.3125 15.101562 25.933594 15.390625 25.878906 15.785156 C 25.800781 15.765625 25.714844 15.75 25.628906 15.742188 C 24.988281 15.703125 24.441406 16.144531 24.402344 16.730469 "/>
<path style=" stroke:none;fill-rule:nonzero;fill:rgb(27.839661%,16.859436%,16.079712%);fill-opacity:1;" d="M 24.402344 16.839844 C 24.398438 16.839844 24.394531 16.839844 24.394531 16.839844 C 24.332031 16.835938 24.285156 16.785156 24.289062 16.722656 C 24.335938 16.078125 24.933594 15.589844 25.636719 15.632812 C 25.6875 15.636719 25.742188 15.644531 25.792969 15.652344 C 25.910156 15.261719 26.308594 14.988281 26.757812 15.019531 C 26.921875 15.03125 27.082031 15.085938 27.21875 15.167969 C 27.21875 15.167969 27.21875 15.164062 27.21875 15.164062 C 27.265625 14.433594 27.949219 13.886719 28.742188 13.933594 C 28.800781 13.9375 28.847656 13.988281 28.84375 14.050781 C 28.839844 14.113281 28.789062 14.160156 28.726562 14.15625 C 28.054688 14.109375 27.480469 14.570312 27.441406 15.179688 C 27.433594 15.25 27.4375 15.324219 27.449219 15.398438 C 27.457031 15.449219 27.429688 15.496094 27.386719 15.515625 C 27.34375 15.539062 27.289062 15.527344 27.253906 15.488281 C 27.128906 15.347656 26.941406 15.257812 26.742188 15.242188 C 26.363281 15.21875 26.035156 15.464844 25.988281 15.800781 C 25.984375 15.835938 25.96875 15.863281 25.941406 15.878906 C 25.914062 15.898438 25.878906 15.902344 25.851562 15.894531 C 25.773438 15.875 25.699219 15.859375 25.621094 15.855469 C 25.046875 15.820312 24.546875 16.214844 24.511719 16.738281 C 24.507812 16.796875 24.460938 16.839844 24.402344 16.839844 Z M 24.402344 16.839844 "/>
<path style=" stroke:none;fill-rule:nonzero;fill:rgb(99.21875%,98.81897%,93.728638%);fill-opacity:1;" d="M 35.429688 14.71875 C 34.742188 14.394531 33.949219 14.621094 33.65625 15.230469 C 33.621094 15.304688 33.59375 15.382812 33.574219 15.460938 "/>
<path style=" stroke:none;fill-rule:nonzero;fill:rgb(27.839661%,16.859436%,16.079712%);fill-opacity:1;" d="M 33.574219 15.570312 C 33.566406 15.570312 33.558594 15.570312 33.550781 15.570312 C 33.488281 15.554688 33.453125 15.496094 33.464844 15.4375 C 33.484375 15.347656 33.515625 15.261719 33.554688 15.179688 C 33.875 14.519531 34.734375 14.269531 35.476562 14.617188 C 35.53125 14.644531 35.554688 14.710938 35.527344 14.765625 C 35.503906 14.820312 35.4375 14.84375 35.378906 14.820312 C 34.75 14.523438 34.019531 14.726562 33.753906 15.277344 C 33.722656 15.34375 33.699219 15.414062 33.683594 15.488281 C 33.671875 15.535156 33.625 15.570312 33.574219 15.570312 Z M 33.574219 15.570312 "/>
<path style=" stroke:none;fill-rule:nonzero;fill:rgb(0%,42.749023%,93.728638%);fill-opacity:1;" d="M 25.558594 27.925781 L 14.117188 27.925781 C 12.441406 27.925781 11.074219 26.554688 11.074219 24.878906 L 11.074219 13.4375 C 11.074219 11.761719 12.441406 10.390625 14.117188 10.390625 L 25.558594 10.390625 C 27.234375 10.390625 28.605469 11.761719 28.605469 13.4375 L 28.605469 24.878906 C 28.605469 26.554688 27.234375 27.925781 25.558594 27.925781 Z M 25.558594 27.925781 "/>
<path style=" stroke:none;fill-rule:nonzero;fill:rgb(27.839661%,16.859436%,16.079712%);fill-opacity:1;" d="M 25.558594 28.238281 L 14.117188 28.238281 C 12.265625 28.238281 10.761719 26.730469 10.761719 24.878906 L 10.761719 13.4375 C 10.761719 11.585938 12.265625 10.078125 14.117188 10.078125 L 25.558594 10.078125 C 27.410156 10.078125 28.917969 11.585938 28.917969 13.4375 L 28.917969 24.878906 C 28.917969 26.730469 27.410156 28.238281 25.558594 28.238281 Z M 14.117188 10.703125 C 12.609375 10.703125 11.382812 11.929688 11.382812 13.4375 L 11.382812 24.878906 C 11.382812 26.386719 12.609375 27.613281 14.117188 27.613281 L 25.558594 27.613281 C 27.070312 27.613281 28.296875 26.386719 28.296875 24.878906 L 28.296875 13.4375 C 28.296875 11.929688 27.066406 10.703125 25.558594 10.703125 Z M 14.117188 10.703125 "/>
<path style=" stroke:none;fill-rule:nonzero;fill:rgb(99.21875%,98.81897%,93.328857%);fill-opacity:1;" d="M 24.886719 26.671875 L 14.792969 26.671875 C 13.433594 26.671875 12.324219 25.5625 12.324219 24.203125 L 12.324219 14.113281 C 12.324219 12.753906 13.433594 11.644531 14.792969 11.644531 L 24.886719 11.644531 C 26.242188 11.644531 27.355469 12.753906 27.355469 14.113281 L 27.355469 24.203125 C 27.355469 25.5625 26.242188 26.671875 24.886719 26.671875 Z M 24.886719 26.671875 "/>
<path style=" stroke:none;fill-rule:nonzero;fill:rgb(27.839661%,16.859436%,16.079712%);fill-opacity:1;" d="M 25.070312 26.828125 L 14.609375 26.828125 C 13.261719 26.828125 12.167969 25.734375 12.167969 24.390625 L 12.167969 13.925781 C 12.167969 12.582031 13.261719 11.488281 14.609375 11.488281 L 24.570312 11.488281 C 24.65625 11.488281 24.726562 11.558594 24.726562 11.644531 C 24.726562 11.730469 24.65625 11.800781 24.570312 11.800781 L 14.609375 11.800781 C 13.433594 11.800781 12.480469 12.753906 12.480469 13.925781 L 12.480469 24.390625 C 12.480469 25.5625 13.433594 26.515625 14.609375 26.515625 L 25.070312 26.515625 C 26.242188 26.515625 27.199219 25.5625 27.199219 24.390625 L 27.199219 18.601562 C 27.199219 18.515625 27.269531 18.445312 27.355469 18.445312 C 27.441406 18.445312 27.511719 18.515625 27.511719 18.601562 L 27.511719 24.390625 C 27.511719 25.734375 26.414062 26.828125 25.070312 26.828125 Z M 25.070312 26.828125 "/>
<path style=" stroke:none;fill-rule:nonzero;fill:rgb(27.839661%,16.859436%,16.079712%);fill-opacity:1;" d="M 27.355469 17.921875 C 27.269531 17.921875 27.199219 17.851562 27.199219 17.765625 L 27.199219 16.652344 C 27.199219 16.566406 27.269531 16.496094 27.355469 16.496094 C 27.441406 16.496094 27.511719 16.566406 27.511719 16.652344 L 27.511719 17.765625 C 27.511719 17.851562 27.441406 17.921875 27.355469 17.921875 Z M 27.355469 16.253906 C 27.269531 16.253906 27.199219 16.183594 27.199219 16.097656 L 27.199219 15.539062 C 27.199219 15.453125 27.269531 15.386719 27.355469 15.386719 C 27.441406 15.386719 27.511719 15.453125 27.511719 15.539062 L 27.511719 16.097656 C 27.511719 16.183594 27.441406 16.253906 27.355469 16.253906 Z M 27.355469 16.253906 "/>
<path style=" stroke:none;fill-rule:nonzero;fill:rgb(7.058716%,47.839355%,84.709167%);fill-opacity:1;" d="M 23.886719 19.9375 L 23.886719 22.640625 L 22.292969 22.640625 L 22.269531 19.960938 C 22.269531 19.28125 21.960938 18.800781 21.351562 18.800781 C 20.886719 18.800781 20.613281 19.109375 20.488281 19.414062 C 20.445312 19.519531 20.433594 19.671875 20.433594 19.820312 L 20.433594 22.640625 L 18.820312 22.640625 C 18.820312 22.640625 18.84375 18.066406 18.820312 17.59375 L 20.433594 17.59375 L 20.433594 18.375 C 20.429688 18.378906 20.425781 18.386719 20.421875 18.390625 L 20.433594 18.390625 L 20.433594 18.375 C 20.65625 18 21.066406 17.5625 21.960938 17.5625 C 23.066406 17.5625 23.886719 18.25 23.886719 19.9375 Z M 16.988281 15.214844 C 16.488281 15.214844 16.164062 15.558594 16.164062 16.007812 C 16.164062 16.445312 16.480469 16.796875 16.96875 16.796875 L 16.976562 16.796875 C 17.484375 16.796875 17.800781 16.445312 17.800781 16.007812 C 17.789062 15.558594 17.484375 15.214844 16.988281 15.214844 Z M 16.1875 22.640625 L 17.78125 22.640625 L 17.78125 17.59375 L 16.1875 17.59375 Z M 16.1875 22.640625 "/>
<path style=" stroke:none;fill-rule:nonzero;fill:rgb(27.839661%,16.859436%,16.079712%);fill-opacity:1;" d="M 23.886719 22.796875 L 22.292969 22.796875 C 22.207031 22.796875 22.136719 22.726562 22.136719 22.640625 L 22.113281 19.960938 C 22.113281 19.65625 22.039062 18.953125 21.351562 18.953125 C 20.894531 18.953125 20.699219 19.316406 20.636719 19.46875 C 20.605469 19.542969 20.589844 19.660156 20.589844 19.820312 L 20.589844 22.640625 C 20.589844 22.726562 20.519531 22.796875 20.433594 22.796875 L 18.820312 22.796875 C 18.78125 22.796875 18.738281 22.777344 18.710938 22.75 C 18.679688 22.71875 18.664062 22.679688 18.664062 22.636719 C 18.664062 22.59375 18.6875 18.066406 18.664062 17.601562 C 18.664062 17.558594 18.679688 17.519531 18.707031 17.488281 C 18.738281 17.457031 18.777344 17.4375 18.820312 17.4375 L 20.433594 17.4375 C 20.519531 17.4375 20.589844 17.507812 20.589844 17.59375 L 20.589844 17.917969 C 20.929688 17.574219 21.382812 17.40625 21.960938 17.40625 C 21.964844 17.40625 21.964844 17.40625 21.964844 17.40625 C 22.554688 17.40625 23.03125 17.585938 23.386719 17.941406 C 23.820312 18.375 24.039062 19.046875 24.039062 19.9375 L 24.039062 22.640625 C 24.042969 22.726562 23.972656 22.796875 23.886719 22.796875 Z M 22.445312 22.484375 L 23.730469 22.484375 L 23.730469 19.9375 C 23.730469 19.132812 23.539062 18.535156 23.167969 18.160156 C 22.871094 17.867188 22.46875 17.71875 21.964844 17.71875 C 21.964844 17.71875 21.964844 17.71875 21.960938 17.71875 C 21.121094 17.71875 20.769531 18.125 20.578125 18.4375 C 20.535156 18.550781 20.351562 18.574219 20.292969 18.46875 C 20.269531 18.425781 20.261719 18.378906 20.277344 18.335938 L 20.277344 17.75 L 18.980469 17.75 C 18.996094 18.585938 18.980469 21.730469 18.976562 22.484375 L 20.277344 22.484375 L 20.277344 19.820312 C 20.277344 19.617188 20.300781 19.464844 20.347656 19.351562 C 20.527344 18.910156 20.902344 18.644531 21.351562 18.644531 C 22.015625 18.644531 22.425781 19.148438 22.425781 19.960938 Z M 17.78125 22.796875 L 16.1875 22.796875 C 16.101562 22.796875 16.03125 22.726562 16.03125 22.640625 L 16.03125 17.59375 C 16.03125 17.507812 16.101562 17.441406 16.1875 17.441406 L 17.78125 17.441406 C 17.863281 17.441406 17.933594 17.507812 17.933594 17.59375 L 17.933594 22.640625 C 17.933594 22.726562 17.863281 22.796875 17.78125 22.796875 Z M 16.34375 22.484375 L 17.625 22.484375 L 17.625 17.75 L 16.34375 17.75 Z M 16.976562 16.953125 C 16.414062 16.953125 16.007812 16.554688 16.007812 16.007812 C 16.007812 15.460938 16.421875 15.0625 16.988281 15.0625 C 17.542969 15.0625 17.945312 15.449219 17.957031 16.003906 C 17.957031 16.554688 17.546875 16.953125 16.976562 16.953125 Z M 16.988281 15.371094 C 16.589844 15.371094 16.320312 15.628906 16.320312 16.007812 C 16.320312 16.382812 16.585938 16.644531 16.96875 16.644531 C 17.378906 16.644531 17.644531 16.386719 17.644531 16.007812 C 17.636719 15.625 17.378906 15.371094 16.988281 15.371094 Z M 16.988281 15.371094 "/>
<path style=" stroke:none;fill-rule:nonzero;fill:rgb(99.21875%,98.81897%,93.728638%);fill-opacity:1;" d="M 15.269531 29.042969 C 16.03125 29.042969 16.691406 29.042969 16.699219 29.042969 C 17.550781 29.042969 18.242188 28.367188 18.242188 27.53125 C 18.242188 26.804688 17.71875 26.199219 17.015625 26.054688 C 17.023438 25.992188 17.03125 25.925781 17.03125 25.859375 C 17.03125 24.996094 16.316406 24.296875 15.433594 24.296875 C 14.910156 24.296875 14.449219 24.539062 14.15625 24.917969 C 14.082031 23.957031 13.207031 23.214844 12.179688 23.339844 C 11.425781 23.429688 10.804688 23.996094 10.667969 24.722656 C 10.625 24.957031 10.628906 25.183594 10.671875 25.398438 C 10.472656 25.183594 10.183594 25.050781 9.867188 25.050781 C 9.28125 25.050781 8.804688 25.496094 8.765625 26.058594 C 8.5 26 8.214844 26.003906 7.910156 26.117188 C 7.328125 26.328125 6.914062 26.863281 6.890625 27.472656 C 6.855469 28.332031 7.558594 29.042969 8.433594 29.042969 C 8.5 29.042969 8.730469 29.042969 8.785156 29.042969 L 11.992188 29.042969 M 12.652344 29.042969 L 12.800781 29.042969 "/>
<path style=" stroke:none;fill-rule:nonzero;fill:rgb(27.839661%,16.859436%,16.079712%);fill-opacity:1;" d="M 16.699219 29.265625 L 15.269531 29.265625 C 15.148438 29.265625 15.046875 29.164062 15.046875 29.042969 C 15.046875 28.921875 15.148438 28.820312 15.269531 28.820312 L 16.699219 28.820312 C 17.429688 28.820312 18.019531 28.242188 18.019531 27.53125 C 18.019531 26.925781 17.578125 26.394531 16.972656 26.273438 C 16.859375 26.25 16.78125 26.140625 16.796875 26.027344 C 16.804688 25.972656 16.808594 25.917969 16.808594 25.859375 C 16.808594 25.121094 16.191406 24.519531 15.433594 24.519531 C 14.996094 24.519531 14.597656 24.714844 14.332031 25.054688 C 14.277344 25.128906 14.183594 25.15625 14.09375 25.132812 C 14.003906 25.105469 13.941406 25.027344 13.933594 24.9375 C 13.902344 24.53125 13.710938 24.160156 13.390625 23.898438 C 13.058594 23.628906 12.640625 23.507812 12.203125 23.558594 C 11.546875 23.636719 11.003906 24.132812 10.886719 24.765625 C 10.847656 24.960938 10.851562 25.160156 10.890625 25.351562 C 10.910156 25.449219 10.863281 25.546875 10.773438 25.59375 C 10.6875 25.640625 10.578125 25.621094 10.511719 25.550781 C 10.339844 25.371094 10.113281 25.273438 9.863281 25.273438 C 9.402344 25.273438 9.019531 25.625 8.988281 26.074219 C 8.984375 26.136719 8.953125 26.195312 8.898438 26.234375 C 8.847656 26.273438 8.78125 26.289062 8.71875 26.277344 C 8.464844 26.222656 8.226562 26.238281 7.984375 26.324219 C 7.484375 26.507812 7.132812 26.972656 7.113281 27.480469 C 7.097656 27.828125 7.226562 28.160156 7.46875 28.414062 C 7.71875 28.675781 8.0625 28.820312 8.433594 28.820312 L 11.988281 28.820312 C 12.113281 28.820312 12.210938 28.917969 12.210938 29.042969 C 12.210938 29.164062 12.113281 29.265625 11.988281 29.265625 L 8.433594 29.265625 C 7.949219 29.265625 7.480469 29.066406 7.148438 28.71875 C 6.820312 28.378906 6.648438 27.933594 6.667969 27.460938 C 6.695312 26.777344 7.164062 26.152344 7.832031 25.90625 C 8.078125 25.816406 8.328125 25.785156 8.582031 25.804688 C 8.730469 25.242188 9.253906 24.828125 9.863281 24.828125 C 10.058594 24.828125 10.246094 24.871094 10.417969 24.949219 C 10.421875 24.859375 10.433594 24.769531 10.449219 24.683594 C 10.605469 23.863281 11.304688 23.21875 12.152344 23.117188 C 12.707031 23.050781 13.246094 23.207031 13.671875 23.554688 C 13.96875 23.796875 14.183594 24.113281 14.292969 24.464844 C 14.613281 24.210938 15.011719 24.074219 15.433594 24.074219 C 16.4375 24.074219 17.253906 24.875 17.253906 25.859375 C 17.253906 25.867188 17.253906 25.878906 17.253906 25.886719 C 17.964844 26.117188 18.464844 26.78125 18.464844 27.53125 C 18.464844 28.488281 17.671875 29.265625 16.699219 29.265625 Z M 12.796875 29.265625 L 12.652344 29.265625 C 12.53125 29.265625 12.429688 29.164062 12.429688 29.042969 C 12.429688 28.921875 12.53125 28.820312 12.652344 28.820312 L 12.796875 28.820312 C 12.921875 28.820312 13.019531 28.921875 13.019531 29.042969 C 13.019531 29.164062 12.921875 29.265625 12.796875 29.265625 Z M 12.796875 29.265625 "/>
<path style=" stroke:none;fill-rule:nonzero;fill:rgb(27.839661%,16.859436%,16.079712%);fill-opacity:1;" d="M 16.011719 26.910156 C 16 26.910156 15.992188 26.910156 15.984375 26.910156 C 15.925781 26.894531 15.886719 26.835938 15.902344 26.777344 C 15.917969 26.707031 15.941406 26.640625 15.96875 26.578125 C 16.21875 26.082031 16.898438 25.894531 17.488281 26.167969 C 17.542969 26.195312 17.566406 26.261719 17.542969 26.316406 C 17.515625 26.371094 17.449219 26.394531 17.394531 26.371094 C 16.914062 26.148438 16.363281 26.285156 16.171875 26.679688 C 16.148438 26.726562 16.128906 26.773438 16.117188 26.824219 C 16.105469 26.875 16.0625 26.910156 16.011719 26.910156 Z M 13.925781 29.265625 L 13.480469 29.265625 C 13.355469 29.265625 13.257812 29.164062 13.257812 29.042969 C 13.257812 28.921875 13.355469 28.820312 13.480469 28.820312 L 13.925781 28.820312 C 14.046875 28.820312 14.148438 28.921875 14.148438 29.042969 C 14.148438 29.164062 14.050781 29.265625 13.925781 29.265625 Z M 13.925781 29.265625 "/>
</g>
</svg>
