<?xml version="1.0" encoding="UTF-8"?>
<svg xmlns="http://www.w3.org/2000/svg" xmlns:xlink="http://www.w3.org/1999/xlink" width="37.5pt" height="37.499999pt" viewBox="0 0 37.5 37.499999" version="1.2">
<defs>
<clipPath id="clip1">
  <path d="M 0 3.234375 L 37.007812 3.234375 L 37.007812 33.707031 L 0 33.707031 Z M 0 3.234375 "/>
</clipPath>
</defs>
<g id="surface1">
<path style=" stroke:none;fill-rule:nonzero;fill:rgb(100%,100%,100%);fill-opacity:1;" d="M 32.953125 14.203125 C 33.085938 13.703125 33.15625 13.175781 33.15625 12.632812 C 33.15625 9.183594 30.304688 6.386719 26.792969 6.386719 C 25.050781 6.386719 23.476562 7.070312 22.328125 8.179688 C 21.242188 5.828125 18.828125 4.1875 16.023438 4.1875 C 12.554688 4.1875 9.679688 6.695312 9.179688 9.964844 C 8.46875 9.523438 7.625 9.269531 6.722656 9.269531 C 4.175781 9.269531 2.109375 11.296875 2.109375 13.800781 C 2.109375 15.335938 2.886719 16.691406 4.074219 17.511719 C 2.238281 18.488281 0.988281 20.394531 0.988281 22.589844 C 0.988281 25.777344 3.617188 28.359375 6.863281 28.359375 C 7.800781 28.359375 8.6875 28.140625 9.472656 27.757812 C 9.980469 30.59375 12.5 32.753906 15.535156 32.753906 C 17.984375 32.753906 20.097656 31.347656 21.089844 29.3125 C 21.964844 30.480469 23.378906 31.242188 24.972656 31.242188 C 27.636719 31.242188 29.796875 29.121094 29.796875 26.503906 C 29.796875 26.183594 29.765625 25.871094 29.703125 25.566406 C 29.941406 25.59375 30.183594 25.609375 30.425781 25.609375 C 33.789062 25.609375 36.511719 22.9375 36.511719 19.636719 C 36.511719 17.222656 35.050781 15.144531 32.953125 14.203125 "/>
<g clip-path="url(#clip1)" clip-rule="nonzero">
<path style=" stroke:none;fill-rule:nonzero;fill:rgb(72.158813%,79.998779%,84.309387%);fill-opacity:1;" d="M 16.023438 3.234375 C 12.582031 3.234375 9.546875 5.46875 8.511719 8.605469 C 7.9375 8.414062 7.335938 8.316406 6.722656 8.316406 C 3.640625 8.316406 1.136719 10.777344 1.136719 13.800781 C 1.136719 15.136719 1.636719 16.414062 2.511719 17.402344 C 0.949219 18.664062 0.0195312 20.558594 0.0195312 22.589844 C 0.0195312 26.296875 3.089844 29.3125 6.863281 29.3125 C 7.53125 29.3125 8.183594 29.21875 8.8125 29.035156 C 9.796875 31.800781 12.460938 33.707031 15.535156 33.707031 C 17.800781 33.707031 19.929688 32.625 21.257812 30.871094 C 22.292969 31.714844 23.609375 32.195312 24.972656 32.195312 C 28.152344 32.195312 30.738281 29.671875 30.769531 26.558594 C 34.5 26.382812 37.480469 23.34375 37.480469 19.636719 C 37.480469 17.191406 36.15625 14.933594 34.046875 13.691406 C 34.097656 13.34375 34.125 12.988281 34.125 12.632812 C 34.125 8.664062 30.835938 5.433594 26.792969 5.433594 C 25.277344 5.433594 23.828125 5.882812 22.609375 6.714844 C 21.164062 4.570312 18.691406 3.234375 16.023438 3.234375 Z M 16.023438 4.1875 C 18.828125 4.1875 21.242188 5.828125 22.328125 8.179688 C 23.476562 7.070312 25.050781 6.386719 26.792969 6.386719 C 30.304688 6.386719 33.15625 9.183594 33.15625 12.632812 C 33.15625 13.175781 33.085938 13.703125 32.953125 14.203125 C 35.050781 15.144531 36.511719 17.222656 36.511719 19.636719 C 36.511719 22.9375 33.789062 25.609375 30.425781 25.609375 C 30.183594 25.609375 29.941406 25.59375 29.703125 25.566406 C 29.765625 25.871094 29.796875 26.183594 29.796875 26.503906 C 29.796875 29.121094 27.636719 31.242188 24.972656 31.242188 C 23.378906 31.242188 21.964844 30.480469 21.089844 29.3125 C 20.097656 31.347656 17.984375 32.753906 15.535156 32.753906 C 12.5 32.753906 9.980469 30.59375 9.472656 27.757812 C 8.6875 28.140625 7.800781 28.359375 6.863281 28.359375 C 3.617188 28.359375 0.988281 25.777344 0.988281 22.589844 C 0.988281 20.394531 2.238281 18.488281 4.074219 17.511719 C 2.886719 16.691406 2.109375 15.335938 2.109375 13.800781 C 2.109375 11.296875 4.175781 9.269531 6.722656 9.269531 C 7.625 9.269531 8.46875 9.523438 9.179688 9.964844 C 9.679688 6.695312 12.554688 4.1875 16.023438 4.1875 "/>
</g>
</g>
</svg>
