<?xml version="1.0" encoding="UTF-8"?>
<svg xmlns="http://www.w3.org/2000/svg" xmlns:xlink="http://www.w3.org/1999/xlink" width="47.5pt" height="47.499999pt" viewBox="0 0 37.5 37.499999" version="1.2">
<defs>
<clipPath id="clip1">
  <path d="M 0 2.433594 L 37.007812 2.433594 L 37.007812 35.433594 L 0 35.433594 Z M 0 2.433594 "/>
</clipPath>
<clipPath id="clip2">
  <path d="M 0 13 L 37.007812 13 L 37.007812 30 L 0 30 Z M 0 13 "/>
</clipPath>
</defs>
<g id="surface1">
<g clip-path="url(#clip1)" clip-rule="nonzero">
<path style=" stroke:none;fill-rule:nonzero;fill:rgb(78.039551%,92.939758%,90.19928%);fill-opacity:1;" d="M 35.710938 22.226562 C 36.214844 21.207031 36.535156 20.09375 36.535156 18.890625 C 36.535156 15.832031 34.617188 13.1875 31.96875 12.167969 C 31.96875 6.789062 27.675781 2.433594 22.382812 2.433594 C 17.90625 2.433594 14.164062 5.539062 13.113281 9.757812 C 12.429688 9.523438 11.742188 9.386719 10.96875 9.386719 C 7.453125 9.386719 4.574219 12.074219 4.164062 15.550781 C 1.789062 16.0625 0.0117188 18.195312 0.0117188 20.746094 C 0.0117188 23.710938 2.339844 26.074219 5.261719 26.074219 C 5.351562 26.074219 5.441406 26.074219 5.488281 26.074219 C 5.488281 26.167969 5.488281 26.214844 5.488281 26.308594 C 5.488281 31.546875 9.6875 35.8125 14.847656 35.8125 C 17.769531 35.8125 20.417969 34.421875 22.105469 32.289062 C 23.113281 33.308594 24.480469 33.957031 26.035156 33.957031 C 28.179688 33.957031 30.003906 32.707031 30.917969 30.945312 C 31.421875 31.082031 31.921875 31.175781 32.425781 31.175781 C 35.210938 31.175781 37.445312 28.902344 37.445312 26.074219 C 37.445312 24.546875 36.761719 23.15625 35.710938 22.226562 Z M 35.710938 22.226562 "/>
</g>
<g clip-path="url(#clip2)" clip-rule="nonzero">
<path style=" stroke:none;fill-rule:nonzero;fill:rgb(100%,100%,100%);fill-opacity:1;" d="M 4.804688 15.875 L 0.238281 15.875 C 0.101562 15.875 0.0117188 15.785156 0.0117188 15.644531 C 0.0117188 15.503906 0.101562 15.414062 0.238281 15.414062 L 4.804688 15.414062 C 4.941406 15.414062 5.03125 15.503906 5.03125 15.644531 C 5.03125 15.785156 4.941406 15.875 4.804688 15.875 Z M 6.171875 15.875 L 5.714844 15.875 C 5.578125 15.875 5.488281 15.785156 5.488281 15.644531 C 5.488281 15.503906 5.578125 15.414062 5.714844 15.414062 L 6.171875 15.414062 C 6.308594 15.414062 6.402344 15.503906 6.402344 15.644531 C 6.402344 15.785156 6.308594 15.875 6.171875 15.875 Z M 8.457031 16.804688 L 4.347656 16.804688 C 4.210938 16.804688 4.117188 16.710938 4.117188 16.570312 C 4.117188 16.433594 4.210938 16.339844 4.347656 16.339844 L 8.457031 16.339844 C 8.59375 16.339844 8.683594 16.433594 8.683594 16.570312 C 8.683594 16.710938 8.59375 16.804688 8.457031 16.804688 Z M 3.433594 16.804688 L 2.976562 16.804688 C 2.839844 16.804688 2.75 16.710938 2.75 16.570312 C 2.75 16.433594 2.839844 16.339844 2.976562 16.339844 L 3.433594 16.339844 C 3.570312 16.339844 3.664062 16.433594 3.664062 16.570312 C 3.664062 16.710938 3.570312 16.804688 3.433594 16.804688 Z M 2.0625 16.804688 L 1.152344 16.804688 C 1.015625 16.804688 0.921875 16.710938 0.921875 16.570312 C 0.921875 16.433594 1.015625 16.339844 1.152344 16.339844 L 2.0625 16.339844 C 2.203125 16.339844 2.292969 16.433594 2.292969 16.570312 C 2.292969 16.710938 2.203125 16.804688 2.0625 16.804688 Z M 4.804688 17.730469 L 3.890625 17.730469 C 3.753906 17.730469 3.664062 17.636719 3.664062 17.5 C 3.664062 17.359375 3.753906 17.265625 3.890625 17.265625 L 4.804688 17.265625 C 4.941406 17.265625 5.03125 17.359375 5.03125 17.5 C 5.03125 17.636719 4.941406 17.730469 4.804688 17.730469 Z M 6.171875 13.558594 C 6.082031 13.558594 5.808594 13.558594 5.714844 13.558594 C 5.578125 13.558594 5.488281 13.652344 5.488281 13.789062 C 5.488281 13.929688 5.578125 14.023438 5.714844 14.023438 C 5.808594 14.023438 6.082031 14.023438 6.171875 14.023438 C 6.308594 14.023438 6.402344 13.929688 6.402344 13.789062 C 6.402344 13.652344 6.308594 13.558594 6.171875 13.558594 Z M 6.171875 14.484375 C 6.082031 14.484375 3.980469 14.484375 3.890625 14.484375 C 3.753906 14.484375 3.664062 14.578125 3.664062 14.71875 C 3.664062 14.855469 3.753906 14.949219 3.890625 14.949219 C 3.980469 14.949219 6.082031 14.949219 6.171875 14.949219 C 6.308594 14.949219 6.402344 14.855469 6.402344 14.71875 C 6.402344 14.578125 6.308594 14.484375 6.171875 14.484375 Z M 8.457031 15.414062 C 8.363281 15.414062 7.175781 15.414062 7.085938 15.414062 C 6.949219 15.414062 6.859375 15.503906 6.859375 15.644531 C 6.859375 15.785156 6.949219 15.875 7.085938 15.875 C 7.175781 15.875 8.363281 15.875 8.457031 15.875 C 8.59375 15.875 8.683594 15.785156 8.683594 15.644531 C 8.683594 15.503906 8.59375 15.414062 8.457031 15.414062 Z M 36.304688 27.464844 L 31.742188 27.464844 C 31.601562 27.464844 31.511719 27.375 31.511719 27.234375 C 31.511719 27.09375 31.601562 27.003906 31.742188 27.003906 L 36.304688 27.003906 C 36.441406 27.003906 36.535156 27.09375 36.535156 27.234375 C 36.535156 27.375 36.441406 27.464844 36.304688 27.464844 Z M 38.132812 27.464844 L 37.21875 27.464844 C 37.082031 27.464844 36.992188 27.375 36.992188 27.234375 C 36.992188 27.09375 37.082031 27.003906 37.21875 27.003906 L 38.132812 27.003906 C 38.269531 27.003906 38.359375 27.09375 38.359375 27.234375 C 38.359375 27.375 38.269531 27.464844 38.132812 27.464844 Z M 40.414062 28.394531 L 35.847656 28.394531 C 35.710938 28.394531 35.621094 28.300781 35.621094 28.160156 C 35.621094 28.023438 35.710938 27.929688 35.847656 27.929688 L 40.414062 27.929688 C 40.550781 27.929688 40.644531 28.023438 40.644531 28.160156 C 40.644531 28.300781 40.550781 28.394531 40.414062 28.394531 Z M 34.9375 28.394531 L 34.480469 28.394531 C 34.34375 28.394531 34.25 28.300781 34.25 28.160156 C 34.25 28.023438 34.34375 27.929688 34.480469 27.929688 L 34.9375 27.929688 C 35.074219 27.929688 35.164062 28.023438 35.164062 28.160156 C 35.164062 28.300781 35.074219 28.394531 34.9375 28.394531 Z M 33.566406 28.394531 L 32.652344 28.394531 C 32.515625 28.394531 32.425781 28.300781 32.425781 28.160156 C 32.425781 28.023438 32.515625 27.929688 32.652344 27.929688 L 33.566406 27.929688 C 33.703125 27.929688 33.792969 28.023438 33.792969 28.160156 C 33.792969 28.300781 33.65625 28.394531 33.566406 28.394531 Z M 37.675781 26.539062 L 35.394531 26.539062 C 35.253906 26.539062 35.164062 26.445312 35.164062 26.308594 C 35.164062 26.167969 35.253906 26.074219 35.394531 26.074219 L 37.675781 26.074219 C 37.8125 26.074219 37.902344 26.167969 37.902344 26.308594 C 37.902344 26.445312 37.8125 26.539062 37.675781 26.539062 Z M 36.304688 29.320312 L 35.394531 29.320312 C 35.253906 29.320312 35.164062 29.226562 35.164062 29.089844 C 35.164062 28.949219 35.253906 28.855469 35.394531 28.855469 L 36.304688 28.855469 C 36.441406 28.855469 36.535156 28.949219 36.535156 29.089844 C 36.535156 29.226562 36.441406 29.320312 36.304688 29.320312 Z M 36.304688 29.320312 "/>
</g>
<path style=" stroke:none;fill-rule:nonzero;fill:rgb(99.21875%,98.81897%,93.728638%);fill-opacity:1;" d="M 23.523438 13.328125 L 23.523438 13.558594 L 22.152344 13.558594 L 22.152344 13.328125 C 22.152344 13.328125 20.234375 13.328125 19.640625 13.328125 C 18.5 13.328125 17.585938 12.398438 17.585938 11.242188 C 17.585938 10.175781 18.410156 9.292969 19.460938 9.152344 C 19.460938 9.0625 19.414062 8.96875 19.414062 8.921875 C 19.414062 7.761719 20.328125 6.835938 21.46875 6.835938 C 22.105469 6.835938 22.699219 7.160156 23.066406 7.625 C 23.113281 6.417969 24.117188 5.445312 25.347656 5.445312 C 26.625 5.445312 27.632812 6.464844 27.632812 7.761719 C 27.632812 7.949219 27.585938 8.179688 27.539062 8.367188 C 27.8125 7.996094 28.269531 7.761719 28.773438 7.761719 C 29.59375 7.761719 30.234375 8.367188 30.371094 9.199219 C 30.460938 9.199219 30.554688 9.152344 30.597656 9.152344 C 31.742188 9.152344 32.652344 10.082031 32.652344 11.242188 C 32.652344 12.398438 31.742188 13.328125 30.597656 13.328125 C 29.457031 13.328125 26.261719 13.328125 26.261719 13.328125 Z M 23.523438 13.328125 "/>
<path style=" stroke:none;fill-rule:nonzero;fill:rgb(27.839661%,16.859436%,16.079712%);fill-opacity:1;" d="M 25.347656 5.214844 C 26.71875 5.214844 27.859375 6.371094 27.859375 7.761719 C 28.132812 7.578125 28.453125 7.53125 28.773438 7.53125 C 29.59375 7.53125 30.324219 8.132812 30.554688 8.921875 C 30.554688 8.921875 30.597656 8.921875 30.597656 8.921875 C 31.878906 8.921875 32.882812 9.941406 32.882812 11.242188 C 32.882812 12.539062 31.878906 13.558594 30.597656 13.558594 L 23.523438 13.558594 C 23.386719 13.558594 23.292969 13.464844 23.292969 13.328125 C 23.292969 13.1875 23.386719 13.09375 23.523438 13.09375 L 30.597656 13.09375 C 31.601562 13.09375 32.425781 12.261719 32.425781 11.242188 C 32.425781 10.21875 31.601562 9.386719 30.597656 9.386719 C 30.554688 9.386719 30.507812 9.386719 30.460938 9.386719 L 30.417969 9.386719 C 30.417969 9.386719 30.417969 9.386719 30.371094 9.386719 C 30.28125 9.386719 30.140625 9.292969 30.140625 9.199219 C 30.050781 8.503906 29.457031 7.996094 28.773438 7.996094 C 28.363281 7.996094 27.996094 8.179688 27.722656 8.503906 C 27.675781 8.550781 27.632812 8.597656 27.539062 8.597656 C 27.496094 8.597656 27.449219 8.597656 27.449219 8.550781 C 27.355469 8.503906 27.3125 8.414062 27.3125 8.273438 C 27.355469 8.089844 27.402344 7.902344 27.402344 7.71875 C 27.402344 6.558594 26.488281 5.632812 25.347656 5.632812 C 24.253906 5.632812 23.386719 6.511719 23.292969 7.625 C 23.292969 7.71875 23.203125 7.808594 23.15625 7.855469 C 23.15625 7.855469 23.113281 7.855469 23.066406 7.855469 C 22.972656 7.855469 22.929688 7.808594 22.882812 7.761719 C 22.519531 7.300781 22.015625 7.066406 21.46875 7.066406 C 20.464844 7.066406 19.640625 7.902344 19.640625 8.921875 C 19.640625 8.96875 19.640625 9.015625 19.640625 9.0625 L 19.640625 9.109375 C 19.640625 9.152344 19.640625 9.246094 19.597656 9.292969 C 19.550781 9.339844 19.503906 9.386719 19.460938 9.386719 C 18.5 9.480469 17.816406 10.265625 17.816406 11.242188 C 17.816406 12.261719 18.636719 13.09375 19.640625 13.09375 L 22.152344 13.09375 C 22.289062 13.09375 22.382812 13.1875 22.382812 13.328125 C 22.382812 13.464844 22.289062 13.558594 22.152344 13.558594 L 19.640625 13.558594 C 18.363281 13.558594 17.359375 12.539062 17.359375 11.242188 C 17.359375 10.128906 18.136719 9.199219 19.183594 8.96875 C 19.183594 8.96875 19.183594 8.921875 19.183594 8.921875 C 19.183594 7.625 20.191406 6.605469 21.46875 6.605469 C 22.015625 6.605469 22.519531 6.789062 22.929688 7.160156 C 23.203125 6.046875 24.160156 5.214844 25.347656 5.214844 Z M 25.347656 5.214844 "/>
<path style=" stroke:none;fill-rule:nonzero;fill:rgb(27.839661%,16.859436%,16.079712%);fill-opacity:1;" d="M 26.035156 8.457031 C 26.671875 8.457031 27.21875 8.921875 27.355469 9.523438 C 27.539062 9.433594 27.722656 9.386719 27.90625 9.386719 C 28.453125 9.386719 28.910156 9.804688 29 10.359375 C 29.09375 10.359375 29.183594 10.3125 29.273438 10.3125 C 29.960938 10.3125 30.554688 10.871094 30.597656 11.566406 C 30.597656 11.613281 30.554688 11.703125 30.507812 11.703125 C 30.460938 11.703125 30.417969 11.65625 30.417969 11.613281 C 30.371094 11.007812 29.867188 10.546875 29.320312 10.546875 C 29.230469 10.546875 29.09375 10.546875 29 10.589844 C 29 10.589844 29 10.589844 28.957031 10.589844 C 28.910156 10.589844 28.910156 10.589844 28.863281 10.546875 C 28.816406 10.546875 28.816406 10.5 28.816406 10.453125 C 28.816406 9.988281 28.453125 9.570312 27.949219 9.570312 C 27.769531 9.570312 27.539062 9.664062 27.402344 9.804688 C 27.402344 9.804688 27.355469 9.851562 27.3125 9.851562 C 27.3125 9.851562 27.265625 9.851562 27.265625 9.851562 C 27.21875 9.851562 27.21875 9.804688 27.175781 9.757812 C 27.128906 9.152344 26.625 8.691406 26.035156 8.691406 C 25.941406 8.691406 25.851562 8.691406 25.714844 8.738281 C 25.714844 8.738281 25.714844 8.738281 25.667969 8.738281 C 25.621094 8.738281 25.578125 8.691406 25.578125 8.644531 C 25.578125 8.597656 25.578125 8.503906 25.667969 8.503906 C 25.804688 8.457031 25.894531 8.457031 26.035156 8.457031 Z M 19.6875 9.152344 C 20.28125 9.152344 20.828125 9.570312 21.011719 10.175781 C 21.011719 10.21875 21.011719 10.3125 20.921875 10.3125 C 20.921875 10.3125 20.921875 10.3125 20.875 10.3125 C 20.828125 10.3125 20.78125 10.265625 20.78125 10.21875 C 20.644531 9.710938 20.191406 9.386719 19.6875 9.386719 C 19.640625 9.386719 19.597656 9.386719 19.550781 9.386719 C 19.503906 9.386719 19.460938 9.339844 19.460938 9.292969 C 19.460938 9.246094 19.503906 9.152344 19.550781 9.152344 C 19.550781 9.152344 19.640625 9.152344 19.6875 9.152344 Z M 19.6875 9.152344 "/>
<path style=" stroke:none;fill-rule:nonzero;fill:rgb(100%,100%,100%);fill-opacity:1;" d="M 12.703125 31.3125 C 11.652344 31.3125 10.832031 30.574219 10.832031 29.597656 L 10.832031 10.960938 C 10.832031 10.035156 11.652344 9.246094 12.703125 9.246094 L 21.558594 9.246094 C 22.609375 9.246094 23.429688 9.988281 23.429688 10.960938 L 23.429688 29.644531 C 23.429688 30.109375 23.25 30.527344 22.882812 30.851562 C 22.519531 31.175781 22.0625 31.359375 21.558594 31.359375 C 21.558594 31.3125 12.703125 31.3125 12.703125 31.3125 Z M 12.703125 31.3125 "/>
<path style=" stroke:none;fill-rule:nonzero;fill:rgb(27.839661%,16.859436%,16.079712%);fill-opacity:1;" d="M 21.558594 9.570312 C 22.425781 9.570312 23.113281 10.175781 23.113281 10.960938 L 23.113281 29.644531 C 23.113281 30.015625 22.972656 30.339844 22.699219 30.617188 C 22.425781 30.898438 22.015625 31.035156 21.605469 31.035156 L 12.703125 31.035156 C 11.835938 31.035156 11.148438 30.433594 11.148438 29.644531 L 11.148438 10.960938 C 11.148438 10.21875 11.835938 9.570312 12.703125 9.570312 L 21.558594 9.570312 M 21.558594 8.921875 L 12.703125 8.921875 C 11.515625 8.921875 10.511719 9.851562 10.511719 10.960938 L 10.511719 29.644531 C 10.511719 30.757812 11.515625 31.683594 12.703125 31.683594 L 21.558594 31.683594 C 22.746094 31.683594 23.75 30.757812 23.75 29.644531 L 23.75 10.960938 C 23.75 9.851562 22.746094 8.921875 21.558594 8.921875 Z M 21.558594 8.921875 "/>
<path style=" stroke:none;fill-rule:nonzero;fill:rgb(77.249146%,87.059021%,94.119263%);fill-opacity:1;" d="M 21.46875 14.53125 L 21.46875 27.464844 L 12.335938 27.464844 L 12.335938 11.703125 L 21.46875 11.703125 Z M 21.46875 14.53125 "/>
<path style=" stroke:none;fill-rule:nonzero;fill:rgb(27.839661%,16.859436%,16.079712%);fill-opacity:1;" d="M 12.566406 21.902344 C 12.429688 21.902344 12.335938 21.8125 12.335938 21.671875 L 12.335938 12.261719 C 12.335938 11.703125 12.792969 11.242188 13.296875 11.242188 L 20.964844 11.242188 C 21.511719 11.242188 21.925781 11.703125 21.925781 12.261719 C 21.925781 12.398438 21.832031 12.492188 21.695312 12.492188 C 21.558594 12.492188 21.46875 12.398438 21.46875 12.261719 C 21.46875 11.9375 21.238281 11.703125 20.964844 11.703125 L 13.296875 11.703125 C 13.023438 11.703125 12.792969 11.9375 12.792969 12.261719 L 12.792969 21.671875 C 12.792969 21.8125 12.703125 21.902344 12.566406 21.902344 Z M 20.964844 27.929688 L 13.296875 27.929688 C 12.746094 27.929688 12.335938 27.464844 12.335938 26.910156 L 12.335938 24.917969 C 12.335938 24.777344 12.429688 24.683594 12.566406 24.683594 C 12.703125 24.683594 12.792969 24.777344 12.792969 24.917969 L 12.792969 26.910156 C 12.792969 27.234375 13.023438 27.464844 13.296875 27.464844 L 20.964844 27.464844 C 21.238281 27.464844 21.46875 27.234375 21.46875 26.910156 L 21.46875 16.109375 C 21.46875 15.96875 21.558594 15.875 21.695312 15.875 C 21.832031 15.875 21.925781 15.96875 21.925781 16.109375 L 21.925781 26.910156 C 21.925781 27.464844 21.511719 27.929688 20.964844 27.929688 Z M 20.964844 27.929688 "/>
<path style=" stroke:none;fill-rule:nonzero;fill:rgb(79.60968%,78.819275%,73.728943%);fill-opacity:1;" d="M 17.128906 28.625 C 16.628906 28.625 16.21875 29.042969 16.21875 29.554688 C 16.21875 30.0625 16.628906 30.480469 17.128906 30.480469 C 17.632812 30.480469 18.042969 30.0625 18.042969 29.554688 C 18.042969 29.042969 17.632812 28.625 17.128906 28.625 Z M 17.128906 28.625 "/>
<path style=" stroke:none;fill-rule:nonzero;fill:rgb(27.839661%,16.859436%,16.079712%);fill-opacity:1;" d="M 17.128906 28.855469 C 17.496094 28.855469 17.816406 29.183594 17.816406 29.554688 C 17.816406 29.921875 17.496094 30.25 17.128906 30.25 C 16.765625 30.25 16.445312 29.921875 16.445312 29.554688 C 16.445312 29.183594 16.765625 28.855469 17.128906 28.855469 M 17.128906 28.394531 C 16.492188 28.394531 15.988281 28.902344 15.988281 29.554688 C 15.988281 30.203125 16.492188 30.710938 17.128906 30.710938 C 17.769531 30.710938 18.273438 30.203125 18.273438 29.554688 C 18.273438 28.902344 17.769531 28.394531 17.128906 28.394531 Z M 17.128906 28.394531 "/>
<path style=" stroke:none;fill-rule:nonzero;fill:rgb(27.839661%,16.859436%,16.079712%);fill-opacity:1;" d="M 21.695312 15.414062 C 21.558594 15.414062 21.46875 15.320312 21.46875 15.179688 L 21.46875 13.789062 C 21.46875 13.652344 21.558594 13.558594 21.695312 13.558594 C 21.832031 13.558594 21.925781 13.652344 21.925781 13.789062 L 21.925781 15.179688 C 21.925781 15.320312 21.832031 15.414062 21.695312 15.414062 Z M 21.695312 15.414062 "/>
<path style=" stroke:none;fill-rule:nonzero;fill:rgb(27.839661%,16.859436%,16.079712%);fill-opacity:1;" d="M 12.0625 24.175781 C 11.925781 24.175781 11.835938 24.082031 11.835938 23.941406 L 11.835938 22.738281 C 11.835938 22.597656 11.925781 22.507812 12.0625 22.507812 C 12.199219 22.507812 12.292969 22.597656 12.292969 22.738281 L 12.292969 23.941406 C 12.292969 24.082031 12.199219 24.175781 12.0625 24.175781 Z M 12.0625 24.175781 "/>
<path style=" stroke:none;fill-rule:nonzero;fill:rgb(99.21875%,98.81897%,93.728638%);fill-opacity:1;" d="M 12.109375 25.84375 C 12.109375 25.84375 12.839844 25.84375 13.707031 25.84375 C 14.574219 25.84375 15.304688 25.101562 15.304688 24.222656 C 15.304688 23.386719 14.710938 22.738281 13.890625 22.597656 C 13.890625 22.507812 13.933594 22.414062 13.933594 22.367188 C 13.933594 21.484375 13.203125 20.746094 12.335938 20.746094 C 11.878906 20.746094 11.421875 20.976562 11.148438 21.300781 C 10.96875 20.464844 10.238281 19.816406 9.371094 19.816406 C 8.363281 19.816406 7.542969 20.652344 7.542969 21.671875 C 7.542969 21.765625 7.542969 21.855469 7.589844 21.949219 C 7.40625 21.8125 7.132812 21.671875 6.859375 21.671875 C 6.308594 21.671875 5.855469 22.089844 5.714844 22.644531 C 5.625 22.644531 5.535156 22.597656 5.488281 22.597656 C 4.621094 22.597656 3.890625 23.339844 3.890625 24.222656 C 3.890625 25.101562 4.621094 25.84375 5.488281 25.84375 C 6.355469 25.84375 8.914062 25.84375 8.914062 25.84375 L 8.914062 26.074219 L 12.109375 26.074219 Z M 12.109375 25.84375 "/>
<path style=" stroke:none;fill-rule:nonzero;fill:rgb(27.839661%,16.859436%,16.079712%);fill-opacity:1;" d="M 12.882812 23.757812 C 12.839844 23.757812 12.792969 23.710938 12.792969 23.664062 C 12.792969 23.109375 13.25 22.644531 13.796875 22.644531 C 13.796875 22.644531 14.117188 22.644531 14.34375 22.691406 C 14.390625 22.691406 14.4375 22.785156 14.4375 22.832031 C 14.4375 22.875 14.34375 22.921875 14.300781 22.921875 C 14.117188 22.832031 13.796875 22.832031 13.796875 22.832031 C 13.386719 22.832031 13.023438 23.203125 13.023438 23.617188 C 13.023438 23.710938 12.976562 23.757812 12.882812 23.757812 Z M 9.824219 25.613281 C 9.6875 25.613281 9.597656 25.703125 9.597656 25.84375 C 9.597656 25.984375 9.6875 26.074219 9.824219 26.074219 C 9.960938 26.074219 10.054688 25.984375 10.054688 25.84375 C 10.054688 25.703125 9.960938 25.613281 9.824219 25.613281 Z M 9.824219 25.613281 "/>
<path style=" stroke:none;fill-rule:nonzero;fill:rgb(27.839661%,16.859436%,16.079712%);fill-opacity:1;" d="M 13.707031 26.074219 L 12.109375 26.074219 C 11.972656 26.074219 11.878906 25.984375 11.878906 25.84375 C 11.878906 25.703125 11.972656 25.613281 12.109375 25.613281 L 13.707031 25.613281 C 14.484375 25.613281 15.074219 25.007812 15.074219 24.222656 C 15.074219 23.527344 14.574219 22.921875 13.890625 22.832031 C 13.84375 22.832031 13.753906 22.785156 13.753906 22.738281 C 13.753906 22.691406 13.707031 22.644531 13.707031 22.550781 C 13.707031 22.460938 13.707031 22.414062 13.707031 22.320312 C 13.707031 21.53125 13.113281 20.929688 12.335938 20.929688 C 11.972656 20.929688 11.605469 21.113281 11.332031 21.394531 C 11.285156 21.441406 11.195312 21.484375 11.105469 21.441406 C 11.011719 21.441406 10.96875 21.347656 10.921875 21.253906 C 10.785156 20.511719 10.101562 19.957031 9.371094 19.957031 C 8.5 19.957031 7.769531 20.699219 7.769531 21.578125 C 7.769531 21.625 7.769531 21.71875 7.769531 21.765625 C 7.769531 21.855469 7.726562 21.949219 7.679688 21.996094 C 7.632812 22.042969 7.496094 22.042969 7.40625 21.996094 C 7.269531 21.996094 7.039062 21.902344 6.859375 21.902344 C 6.402344 21.902344 6.035156 22.226562 5.945312 22.644531 C 5.945312 22.785156 5.808594 22.832031 5.671875 22.832031 C 5.578125 22.832031 5.535156 22.832031 5.441406 22.832031 C 4.667969 22.832031 4.074219 23.433594 4.074219 24.222656 C 4.074219 25.007812 4.667969 25.613281 5.441406 25.613281 L 8.867188 25.613281 C 9.003906 25.613281 9.09375 25.703125 9.09375 25.84375 C 9.09375 25.984375 9.050781 26.074219 8.914062 26.074219 L 5.488281 26.074219 C 4.484375 26.074219 3.664062 25.242188 3.664062 24.222656 C 3.664062 23.203125 4.484375 22.367188 5.488281 22.367188 C 5.535156 22.367188 5.535156 22.367188 5.578125 22.367188 C 5.761719 21.8125 6.265625 21.441406 6.859375 21.441406 C 6.996094 21.441406 7.175781 21.484375 7.316406 21.53125 C 7.40625 20.464844 8.273438 19.585938 9.371094 19.585938 C 10.191406 19.585938 10.96875 20.09375 11.285156 20.882812 C 11.605469 20.652344 11.972656 20.511719 12.335938 20.511719 C 13.339844 20.511719 14.164062 21.347656 14.164062 22.367188 C 14.164062 22.367188 14.164062 22.414062 14.164062 22.414062 C 14.9375 22.597656 15.53125 23.339844 15.53125 24.222656 C 15.53125 25.242188 14.710938 26.074219 13.707031 26.074219 Z M 13.707031 26.074219 "/>
<path style=" stroke:none;fill-rule:nonzero;fill:rgb(27.839661%,16.859436%,16.079712%);fill-opacity:1;" d="M 11.195312 25.613281 C 11.105469 25.613281 10.832031 25.613281 10.738281 25.613281 C 10.601562 25.613281 10.511719 25.703125 10.511719 25.84375 C 10.511719 25.984375 10.601562 26.074219 10.738281 26.074219 C 10.832031 26.074219 11.105469 26.074219 11.195312 26.074219 C 11.332031 26.074219 11.421875 25.984375 11.421875 25.84375 C 11.421875 25.703125 11.332031 25.613281 11.195312 25.613281 Z M 11.195312 25.613281 "/>
<path style=" stroke:none;fill-rule:nonzero;fill:rgb(95.289612%,49.409485%,59.609985%);fill-opacity:1;" d="M 15.304688 13.328125 C 14.800781 13.328125 14.390625 13.742188 14.390625 14.253906 C 14.390625 14.765625 14.800781 15.179688 15.304688 15.179688 C 15.804688 15.179688 16.21875 14.765625 16.21875 14.253906 C 16.21875 13.742188 15.804688 13.328125 15.304688 13.328125 Z M 15.304688 13.328125 "/>
<path style=" stroke:none;fill-rule:nonzero;fill:rgb(27.839661%,16.859436%,16.079712%);fill-opacity:1;" d="M 15.304688 15.320312 C 14.757812 15.320312 14.300781 14.855469 14.300781 14.300781 C 14.300781 13.742188 14.757812 13.28125 15.304688 13.28125 C 15.851562 13.28125 16.308594 13.742188 16.308594 14.300781 C 16.308594 14.855469 15.851562 15.320312 15.304688 15.320312 Z M 15.304688 13.464844 C 14.847656 13.464844 14.484375 13.835938 14.484375 14.300781 C 14.484375 14.765625 14.847656 15.132812 15.304688 15.132812 C 15.761719 15.132812 16.125 14.765625 16.125 14.300781 C 16.125 13.835938 15.761719 13.464844 15.304688 13.464844 Z M 15.304688 13.464844 "/>
<path style=" stroke:none;fill-rule:nonzero;fill:rgb(32.159424%,74.899292%,63.139343%);fill-opacity:1;" d="M 18.957031 13.328125 C 18.453125 13.328125 18.042969 13.742188 18.042969 14.253906 C 18.042969 14.765625 18.453125 15.179688 18.957031 15.179688 C 19.460938 15.179688 19.871094 14.765625 19.871094 14.253906 C 19.871094 13.742188 19.460938 13.328125 18.957031 13.328125 Z M 18.957031 13.328125 "/>
<path style=" stroke:none;fill-rule:nonzero;fill:rgb(27.839661%,16.859436%,16.079712%);fill-opacity:1;" d="M 18.957031 15.320312 C 18.410156 15.320312 17.953125 14.855469 17.953125 14.300781 C 17.953125 13.742188 18.410156 13.28125 18.957031 13.28125 C 19.503906 13.28125 19.960938 13.742188 19.960938 14.300781 C 19.960938 14.855469 19.503906 15.320312 18.957031 15.320312 Z M 18.957031 13.464844 C 18.5 13.464844 18.136719 13.835938 18.136719 14.300781 C 18.136719 14.765625 18.5 15.132812 18.957031 15.132812 C 19.414062 15.132812 19.777344 14.765625 19.777344 14.300781 C 19.777344 13.835938 19.414062 13.464844 18.957031 13.464844 Z M 18.957031 13.464844 "/>
<path style=" stroke:none;fill-rule:nonzero;fill:rgb(98.81897%,72.938538%,49.798584%);fill-opacity:1;" d="M 15.304688 17.035156 C 14.800781 17.035156 14.390625 17.453125 14.390625 17.960938 C 14.390625 18.472656 14.800781 18.890625 15.304688 18.890625 C 15.804688 18.890625 16.21875 18.472656 16.21875 17.960938 C 16.21875 17.453125 15.804688 17.035156 15.304688 17.035156 Z M 15.304688 17.035156 "/>
<path style=" stroke:none;fill-rule:nonzero;fill:rgb(27.839661%,16.859436%,16.079712%);fill-opacity:1;" d="M 15.304688 19.027344 C 14.757812 19.027344 14.300781 18.566406 14.300781 18.007812 C 14.300781 17.453125 14.757812 16.988281 15.304688 16.988281 C 15.851562 16.988281 16.308594 17.453125 16.308594 18.007812 C 16.308594 18.566406 15.851562 19.027344 15.304688 19.027344 Z M 15.304688 17.175781 C 14.847656 17.175781 14.484375 17.546875 14.484375 18.007812 C 14.484375 18.472656 14.847656 18.84375 15.304688 18.84375 C 15.761719 18.84375 16.125 18.472656 16.125 18.007812 C 16.125 17.546875 15.761719 17.175781 15.304688 17.175781 Z M 15.304688 17.175781 "/>
<path style=" stroke:none;fill-rule:nonzero;fill:rgb(63.529968%,63.529968%,79.998779%);fill-opacity:1;" d="M 18.957031 17.035156 C 18.453125 17.035156 18.042969 17.453125 18.042969 17.960938 C 18.042969 18.472656 18.453125 18.890625 18.957031 18.890625 C 19.460938 18.890625 19.871094 18.472656 19.871094 17.960938 C 19.871094 17.453125 19.460938 17.035156 18.957031 17.035156 Z M 18.957031 17.035156 "/>
<path style=" stroke:none;fill-rule:nonzero;fill:rgb(27.839661%,16.859436%,16.079712%);fill-opacity:1;" d="M 18.957031 19.027344 C 18.410156 19.027344 17.953125 18.566406 17.953125 18.007812 C 17.953125 17.453125 18.410156 16.988281 18.957031 16.988281 C 19.503906 16.988281 19.960938 17.453125 19.960938 18.007812 C 19.960938 18.566406 19.503906 19.027344 18.957031 19.027344 Z M 18.957031 17.175781 C 18.5 17.175781 18.136719 17.546875 18.136719 18.007812 C 18.136719 18.472656 18.5 18.84375 18.957031 18.84375 C 19.414062 18.84375 19.777344 18.472656 19.777344 18.007812 C 19.777344 17.546875 19.414062 17.175781 18.957031 17.175781 Z M 18.957031 17.175781 "/>
</g>
</svg>
