<?xml version="1.0" encoding="UTF-8"?>
<svg xmlns="http://www.w3.org/2000/svg" xmlns:xlink="http://www.w3.org/1999/xlink" width="37.5pt" height="37.499999pt" viewBox="0 0 37.5 37.499999" version="1.2">
<defs>
<clipPath id="clip1">
  <path d="M 0 2.039062 L 37.007812 2.039062 L 37.007812 35 L 0 35 Z M 0 2.039062 "/>
</clipPath>
</defs>
<g id="surface1">
<g clip-path="url(#clip1)" clip-rule="nonzero">
<path style=" stroke:none;fill-rule:nonzero;fill:rgb(97.24884%,86.268616%,81.17981%);fill-opacity:1;" d="M 35.925781 21.734375 C 36.058594 21.460938 36.195312 21.140625 36.285156 20.867188 C 37.453125 17.324219 35.699219 13.09375 31.917969 12.09375 C 31.511719 6.914062 27.910156 3.367188 23.859375 2.777344 C 19.222656 2.09375 14.945312 5.046875 13.503906 9.820312 C 11.792969 9.230469 10.128906 9.277344 8.554688 10.230469 C 7.832031 10.550781 7.203125 11.050781 6.617188 11.6875 C 5.761719 12.640625 5.222656 13.824219 4.953125 15.09375 C 4.636719 15.140625 4.277344 15.1875 3.960938 15.324219 C 2.160156 15.960938 0.992188 17.324219 0.675781 19.367188 C 0.496094 20.640625 0.855469 21.914062 1.082031 22.414062 C 1.9375 24.460938 3.960938 25.597656 6.03125 25.277344 C 6.121094 25.277344 6.300781 25.324219 6.390625 25.371094 C 6.484375 28.597656 8.058594 31.460938 10.398438 33.097656 C 14.136719 35.734375 18.953125 34.914062 22.015625 31.324219 C 23.320312 32.6875 24.851562 33.324219 26.695312 33.097656 C 28.496094 32.871094 29.890625 31.871094 30.925781 30.234375 C 31.421875 30.371094 31.871094 30.550781 32.324219 30.597656 C 34.125 30.777344 35.609375 30.050781 36.691406 28.414062 C 36.734375 28.371094 36.78125 28.324219 36.824219 28.277344 C 36.960938 27.914062 37.140625 27.550781 37.273438 27.1875 C 37.363281 26.640625 37.453125 26.097656 37.453125 25.550781 C 37.5 23.960938 36.914062 22.597656 35.925781 21.734375 Z M 35.925781 21.734375 "/>
</g>
<path style=" stroke:none;fill-rule:nonzero;fill:rgb(99.21875%,98.81897%,93.728638%);fill-opacity:1;" d="M 15.261719 12.09375 C 15.261719 12.09375 20.527344 12.09375 20.574219 12.09375 C 21.789062 12.09375 22.777344 11.09375 22.777344 9.867188 C 22.777344 8.777344 22.015625 7.914062 21.023438 7.683594 C 21.023438 7.59375 21.023438 7.503906 21.023438 7.414062 C 21.023438 6.140625 19.988281 5.09375 18.726562 5.09375 C 17.960938 5.09375 17.332031 5.457031 16.925781 6.003906 C 16.835938 4.59375 15.578125 3.503906 14.089844 3.683594 C 13.011719 3.820312 12.15625 4.640625 11.929688 5.730469 C 11.882812 6.09375 11.882812 6.414062 11.929688 6.730469 C 11.660156 6.414062 11.253906 6.230469 10.757812 6.230469 C 9.902344 6.230469 9.230469 6.867188 9.183594 7.730469 C 8.824219 7.640625 8.375 7.640625 7.96875 7.820312 C 7.15625 8.140625 6.574219 8.914062 6.527344 9.820312 C 6.484375 11.09375 7.472656 12.140625 8.734375 12.140625 C 8.824219 12.140625 9.136719 12.140625 9.230469 12.140625 L 13.820312 12.140625 "/>
<path style=" stroke:none;fill-rule:nonzero;fill:rgb(27.839661%,16.859436%,16.079712%);fill-opacity:1;" d="M 20.574219 12.324219 L 15.261719 12.324219 C 15.125 12.324219 15.035156 12.230469 15.035156 12.09375 C 15.035156 11.957031 15.125 11.867188 15.261719 11.867188 L 20.574219 11.867188 C 21.652344 11.867188 22.554688 10.957031 22.554688 9.867188 C 22.554688 8.914062 21.878906 8.09375 20.976562 7.914062 C 20.84375 7.867188 20.796875 7.777344 20.796875 7.640625 C 20.796875 7.550781 20.796875 7.457031 20.796875 7.367188 C 20.796875 6.230469 19.898438 5.277344 18.726562 5.277344 C 18.097656 5.277344 17.46875 5.59375 17.105469 6.09375 C 17.0625 6.183594 16.972656 6.183594 16.882812 6.183594 C 16.792969 6.140625 16.746094 6.09375 16.703125 6.003906 C 16.65625 5.367188 16.339844 4.777344 15.890625 4.414062 C 15.394531 4.003906 14.765625 3.820312 14.136719 3.914062 C 13.144531 4.046875 12.335938 4.777344 12.15625 5.777344 C 12.109375 6.09375 12.109375 6.367188 12.15625 6.683594 C 12.15625 6.777344 12.109375 6.867188 12.019531 6.914062 C 11.929688 6.957031 11.839844 6.957031 11.75 6.867188 C 11.480469 6.59375 11.121094 6.414062 10.757812 6.414062 C 10.039062 6.414062 9.453125 6.957031 9.410156 7.683594 C 9.410156 7.730469 9.363281 7.820312 9.320312 7.867188 C 9.273438 7.914062 9.183594 7.914062 9.136719 7.914062 C 8.777344 7.820312 8.417969 7.867188 8.058594 8.003906 C 7.292969 8.277344 6.796875 9.003906 6.753906 9.777344 C 6.753906 10.320312 6.933594 10.867188 7.292969 11.230469 C 7.652344 11.640625 8.191406 11.824219 8.734375 11.824219 L 13.820312 11.824219 C 13.957031 11.824219 14.046875 11.914062 14.046875 12.050781 C 14.046875 12.1875 13.957031 12.277344 13.820312 12.277344 L 8.777344 12.277344 C 8.101562 12.277344 7.472656 12.003906 7.023438 11.503906 C 6.574219 11.003906 6.300781 10.367188 6.347656 9.6875 C 6.390625 8.730469 7.023438 7.820312 7.921875 7.503906 C 8.285156 7.367188 8.644531 7.320312 9.046875 7.367188 C 9.230469 6.550781 9.949219 5.914062 10.804688 5.914062 C 11.121094 5.914062 11.433594 6.003906 11.660156 6.140625 C 11.660156 5.957031 11.660156 5.777344 11.703125 5.59375 C 11.929688 4.414062 12.875 3.503906 14.046875 3.367188 C 14.8125 3.277344 15.53125 3.503906 16.117188 3.957031 C 16.566406 4.320312 16.882812 4.867188 17.015625 5.414062 C 17.46875 5.003906 18.050781 4.777344 18.683594 4.777344 C 20.078125 4.777344 21.203125 5.914062 21.203125 7.320312 C 21.203125 7.367188 21.203125 7.414062 21.203125 7.414062 C 22.238281 7.730469 22.914062 8.6875 22.914062 9.777344 C 23.003906 11.230469 21.921875 12.324219 20.574219 12.324219 Z M 20.574219 12.324219 "/>
<path style=" stroke:none;fill-rule:nonzero;fill:rgb(99.21875%,98.81897%,93.728638%);fill-opacity:1;" d="M 14 7.230469 C 13.191406 7.183594 12.46875 7.730469 12.425781 8.503906 C 12.425781 8.59375 12.425781 8.6875 12.425781 8.777344 C 12.289062 8.59375 12.019531 8.457031 11.75 8.457031 C 11.253906 8.414062 10.847656 8.730469 10.757812 9.1875 C 10.667969 9.140625 10.578125 9.140625 10.488281 9.140625 C 9.769531 9.09375 9.183594 9.59375 9.136719 10.230469 "/>
<path style=" stroke:none;fill-rule:nonzero;fill:rgb(27.839661%,16.859436%,16.079712%);fill-opacity:1;" d="M 9.183594 10.367188 C 9.09375 10.367188 9.046875 10.320312 9.046875 10.230469 C 9.09375 9.503906 9.769531 8.957031 10.535156 9.003906 C 10.578125 9.003906 10.667969 9.003906 10.714844 9.050781 C 10.847656 8.59375 11.300781 8.320312 11.792969 8.320312 C 11.976562 8.320312 12.15625 8.414062 12.335938 8.503906 C 12.335938 8.503906 12.335938 8.503906 12.335938 8.457031 C 12.378906 7.640625 13.144531 7.003906 14 7.09375 C 14.046875 7.09375 14.089844 7.140625 14.089844 7.230469 C 14.089844 7.320312 14.046875 7.367188 13.957031 7.320312 C 13.191406 7.277344 12.558594 7.777344 12.515625 8.503906 C 12.515625 8.59375 12.515625 8.6875 12.515625 8.777344 C 12.515625 8.820312 12.515625 8.867188 12.46875 8.914062 C 12.425781 8.957031 12.378906 8.914062 12.335938 8.867188 C 12.199219 8.6875 11.976562 8.59375 11.75 8.59375 C 11.300781 8.59375 10.9375 8.867188 10.894531 9.230469 C 10.894531 9.277344 10.894531 9.277344 10.847656 9.320312 C 10.804688 9.320312 10.804688 9.367188 10.757812 9.320312 C 10.667969 9.277344 10.578125 9.277344 10.488281 9.277344 C 9.902344 9.1875 9.320312 9.640625 9.273438 10.230469 C 9.273438 10.320312 9.230469 10.367188 9.183594 10.367188 Z M 9.183594 10.367188 "/>
<path style=" stroke:none;fill-rule:nonzero;fill:rgb(99.21875%,98.81897%,93.728638%);fill-opacity:1;" d="M 21.472656 7.957031 C 20.707031 7.59375 19.808594 7.867188 19.492188 8.550781 C 19.449219 8.640625 19.402344 8.730469 19.402344 8.820312 "/>
<path style=" stroke:none;fill-rule:nonzero;fill:rgb(27.839661%,16.859436%,16.079712%);fill-opacity:1;" d="M 19.402344 8.914062 C 19.3125 8.914062 19.269531 8.820312 19.3125 8.777344 C 19.3125 8.6875 19.359375 8.59375 19.402344 8.503906 C 19.761719 7.777344 20.707031 7.503906 21.519531 7.867188 C 21.5625 7.914062 21.609375 7.957031 21.5625 8.003906 C 21.519531 8.050781 21.472656 8.09375 21.429688 8.050781 C 20.707031 7.730469 19.898438 7.957031 19.582031 8.550781 C 19.539062 8.640625 19.539062 8.6875 19.492188 8.777344 C 19.492188 8.867188 19.449219 8.914062 19.402344 8.914062 Z M 19.402344 8.914062 "/>
<path style=" stroke:none;fill-rule:nonzero;fill:rgb(100%,100%,100%);fill-opacity:1;" d="M 4.726562 22.367188 L 0.226562 22.367188 C 0.0898438 22.367188 0 22.277344 0 22.140625 C 0 22.003906 0.0898438 21.914062 0.226562 21.914062 L 4.726562 21.914062 C 4.863281 21.914062 4.953125 22.003906 4.953125 22.140625 C 4.953125 22.277344 4.863281 22.367188 4.726562 22.367188 Z M 6.257812 22.140625 C 6.257812 22.003906 6.167969 21.914062 6.03125 21.914062 L 5.402344 21.914062 C 5.265625 21.914062 5.175781 22.003906 5.175781 22.140625 C 5.175781 22.277344 5.265625 22.367188 5.402344 22.367188 L 6.03125 22.367188 C 6.167969 22.367188 6.257812 22.277344 6.257812 22.140625 Z M 8.058594 22.140625 C 8.058594 22.003906 7.96875 21.914062 7.832031 21.914062 L 6.707031 21.914062 C 6.574219 21.914062 6.484375 22.003906 6.484375 22.140625 C 6.484375 22.277344 6.574219 22.367188 6.707031 22.367188 L 7.832031 22.367188 C 7.96875 22.367188 8.058594 22.277344 8.058594 22.140625 Z M 8.058594 23.050781 C 8.058594 22.914062 7.96875 22.824219 7.832031 22.824219 L 3.511719 22.824219 C 3.375 22.824219 3.285156 22.914062 3.285156 23.050781 C 3.285156 23.1875 3.375 23.277344 3.511719 23.277344 L 7.832031 23.277344 C 7.96875 23.277344 8.058594 23.1875 8.058594 23.050781 Z M 2.972656 23.050781 C 2.972656 22.914062 2.882812 22.824219 2.746094 22.824219 L 2.476562 22.824219 C 2.339844 22.824219 2.25 22.914062 2.25 23.050781 C 2.25 23.1875 2.339844 23.277344 2.476562 23.277344 L 2.746094 23.277344 C 2.882812 23.277344 2.972656 23.1875 2.972656 23.050781 Z M 1.890625 23.050781 C 1.890625 22.914062 1.800781 22.824219 1.664062 22.824219 L 1.035156 22.824219 C 0.898438 22.824219 0.808594 22.914062 0.808594 23.050781 C 0.808594 23.1875 0.898438 23.277344 1.035156 23.277344 L 1.710938 23.277344 C 1.800781 23.277344 1.890625 23.1875 1.890625 23.050781 Z M 5.988281 21.234375 C 5.988281 21.097656 5.898438 21.003906 5.761719 21.003906 L 3.511719 21.003906 C 3.375 21.003906 3.285156 21.097656 3.285156 21.234375 C 3.285156 21.367188 3.375 21.460938 3.511719 21.460938 L 5.761719 21.460938 C 5.898438 21.460938 5.988281 21.367188 5.988281 21.234375 Z M 5.988281 20.324219 C 5.988281 20.1875 5.898438 20.097656 5.761719 20.097656 L 5.222656 20.097656 C 5.085938 20.097656 4.996094 20.1875 4.996094 20.324219 C 4.996094 20.460938 5.085938 20.550781 5.222656 20.550781 L 5.808594 20.550781 C 5.898438 20.550781 5.988281 20.460938 5.988281 20.324219 Z M 4.546875 23.960938 C 4.546875 23.824219 4.457031 23.734375 4.320312 23.734375 L 3.511719 23.734375 C 3.375 23.734375 3.285156 23.824219 3.285156 23.960938 C 3.285156 24.097656 3.375 24.1875 3.511719 24.1875 L 4.320312 24.1875 C 4.457031 24.1875 4.546875 24.097656 4.546875 23.960938 Z M 4.546875 23.960938 "/>
<path style=" stroke:none;fill-rule:nonzero;fill:rgb(100%,100%,100%);fill-opacity:1;" d="M 28.945312 7.820312 L 24.445312 7.820312 C 24.308594 7.820312 24.21875 7.730469 24.21875 7.59375 C 24.21875 7.457031 24.308594 7.367188 24.445312 7.367188 L 28.945312 7.367188 C 29.082031 7.367188 29.171875 7.457031 29.171875 7.59375 C 29.171875 7.730469 29.082031 7.820312 28.945312 7.820312 Z M 30.476562 7.59375 C 30.476562 7.457031 30.386719 7.367188 30.253906 7.367188 L 29.621094 7.367188 C 29.488281 7.367188 29.398438 7.457031 29.398438 7.59375 C 29.398438 7.730469 29.488281 7.820312 29.621094 7.820312 L 30.253906 7.820312 C 30.386719 7.820312 30.476562 7.730469 30.476562 7.59375 Z M 32.324219 7.59375 C 32.324219 7.457031 32.234375 7.367188 32.097656 7.367188 L 30.972656 7.367188 C 30.835938 7.367188 30.746094 7.457031 30.746094 7.59375 C 30.746094 7.730469 30.835938 7.820312 30.972656 7.820312 L 32.097656 7.820312 C 32.234375 7.820312 32.324219 7.730469 32.324219 7.59375 Z M 31.421875 5.777344 C 31.421875 5.640625 31.332031 5.550781 31.199219 5.550781 L 26.832031 5.550781 C 26.695312 5.550781 26.605469 5.640625 26.605469 5.777344 C 26.605469 5.914062 26.742188 6.003906 26.832031 6.003906 L 31.152344 6.003906 C 31.289062 6.003906 31.421875 5.914062 31.421875 5.777344 Z M 26.289062 5.777344 C 26.289062 5.640625 26.199219 5.550781 26.066406 5.550781 L 25.796875 5.550781 C 25.660156 5.550781 25.570312 5.640625 25.570312 5.777344 C 25.570312 5.914062 25.660156 6.003906 25.796875 6.003906 L 26.066406 6.003906 C 26.199219 6.003906 26.289062 5.914062 26.289062 5.777344 Z M 25.210938 5.777344 C 25.210938 5.640625 25.121094 5.550781 24.984375 5.550781 L 24.308594 5.550781 C 24.175781 5.550781 24.085938 5.640625 24.085938 5.777344 C 24.085938 5.914062 24.175781 6.003906 24.308594 6.003906 L 24.984375 6.003906 C 25.121094 6.003906 25.210938 5.914062 25.210938 5.777344 Z M 30.253906 6.683594 C 30.253906 6.550781 30.160156 6.457031 30.027344 6.457031 L 27.777344 6.457031 C 27.640625 6.457031 27.550781 6.550781 27.550781 6.683594 C 27.550781 6.820312 27.640625 6.914062 27.777344 6.914062 L 30.027344 6.914062 C 30.160156 6.914062 30.253906 6.820312 30.253906 6.683594 Z M 30.253906 5.777344 C 30.253906 5.640625 30.160156 5.550781 30.027344 5.550781 L 29.441406 5.550781 C 29.308594 5.550781 29.214844 5.640625 29.214844 5.777344 C 29.214844 5.914062 29.308594 6.003906 29.441406 6.003906 L 30.027344 6.003906 C 30.160156 6.003906 30.253906 5.914062 30.253906 5.777344 Z M 27.324219 6.683594 C 27.324219 6.550781 27.234375 6.457031 27.101562 6.457031 L 26.289062 6.457031 C 26.15625 6.457031 26.066406 6.550781 26.066406 6.683594 C 26.066406 6.820312 26.15625 6.914062 26.289062 6.914062 L 27.101562 6.914062 C 27.234375 6.914062 27.324219 6.820312 27.324219 6.683594 Z M 27.324219 6.683594 "/>
<path style=" stroke:none;fill-rule:nonzero;fill:rgb(46.669006%,79.60968%,82.348633%);fill-opacity:1;" d="M 20.078125 25.140625 C 13.414062 25.140625 8.375 22.777344 8.375 19.640625 C 8.375 16.503906 13.414062 14.140625 20.078125 14.140625 C 26.742188 14.140625 31.78125 16.503906 31.78125 19.640625 C 31.78125 22.777344 26.742188 25.140625 20.078125 25.140625 Z M 20.078125 15.777344 C 14.089844 15.777344 9.949219 17.824219 9.949219 19.640625 C 9.949219 21.460938 14.136719 23.503906 20.078125 23.503906 C 26.019531 23.503906 30.207031 21.460938 30.207031 19.640625 C 30.207031 17.824219 26.066406 15.777344 20.078125 15.777344 Z M 20.078125 15.777344 "/>
<path style=" stroke:none;fill-rule:nonzero;fill:rgb(27.839661%,16.859436%,16.079712%);fill-opacity:1;" d="M 20.078125 25.460938 C 13.234375 25.460938 8.058594 22.960938 8.058594 19.640625 C 8.058594 16.324219 13.234375 13.824219 20.078125 13.824219 C 26.921875 13.824219 32.097656 16.324219 32.097656 19.640625 C 32.097656 22.960938 26.921875 25.460938 20.078125 25.460938 Z M 20.078125 14.457031 C 13.683594 14.457031 8.6875 16.730469 8.6875 19.640625 C 8.6875 22.550781 13.683594 24.824219 20.078125 24.824219 C 26.46875 24.824219 31.46875 22.550781 31.46875 19.640625 C 31.46875 16.730469 26.46875 14.457031 20.078125 14.457031 Z M 20.078125 23.824219 C 13.820312 23.824219 9.632812 21.640625 9.632812 19.640625 C 9.632812 17.640625 13.820312 15.460938 20.078125 15.460938 C 26.335938 15.460938 30.523438 17.640625 30.523438 19.640625 C 30.523438 21.640625 26.335938 23.824219 20.078125 23.824219 Z M 20.078125 16.09375 C 14 16.09375 10.265625 18.140625 10.265625 19.640625 C 10.265625 21.140625 14 23.1875 20.078125 23.1875 C 26.15625 23.1875 29.890625 21.140625 29.890625 19.640625 C 29.890625 18.140625 26.15625 16.09375 20.078125 16.09375 Z M 20.078125 16.09375 "/>
<path style=" stroke:none;fill-rule:nonzero;fill:rgb(46.669006%,79.60968%,82.348633%);fill-opacity:1;" d="M 15.710938 30.277344 C 15.171875 30.277344 14.722656 30.144531 14.269531 29.914062 C 11.703125 28.371094 12.246094 22.824219 15.578125 17.003906 C 17.871094 12.914062 20.976562 9.820312 23.453125 9.1875 C 24.355469 8.957031 25.210938 9.003906 25.886719 9.414062 C 28.453125 10.914062 27.910156 16.460938 24.578125 22.324219 C 22.285156 26.414062 19.175781 29.507812 16.703125 30.144531 C 16.339844 30.234375 16.027344 30.277344 15.710938 30.277344 Z M 24.445312 10.59375 C 24.265625 10.59375 24.039062 10.640625 23.859375 10.6875 C 21.789062 11.230469 18.996094 14.09375 16.925781 17.777344 C 14.046875 22.867188 13.550781 27.6875 15.082031 28.550781 C 15.394531 28.734375 15.800781 28.777344 16.339844 28.640625 C 18.414062 28.097656 21.203125 25.234375 23.273438 21.550781 C 26.15625 16.460938 26.652344 11.640625 25.121094 10.777344 C 24.941406 10.640625 24.714844 10.59375 24.445312 10.59375 Z M 24.445312 10.59375 "/>
<path style=" stroke:none;fill-rule:nonzero;fill:rgb(27.839661%,16.859436%,16.079712%);fill-opacity:1;" d="M 15.710938 30.597656 C 15.125 30.597656 14.585938 30.460938 14.136719 30.1875 C 11.433594 28.597656 11.929688 22.824219 15.304688 16.824219 C 17.648438 12.640625 20.84375 9.503906 23.363281 8.820312 C 24.355469 8.550781 25.300781 8.640625 26.019531 9.09375 C 28.722656 10.6875 28.226562 16.460938 24.851562 22.460938 C 22.507812 26.640625 19.3125 29.777344 16.792969 30.460938 C 16.429688 30.550781 16.070312 30.597656 15.710938 30.597656 Z M 24.445312 9.320312 C 24.128906 9.320312 23.859375 9.367188 23.5 9.457031 C 21.113281 10.09375 18.097656 13.140625 15.800781 17.140625 C 12.648438 22.734375 12.019531 28.234375 14.40625 29.644531 C 14.992188 30.007812 15.757812 30.050781 16.613281 29.824219 C 18.996094 29.1875 22.015625 26.140625 24.308594 22.140625 C 27.460938 16.550781 28.089844 11.050781 25.707031 9.640625 C 25.34375 9.414062 24.941406 9.320312 24.445312 9.320312 Z M 15.710938 29.007812 C 15.394531 29.007812 15.125 28.960938 14.902344 28.824219 C 13.054688 27.734375 13.867188 22.503906 16.65625 17.597656 C 18.773438 13.824219 21.652344 10.914062 23.769531 10.367188 C 24.355469 10.1875 24.851562 10.230469 25.253906 10.457031 C 27.101562 11.550781 26.289062 16.777344 23.5 21.6875 C 21.382812 25.460938 18.503906 28.371094 16.386719 28.914062 C 16.160156 29.007812 15.890625 29.007812 15.710938 29.007812 Z M 24.445312 10.914062 C 24.308594 10.914062 24.128906 10.957031 23.90625 11.003906 C 21.921875 11.550781 19.222656 14.324219 17.152344 17.960938 C 14.179688 23.234375 14 27.597656 15.171875 28.324219 C 15.394531 28.460938 15.757812 28.460938 16.160156 28.371094 C 18.140625 27.824219 20.84375 25.050781 22.914062 21.414062 C 25.886719 16.140625 26.066406 11.777344 24.894531 11.050781 C 24.804688 10.957031 24.625 10.914062 24.445312 10.914062 Z M 24.445312 10.914062 "/>
<path style=" stroke:none;fill-rule:nonzero;fill:rgb(46.669006%,79.60968%,82.348633%);fill-opacity:1;" d="M 24.445312 30.277344 C 24.128906 30.277344 23.769531 30.234375 23.453125 30.144531 C 20.976562 29.460938 17.871094 26.371094 15.578125 22.277344 C 12.289062 16.414062 11.703125 10.867188 14.269531 9.367188 C 14.945312 8.957031 15.800781 8.867188 16.703125 9.140625 C 19.175781 9.820312 22.285156 12.914062 24.578125 17.003906 C 27.867188 22.867188 28.453125 28.414062 25.886719 29.914062 C 25.480469 30.144531 24.984375 30.277344 24.445312 30.277344 Z M 15.710938 10.59375 C 15.484375 10.59375 15.261719 10.640625 15.082031 10.730469 C 13.59375 11.59375 14.046875 16.414062 16.925781 21.503906 C 18.996094 25.1875 21.789062 28.050781 23.859375 28.597656 C 24.355469 28.734375 24.804688 28.734375 25.121094 28.507812 C 26.605469 27.640625 26.15625 22.824219 23.273438 17.730469 C 21.203125 14.050781 18.414062 11.1875 16.339844 10.640625 C 16.070312 10.59375 15.890625 10.59375 15.710938 10.59375 Z M 15.710938 10.59375 "/>
<path style=" stroke:none;fill-rule:nonzero;fill:rgb(27.839661%,16.859436%,16.079712%);fill-opacity:1;" d="M 24.445312 30.597656 C 24.085938 30.597656 23.722656 30.550781 23.363281 30.460938 C 20.796875 29.777344 17.648438 26.640625 15.304688 22.460938 C 11.839844 16.367188 11.34375 10.730469 14.136719 9.09375 C 14.902344 8.640625 15.800781 8.550781 16.792969 8.820312 C 19.359375 9.503906 22.507812 12.640625 24.851562 16.824219 C 28.226562 22.824219 28.765625 28.550781 26.019531 30.1875 C 25.570312 30.460938 25.03125 30.597656 24.445312 30.597656 Z M 15.710938 9.320312 C 15.261719 9.320312 14.8125 9.414062 14.449219 9.640625 C 12.066406 11.050781 12.695312 16.503906 15.847656 22.140625 C 18.097656 26.1875 21.160156 29.1875 23.542969 29.824219 C 24.355469 30.050781 25.121094 29.960938 25.75 29.644531 C 28.136719 28.234375 27.507812 22.777344 24.355469 17.140625 C 22.105469 13.09375 19.042969 10.09375 16.65625 9.457031 C 16.296875 9.367188 15.980469 9.320312 15.710938 9.320312 Z M 24.445312 29.007812 C 24.21875 29.007812 23.996094 28.960938 23.769531 28.914062 C 21.609375 28.324219 18.773438 25.414062 16.65625 21.6875 C 13.910156 16.777344 13.101562 11.550781 14.902344 10.457031 C 15.304688 10.230469 15.800781 10.1875 16.386719 10.367188 C 18.546875 10.957031 21.382812 13.867188 23.5 17.597656 C 26.246094 22.503906 27.054688 27.734375 25.253906 28.824219 C 25.03125 28.960938 24.761719 29.007812 24.445312 29.007812 Z M 15.710938 10.914062 C 15.53125 10.914062 15.351562 10.957031 15.214844 11.050781 C 14.046875 11.730469 14.226562 16.140625 17.195312 21.414062 C 19.222656 25.050781 21.96875 27.824219 23.949219 28.371094 C 24.398438 28.507812 24.714844 28.460938 24.941406 28.324219 C 26.109375 27.640625 25.929688 23.234375 22.960938 17.960938 C 20.933594 14.324219 18.1875 11.550781 16.207031 11.003906 C 16.027344 10.914062 15.847656 10.914062 15.710938 10.914062 Z M 15.710938 10.914062 "/>
<path style=" stroke:none;fill-rule:nonzero;fill:rgb(46.669006%,79.60968%,82.348633%);fill-opacity:1;" d="M 22.554688 19.640625 C 22.554688 19.972656 22.492188 20.292969 22.367188 20.597656 C 22.238281 20.90625 22.0625 21.175781 21.828125 21.410156 C 21.597656 21.644531 21.328125 21.824219 21.027344 21.953125 C 20.722656 22.078125 20.40625 22.140625 20.078125 22.140625 C 19.75 22.140625 19.433594 22.078125 19.128906 21.953125 C 18.828125 21.824219 18.558594 21.644531 18.328125 21.410156 C 18.09375 21.175781 17.917969 20.90625 17.789062 20.597656 C 17.664062 20.292969 17.601562 19.972656 17.601562 19.640625 C 17.601562 19.308594 17.664062 18.992188 17.789062 18.683594 C 17.917969 18.378906 18.09375 18.109375 18.328125 17.875 C 18.558594 17.640625 18.828125 17.457031 19.128906 17.332031 C 19.433594 17.203125 19.75 17.140625 20.078125 17.140625 C 20.40625 17.140625 20.722656 17.203125 21.027344 17.332031 C 21.328125 17.457031 21.597656 17.640625 21.828125 17.875 C 22.0625 18.109375 22.238281 18.378906 22.367188 18.683594 C 22.492188 18.992188 22.554688 19.308594 22.554688 19.640625 Z M 22.554688 19.640625 "/>
<path style=" stroke:none;fill-rule:nonzero;fill:rgb(27.839661%,16.859436%,16.079712%);fill-opacity:1;" d="M 20.078125 22.367188 C 18.59375 22.367188 17.375 21.140625 17.375 19.640625 C 17.375 18.140625 18.59375 16.914062 20.078125 16.914062 C 21.5625 16.914062 22.777344 18.140625 22.777344 19.640625 C 22.777344 21.140625 21.5625 22.367188 20.078125 22.367188 Z M 20.078125 17.367188 C 18.816406 17.367188 17.828125 18.367188 17.828125 19.640625 C 17.828125 20.914062 18.816406 21.914062 20.078125 21.914062 C 21.339844 21.914062 22.328125 20.914062 22.328125 19.640625 C 22.328125 18.367188 21.339844 17.367188 20.078125 17.367188 Z M 20.078125 17.367188 "/>
<path style=" stroke:none;fill-rule:nonzero;fill:rgb(27.839661%,16.859436%,16.079712%);fill-opacity:1;" d="M 20.078125 21.234375 C 20.03125 21.234375 19.941406 21.1875 19.941406 21.097656 C 19.941406 21.003906 20.03125 21.003906 20.078125 21.003906 C 20.214844 21.003906 20.394531 20.960938 20.527344 20.914062 C 20.707031 20.824219 20.933594 20.734375 21.070312 20.550781 C 21.113281 20.503906 21.203125 20.503906 21.25 20.550781 C 21.292969 20.597656 21.292969 20.6875 21.25 20.734375 C 21.070312 20.914062 20.84375 21.050781 20.617188 21.140625 C 20.4375 21.1875 20.257812 21.234375 20.078125 21.234375 Z M 20.078125 21.234375 "/>
<path style=" stroke:none;fill-rule:nonzero;fill:rgb(27.839661%,16.859436%,16.079712%);fill-opacity:1;" d="M 21.382812 20.414062 C 21.382812 20.414062 21.339844 20.414062 21.339844 20.414062 C 21.292969 20.367188 21.25 20.324219 21.292969 20.277344 C 21.382812 20.097656 21.429688 19.867188 21.429688 19.6875 C 21.429688 19.140625 21.160156 18.6875 20.664062 18.460938 C 20.617188 18.414062 20.574219 18.367188 20.617188 18.324219 C 20.664062 18.277344 20.707031 18.230469 20.753906 18.277344 C 21.292969 18.550781 21.652344 19.097656 21.652344 19.6875 C 21.652344 19.914062 21.609375 20.1875 21.472656 20.367188 C 21.472656 20.367188 21.429688 20.414062 21.382812 20.414062 Z M 21.382812 20.414062 "/>
<path style=" stroke:none;fill-rule:nonzero;fill:rgb(27.839661%,16.859436%,16.079712%);fill-opacity:1;" d="M 19.269531 18.503906 C 19.222656 18.503906 19.175781 18.503906 19.175781 18.460938 C 19.132812 18.414062 19.175781 18.324219 19.222656 18.324219 C 19.492188 18.140625 19.761719 18.050781 20.078125 18.050781 C 20.121094 18.050781 20.214844 18.097656 20.214844 18.1875 C 20.214844 18.277344 20.121094 18.277344 20.078125 18.277344 C 19.808594 18.277344 19.582031 18.367188 19.359375 18.503906 C 19.3125 18.503906 19.3125 18.503906 19.269531 18.503906 Z M 19.269531 18.503906 "/>
<path style=" stroke:none;fill-rule:nonzero;fill:rgb(27.839661%,16.859436%,16.079712%);fill-opacity:1;" d="M 21.5625 14.050781 C 21.519531 14.050781 21.519531 14.050781 21.472656 14.003906 C 19.941406 12.09375 18.457031 10.820312 17.152344 10.230469 C 17.105469 10.1875 17.0625 10.140625 17.105469 10.09375 C 17.152344 10.050781 17.195312 10.003906 17.242188 10.050781 C 18.59375 10.640625 20.121094 11.914062 21.652344 13.914062 C 21.699219 13.957031 21.699219 14.050781 21.652344 14.09375 C 21.609375 14.050781 21.5625 14.050781 21.5625 14.050781 Z M 21.5625 14.050781 "/>
<path style=" stroke:none;fill-rule:nonzero;fill:rgb(27.839661%,16.859436%,16.079712%);fill-opacity:1;" d="M 14.449219 10.277344 C 14.40625 10.277344 14.40625 10.277344 14.359375 10.230469 C 14.316406 10.1875 14.316406 10.09375 14.359375 10.050781 C 14.496094 9.957031 15.125 9.503906 16.339844 9.730469 C 16.386719 9.730469 16.429688 9.820312 16.429688 9.867188 C 16.429688 9.914062 16.339844 9.957031 16.296875 9.957031 C 15.171875 9.730469 14.539062 10.140625 14.496094 10.230469 C 14.496094 10.230469 14.449219 10.277344 14.449219 10.277344 Z M 14.449219 10.277344 "/>
<path style=" stroke:none;fill-rule:nonzero;fill:rgb(27.839661%,16.859436%,16.079712%);fill-opacity:1;" d="M 29.800781 21.960938 C 29.757812 21.960938 29.757812 21.960938 29.710938 21.914062 C 29.667969 21.867188 29.667969 21.777344 29.710938 21.734375 C 30.703125 20.914062 31.0625 20.003906 30.835938 18.960938 C 30.835938 18.914062 30.882812 18.824219 30.925781 18.824219 C 30.972656 18.824219 31.0625 18.867188 31.0625 18.914062 C 31.289062 20.003906 30.882812 21.050781 29.847656 21.914062 C 29.847656 21.960938 29.847656 21.960938 29.800781 21.960938 Z M 29.800781 21.960938 "/>
<path style=" stroke:none;fill-rule:nonzero;fill:rgb(27.839661%,16.859436%,16.079712%);fill-opacity:1;" d="M 28 22.960938 C 27.957031 22.960938 27.910156 22.914062 27.910156 22.867188 C 27.910156 22.824219 27.910156 22.734375 28 22.734375 C 28 22.734375 28.585938 22.550781 29.214844 22.140625 C 29.261719 22.097656 29.351562 22.140625 29.351562 22.1875 C 29.398438 22.234375 29.351562 22.324219 29.308594 22.324219 C 28.632812 22.777344 28.046875 22.960938 28 22.960938 C 28.046875 22.960938 28 22.960938 28 22.960938 Z M 28 22.960938 "/>
<path style=" stroke:none;fill-rule:nonzero;fill:rgb(27.839661%,16.859436%,16.079712%);fill-opacity:1;" d="M 15.53125 29.644531 C 14.40625 29.597656 13.683594 28.777344 13.414062 27.234375 C 13.414062 27.1875 13.460938 27.097656 13.503906 27.097656 C 13.550781 27.097656 13.640625 27.140625 13.640625 27.1875 C 13.867188 28.640625 14.496094 29.371094 15.53125 29.414062 C 15.578125 29.414062 15.621094 29.460938 15.621094 29.550781 C 15.621094 29.550781 15.578125 29.644531 15.53125 29.644531 Z M 15.53125 29.644531 "/>
<path style=" stroke:none;fill-rule:nonzero;fill:rgb(27.839661%,16.859436%,16.079712%);fill-opacity:1;" d="M 13.460938 26.277344 C 13.414062 26.277344 13.371094 26.234375 13.324219 26.1875 C 13.28125 25.234375 13.414062 24.371094 13.460938 24.277344 C 13.460938 24.234375 13.550781 24.1875 13.59375 24.1875 C 13.640625 24.1875 13.683594 24.277344 13.683594 24.324219 C 13.683594 24.371094 13.550781 25.1875 13.550781 26.1875 C 13.550781 26.234375 13.503906 26.277344 13.460938 26.277344 Z M 13.460938 26.277344 "/>
<path style=" stroke:none;fill-rule:nonzero;fill:rgb(99.21875%,98.81897%,93.728638%);fill-opacity:1;" d="M 32.324219 25.6875 C 33.179688 25.6875 33.898438 25.6875 33.898438 25.6875 C 34.84375 25.6875 35.609375 24.914062 35.609375 24.003906 C 35.609375 23.1875 35.023438 22.503906 34.257812 22.324219 C 34.257812 22.234375 34.257812 22.1875 34.257812 22.097656 C 34.257812 21.140625 33.449219 20.324219 32.457031 20.324219 C 31.871094 20.324219 31.378906 20.597656 31.015625 21.003906 C 30.925781 19.914062 29.9375 19.097656 28.8125 19.230469 C 27.957031 19.324219 27.28125 19.960938 27.144531 20.777344 C 27.101562 21.050781 27.101562 21.277344 27.144531 21.550781 C 26.921875 21.324219 26.605469 21.140625 26.246094 21.140625 C 25.617188 21.140625 25.074219 21.640625 25.03125 22.277344 C 24.714844 22.234375 24.398438 22.234375 24.085938 22.324219 C 23.453125 22.550781 22.960938 23.1875 22.960938 23.871094 C 22.914062 24.824219 23.722656 25.640625 24.667969 25.640625 C 24.761719 25.640625 24.984375 25.640625 25.074219 25.640625 L 28.632812 25.640625 M 29.398438 25.6875 L 29.578125 25.6875 "/>
<path style=" stroke:none;fill-rule:nonzero;fill:rgb(27.839661%,16.859436%,16.079712%);fill-opacity:1;" d="M 33.898438 25.914062 L 32.324219 25.914062 C 32.1875 25.914062 32.097656 25.824219 32.097656 25.6875 C 32.097656 25.550781 32.1875 25.460938 32.324219 25.460938 L 33.898438 25.460938 C 34.707031 25.460938 35.382812 24.777344 35.382812 24.003906 C 35.382812 23.324219 34.890625 22.6875 34.214844 22.550781 C 34.078125 22.503906 34.035156 22.414062 34.035156 22.277344 C 34.035156 22.234375 34.035156 22.140625 34.035156 22.097656 C 34.035156 21.234375 33.3125 20.550781 32.457031 20.550781 C 31.960938 20.550781 31.511719 20.777344 31.199219 21.140625 C 31.152344 21.234375 31.0625 21.234375 30.972656 21.234375 C 30.882812 21.1875 30.835938 21.140625 30.792969 21.050781 C 30.746094 20.597656 30.523438 20.1875 30.160156 19.867188 C 29.800781 19.550781 29.308594 19.414062 28.8125 19.460938 C 28.089844 19.550781 27.460938 20.097656 27.324219 20.824219 C 27.28125 21.050781 27.28125 21.277344 27.324219 21.503906 C 27.324219 21.597656 27.28125 21.6875 27.191406 21.734375 C 27.101562 21.777344 27.011719 21.777344 26.921875 21.6875 C 26.742188 21.460938 26.46875 21.367188 26.199219 21.367188 C 25.660156 21.367188 25.253906 21.777344 25.210938 22.277344 C 25.210938 22.324219 25.164062 22.414062 25.121094 22.460938 C 25.074219 22.503906 24.984375 22.503906 24.941406 22.503906 C 24.667969 22.460938 24.398438 22.460938 24.128906 22.550781 C 23.542969 22.777344 23.183594 23.277344 23.140625 23.871094 C 23.140625 24.277344 23.273438 24.640625 23.542969 24.914062 C 23.816406 25.234375 24.21875 25.371094 24.625 25.371094 L 28.585938 25.371094 C 28.722656 25.371094 28.8125 25.460938 28.8125 25.597656 C 28.8125 25.734375 28.722656 25.824219 28.585938 25.824219 L 24.625 25.824219 C 24.085938 25.824219 23.589844 25.597656 23.230469 25.234375 C 22.871094 24.871094 22.6875 24.371094 22.6875 23.824219 C 22.734375 23.050781 23.230469 22.367188 23.949219 22.097656 C 24.21875 22.003906 24.488281 21.960938 24.804688 22.003906 C 24.941406 21.367188 25.523438 20.914062 26.199219 20.914062 C 26.425781 20.914062 26.652344 20.960938 26.832031 21.050781 C 26.832031 20.960938 26.832031 20.824219 26.875 20.734375 C 27.054688 19.824219 27.820312 19.097656 28.765625 19.003906 C 29.398438 18.914062 29.980469 19.097656 30.433594 19.503906 C 30.746094 19.777344 31.015625 20.140625 31.109375 20.550781 C 31.46875 20.277344 31.917969 20.097656 32.367188 20.097656 C 33.492188 20.097656 34.394531 21.003906 34.394531 22.097656 C 34.394531 22.097656 34.394531 22.140625 34.394531 22.140625 C 35.203125 22.414062 35.746094 23.140625 35.746094 23.960938 C 35.835938 25.050781 34.980469 25.914062 33.898438 25.914062 Z M 29.578125 25.914062 L 29.398438 25.914062 C 29.261719 25.914062 29.171875 25.824219 29.171875 25.6875 C 29.171875 25.550781 29.261719 25.460938 29.398438 25.460938 L 29.578125 25.460938 C 29.710938 25.460938 29.800781 25.550781 29.800781 25.6875 C 29.800781 25.824219 29.667969 25.914062 29.578125 25.914062 Z M 29.578125 25.914062 "/>
<path style=" stroke:none;fill-rule:nonzero;fill:rgb(27.839661%,16.859436%,16.079712%);fill-opacity:1;" d="M 33.132812 23.277344 C 33.042969 23.277344 33 23.1875 33.042969 23.140625 C 33.042969 23.050781 33.089844 23.003906 33.132812 22.914062 C 33.402344 22.367188 34.167969 22.140625 34.800781 22.460938 C 34.84375 22.503906 34.890625 22.550781 34.84375 22.597656 C 34.800781 22.640625 34.753906 22.6875 34.707031 22.640625 C 34.167969 22.367188 33.539062 22.550781 33.3125 23.003906 C 33.269531 23.050781 33.269531 23.097656 33.269531 23.1875 C 33.222656 23.234375 33.179688 23.277344 33.132812 23.277344 Z M 33.132812 23.277344 "/>
<path style=" stroke:none;fill-rule:nonzero;fill:rgb(27.839661%,16.859436%,16.079712%);fill-opacity:1;" d="M 30.835938 25.914062 L 30.34375 25.914062 C 30.207031 25.914062 30.117188 25.824219 30.117188 25.6875 C 30.117188 25.550781 30.207031 25.460938 30.34375 25.460938 L 30.835938 25.460938 C 30.972656 25.460938 31.0625 25.550781 31.0625 25.6875 C 31.0625 25.824219 30.925781 25.914062 30.835938 25.914062 Z M 30.835938 25.914062 "/>
</g>
</svg>
