<?xml version="1.0" encoding="UTF-8"?>
<svg xmlns="http://www.w3.org/2000/svg" xmlns:xlink="http://www.w3.org/1999/xlink" width="37.5pt" height="37.499999pt" viewBox="0 0 37.5 37.499999" version="1.2">
<defs>
<clipPath id="clip1">
  <path d="M 1 3 L 37.007812 3 L 37.007812 35 L 1 35 Z M 1 3 "/>
</clipPath>
</defs>
<g id="surface1">
<g clip-path="url(#clip1)" clip-rule="nonzero">
<path style=" stroke:none;fill-rule:nonzero;fill:rgb(78.039551%,92.939758%,90.19928%);fill-opacity:1;" d="M 36.25 22 C 36.382812 21.722656 36.503906 21.429688 36.605469 21.128906 C 37.785156 17.640625 36 13.46875 32.238281 12.460938 C 31.832031 7.355469 28.246094 3.851562 24.195312 3.253906 C 19.554688 2.570312 15.308594 5.515625 13.894531 10.199219 C 12.191406 9.59375 10.53125 9.667969 8.964844 10.582031 C 8.253906 10.910156 7.605469 11.394531 7.023438 12.03125 C 6.167969 12.96875 5.613281 14.148438 5.386719 15.394531 C 5.050781 15.449219 4.71875 15.5 4.410156 15.613281 C 2.597656 16.261719 1.453125 17.597656 1.140625 19.613281 C 0.945312 20.867188 1.339844 22.121094 1.558594 22.625 C 2.425781 24.625 4.441406 25.757812 6.484375 25.457031 C 6.585938 25.441406 6.734375 25.488281 6.820312 25.5625 C 6.929688 28.753906 8.480469 31.578125 10.804688 33.191406 C 14.539062 35.78125 19.339844 34.984375 22.367188 31.433594 C 23.667969 32.761719 25.210938 33.40625 27.023438 33.171875 C 28.828125 32.9375 30.230469 31.945312 31.253906 30.324219 C 31.726562 30.453125 32.171875 30.632812 32.636719 30.683594 C 34.449219 30.882812 35.921875 30.164062 37 28.53125 C 37.414062 27.90625 37.804688 27.097656 37.804688 25.683594 C 37.804688 24.222656 37.222656 22.890625 36.25 22 Z M 36.25 22 "/>
</g>
<path style=" stroke:none;fill-rule:nonzero;fill:rgb(99.21875%,98.81897%,93.728638%);fill-opacity:1;" d="M 28.292969 20.28125 C 28.292969 20.28125 33.539062 20.28125 33.570312 20.28125 C 34.78125 20.28125 35.761719 19.296875 35.761719 18.085938 C 35.761719 17.03125 35.015625 16.148438 34.019531 15.941406 C 34.03125 15.847656 34.039062 15.753906 34.039062 15.660156 C 34.039062 14.40625 33.023438 13.390625 31.769531 13.390625 C 31.027344 13.390625 30.371094 13.746094 29.957031 14.292969 C 29.851562 12.898438 28.605469 11.820312 27.144531 12 C 26.078125 12.128906 25.195312 12.953125 25 14.011719 C 24.9375 14.351562 24.941406 14.679688 25.007812 14.988281 C 24.71875 14.679688 24.3125 14.484375 23.859375 14.484375 C 23.03125 14.484375 22.351562 15.132812 22.296875 15.949219 C 21.921875 15.863281 21.511719 15.871094 21.082031 16.03125 C 20.253906 16.34375 19.667969 17.121094 19.632812 18 C 19.582031 19.25 20.582031 20.28125 21.824219 20.28125 C 21.917969 20.28125 22.25 20.28125 22.324219 20.28125 L 26.878906 20.28125 "/>
<path style=" stroke:none;fill-rule:nonzero;fill:rgb(27.839661%,16.859436%,16.079712%);fill-opacity:1;" d="M 33.570312 20.503906 L 28.292969 20.503906 C 28.171875 20.503906 28.070312 20.402344 28.070312 20.28125 C 28.070312 20.15625 28.171875 20.054688 28.292969 20.054688 L 33.570312 20.054688 C 34.652344 20.054688 35.535156 19.171875 35.535156 18.085938 C 35.535156 17.160156 34.878906 16.351562 33.972656 16.160156 C 33.859375 16.136719 33.78125 16.027344 33.796875 15.914062 C 33.808594 15.828125 33.8125 15.746094 33.8125 15.660156 C 33.8125 14.53125 32.894531 13.613281 31.769531 13.613281 C 31.121094 13.613281 30.527344 13.910156 30.136719 14.429688 C 30.082031 14.503906 29.984375 14.535156 29.894531 14.507812 C 29.804688 14.480469 29.742188 14.402344 29.734375 14.3125 C 29.6875 13.691406 29.386719 13.113281 28.90625 12.71875 C 28.417969 12.320312 27.800781 12.144531 27.171875 12.222656 C 26.203125 12.339844 25.398438 13.09375 25.21875 14.050781 C 25.164062 14.351562 25.167969 14.652344 25.226562 14.941406 C 25.246094 15.039062 25.199219 15.140625 25.109375 15.1875 C 25.019531 15.234375 24.910156 15.214844 24.84375 15.140625 C 24.585938 14.863281 24.234375 14.710938 23.859375 14.710938 C 23.15625 14.710938 22.570312 15.261719 22.523438 15.960938 C 22.519531 16.027344 22.488281 16.089844 22.433594 16.128906 C 22.382812 16.167969 22.3125 16.179688 22.25 16.167969 C 21.871094 16.082031 21.515625 16.109375 21.160156 16.242188 C 20.410156 16.523438 19.886719 17.234375 19.859375 18.007812 C 19.835938 18.550781 20.03125 19.0625 20.40625 19.453125 C 20.78125 19.839844 21.285156 20.054688 21.824219 20.054688 L 26.878906 20.054688 C 27.003906 20.054688 27.101562 20.15625 27.101562 20.28125 C 27.101562 20.40625 27.003906 20.503906 26.878906 20.503906 L 21.824219 20.503906 C 21.160156 20.503906 20.542969 20.242188 20.082031 19.761719 C 19.621094 19.285156 19.382812 18.65625 19.410156 17.992188 C 19.445312 17.039062 20.085938 16.167969 21.003906 15.824219 C 21.359375 15.6875 21.734375 15.644531 22.109375 15.6875 C 22.277344 14.871094 23.003906 14.261719 23.859375 14.261719 C 24.167969 14.261719 24.46875 14.34375 24.730469 14.488281 C 24.730469 14.316406 24.746094 14.144531 24.78125 13.96875 C 24.992188 12.820312 25.953125 11.917969 27.117188 11.777344 C 27.871094 11.683594 28.609375 11.894531 29.1875 12.371094 C 29.636719 12.742188 29.957031 13.246094 30.101562 13.804688 C 30.554688 13.394531 31.140625 13.164062 31.769531 13.164062 C 33.144531 13.164062 34.261719 14.285156 34.261719 15.660156 C 34.261719 15.695312 34.261719 15.734375 34.257812 15.769531 C 35.269531 16.074219 35.984375 17.015625 35.984375 18.085938 C 35.984375 19.421875 34.902344 20.503906 33.570312 20.503906 Z M 33.570312 20.503906 "/>
<path style=" stroke:none;fill-rule:nonzero;fill:rgb(99.21875%,98.81897%,93.728638%);fill-opacity:1;" d="M 27.023438 15.449219 C 26.210938 15.398438 25.515625 15.957031 25.464844 16.699219 C 25.457031 16.792969 25.460938 16.882812 25.476562 16.972656 C 25.320312 16.796875 25.085938 16.675781 24.820312 16.660156 C 24.335938 16.625 23.914062 16.949219 23.855469 17.386719 C 23.765625 17.359375 23.671875 17.34375 23.578125 17.339844 C 22.867188 17.292969 22.257812 17.78125 22.214844 18.433594 "/>
<path style=" stroke:none;fill-rule:nonzero;fill:rgb(27.839661%,16.859436%,16.079712%);fill-opacity:1;" d="M 22.214844 18.546875 C 22.210938 18.546875 22.207031 18.546875 22.207031 18.546875 C 22.144531 18.542969 22.097656 18.488281 22.101562 18.425781 C 22.148438 17.714844 22.800781 17.179688 23.585938 17.226562 C 23.644531 17.230469 23.707031 17.238281 23.769531 17.25 C 23.890625 16.816406 24.328125 16.511719 24.828125 16.546875 C 25.019531 16.558594 25.199219 16.617188 25.351562 16.71875 C 25.351562 16.710938 25.351562 16.703125 25.351562 16.691406 C 25.40625 15.886719 26.15625 15.277344 27.03125 15.339844 C 27.09375 15.34375 27.140625 15.394531 27.132812 15.457031 C 27.132812 15.519531 27.085938 15.578125 27.015625 15.5625 C 26.269531 15.511719 25.621094 16.027344 25.574219 16.707031 C 25.570312 16.789062 25.574219 16.875 25.585938 16.957031 C 25.59375 17.003906 25.566406 17.054688 25.523438 17.074219 C 25.476562 17.09375 25.421875 17.085938 25.390625 17.046875 C 25.246094 16.882812 25.042969 16.785156 24.8125 16.769531 C 24.390625 16.753906 24.019531 17.019531 23.964844 17.402344 C 23.960938 17.433594 23.941406 17.460938 23.914062 17.480469 C 23.886719 17.496094 23.855469 17.503906 23.824219 17.492188 C 23.738281 17.46875 23.65625 17.457031 23.570312 17.449219 C 22.917969 17.410156 22.363281 17.851562 22.324219 18.441406 C 22.320312 18.5 22.273438 18.546875 22.214844 18.546875 Z M 22.214844 18.546875 "/>
<path style=" stroke:none;fill-rule:nonzero;fill:rgb(99.21875%,98.81897%,93.728638%);fill-opacity:1;" d="M 34.457031 16.199219 C 33.695312 15.839844 32.8125 16.09375 32.488281 16.765625 C 32.449219 16.851562 32.417969 16.9375 32.398438 17.023438 "/>
<path style=" stroke:none;fill-rule:nonzero;fill:rgb(27.839661%,16.859436%,16.079712%);fill-opacity:1;" d="M 32.398438 17.136719 C 32.390625 17.136719 32.382812 17.136719 32.375 17.132812 C 32.3125 17.121094 32.273438 17.058594 32.289062 17 C 32.3125 16.902344 32.34375 16.808594 32.386719 16.71875 C 32.738281 15.992188 33.691406 15.714844 34.503906 16.097656 C 34.5625 16.125 34.585938 16.191406 34.558594 16.246094 C 34.53125 16.300781 34.464844 16.324219 34.410156 16.300781 C 33.703125 15.964844 32.886719 16.199219 32.589844 16.816406 C 32.554688 16.890625 32.527344 16.96875 32.507812 17.046875 C 32.496094 17.101562 32.449219 17.136719 32.398438 17.136719 Z M 32.398438 17.136719 "/>
<path style=" stroke:none;fill-rule:nonzero;fill:rgb(100%,100%,100%);fill-opacity:1;" d="M 4.703125 18.425781 L 0.207031 18.425781 C 0.0820312 18.425781 -0.0195312 18.324219 -0.0195312 18.203125 C -0.0195312 18.078125 0.0820312 17.976562 0.207031 17.976562 L 4.703125 17.976562 C 4.828125 17.976562 4.929688 18.078125 4.929688 18.203125 C 4.929688 18.324219 4.828125 18.425781 4.703125 18.425781 Z M 5.996094 18.425781 L 5.347656 18.425781 C 5.222656 18.425781 5.125 18.324219 5.125 18.203125 C 5.125 18.078125 5.222656 17.976562 5.347656 17.976562 L 5.996094 17.976562 C 6.121094 17.976562 6.21875 18.078125 6.21875 18.203125 C 6.21875 18.324219 6.121094 18.425781 5.996094 18.425781 Z M 7.816406 18.425781 L 6.671875 18.425781 C 6.550781 18.425781 6.449219 18.324219 6.449219 18.203125 C 6.449219 18.078125 6.550781 17.976562 6.671875 17.976562 L 7.816406 17.976562 C 7.9375 17.976562 8.039062 18.078125 8.039062 18.203125 C 8.039062 18.324219 7.9375 18.425781 7.816406 18.425781 Z M 7.816406 19.261719 L 3.503906 19.261719 C 3.378906 19.261719 3.277344 19.164062 3.277344 19.039062 C 3.277344 18.914062 3.378906 18.8125 3.503906 18.8125 L 7.816406 18.8125 C 7.9375 18.8125 8.039062 18.914062 8.039062 19.039062 C 8.039062 19.164062 7.9375 19.261719 7.816406 19.261719 Z M 2.726562 19.261719 L 2.464844 19.261719 C 2.339844 19.261719 2.242188 19.164062 2.242188 19.039062 C 2.242188 18.914062 2.339844 18.8125 2.464844 18.8125 L 2.726562 18.8125 C 2.847656 18.8125 2.949219 18.914062 2.949219 19.039062 C 2.949219 19.164062 2.847656 19.261719 2.726562 19.261719 Z M 1.660156 19.261719 L 1.007812 19.261719 C 0.882812 19.261719 0.78125 19.164062 0.78125 19.039062 C 0.78125 18.914062 0.882812 18.8125 1.007812 18.8125 L 1.660156 18.8125 C 1.78125 18.8125 1.882812 18.914062 1.882812 19.039062 C 1.882812 19.164062 1.78125 19.261719 1.660156 19.261719 Z M 5.757812 17.589844 L 3.503906 17.589844 C 3.378906 17.589844 3.277344 17.488281 3.277344 17.367188 C 3.277344 17.242188 3.378906 17.140625 3.503906 17.140625 L 5.757812 17.140625 C 5.878906 17.140625 5.980469 17.242188 5.980469 17.367188 C 5.980469 17.488281 5.878906 17.589844 5.757812 17.589844 Z M 5.757812 16.753906 L 5.191406 16.753906 C 5.070312 16.753906 4.96875 16.652344 4.96875 16.527344 C 4.96875 16.40625 5.070312 16.304688 5.191406 16.304688 L 5.757812 16.304688 C 5.878906 16.304688 5.980469 16.40625 5.980469 16.527344 C 5.980469 16.652344 5.878906 16.753906 5.757812 16.753906 Z M 4.289062 20.097656 L 3.5 20.097656 C 3.378906 20.097656 3.277344 20 3.277344 19.875 C 3.277344 19.75 3.378906 19.652344 3.5 19.652344 L 4.289062 19.652344 C 4.414062 19.652344 4.515625 19.75 4.515625 19.875 C 4.515625 20 4.414062 20.097656 4.289062 20.097656 Z M 28.554688 6.640625 L 24.054688 6.640625 C 23.929688 6.640625 23.832031 6.539062 23.832031 6.417969 C 23.832031 6.292969 23.929688 6.191406 24.054688 6.191406 L 28.554688 6.191406 C 28.675781 6.191406 28.777344 6.292969 28.777344 6.417969 C 28.777344 6.539062 28.675781 6.640625 28.554688 6.640625 Z M 29.84375 6.640625 L 29.199219 6.640625 C 29.074219 6.640625 28.972656 6.539062 28.972656 6.417969 C 28.972656 6.292969 29.074219 6.191406 29.199219 6.191406 L 29.84375 6.191406 C 29.96875 6.191406 30.070312 6.292969 30.070312 6.417969 C 30.070312 6.539062 29.96875 6.640625 29.84375 6.640625 Z M 31.664062 6.640625 L 30.523438 6.640625 C 30.398438 6.640625 30.296875 6.539062 30.296875 6.417969 C 30.296875 6.292969 30.398438 6.191406 30.523438 6.191406 L 31.664062 6.191406 C 31.789062 6.191406 31.886719 6.292969 31.886719 6.417969 C 31.886719 6.539062 31.789062 6.640625 31.664062 6.640625 Z M 30.753906 4.96875 L 26.441406 4.96875 C 26.320312 4.96875 26.21875 4.867188 26.21875 4.742188 C 26.21875 4.621094 26.320312 4.519531 26.441406 4.519531 L 30.753906 4.519531 C 30.878906 4.519531 30.980469 4.621094 30.980469 4.742188 C 30.980469 4.867188 30.878906 4.96875 30.753906 4.96875 Z M 25.667969 4.96875 L 25.40625 4.96875 C 25.28125 4.96875 25.183594 4.867188 25.183594 4.742188 C 25.183594 4.621094 25.28125 4.519531 25.40625 4.519531 L 25.667969 4.519531 C 25.789062 4.519531 25.890625 4.621094 25.890625 4.742188 C 25.890625 4.867188 25.789062 4.96875 25.667969 4.96875 Z M 24.601562 4.96875 L 23.945312 4.96875 C 23.824219 4.96875 23.722656 4.867188 23.722656 4.742188 C 23.722656 4.621094 23.824219 4.519531 23.945312 4.519531 L 24.601562 4.519531 C 24.722656 4.519531 24.824219 4.621094 24.824219 4.742188 C 24.824219 4.867188 24.722656 4.96875 24.601562 4.96875 Z M 29.605469 5.804688 L 27.351562 5.804688 C 27.226562 5.804688 27.128906 5.703125 27.128906 5.578125 C 27.128906 5.457031 27.226562 5.355469 27.351562 5.355469 L 29.605469 5.355469 C 29.730469 5.355469 29.828125 5.457031 29.828125 5.578125 C 29.828125 5.703125 29.730469 5.804688 29.605469 5.804688 Z M 29.605469 5.804688 "/>
<path style=" stroke:none;fill-rule:nonzero;fill:rgb(100%,100%,100%);fill-opacity:1;" d="M 29.605469 4.96875 L 29.042969 4.96875 C 28.917969 4.96875 28.816406 4.867188 28.816406 4.742188 C 28.816406 4.621094 28.917969 4.519531 29.042969 4.519531 L 29.605469 4.519531 C 29.730469 4.519531 29.828125 4.621094 29.828125 4.742188 C 29.828125 4.867188 29.730469 4.96875 29.605469 4.96875 Z M 26.699219 5.804688 L 25.910156 5.804688 C 25.785156 5.804688 25.6875 5.703125 25.6875 5.578125 C 25.6875 5.457031 25.785156 5.355469 25.910156 5.355469 L 26.699219 5.355469 C 26.824219 5.355469 26.921875 5.457031 26.921875 5.578125 C 26.921875 5.703125 26.824219 5.804688 26.699219 5.804688 Z M 26.699219 5.804688 "/>
<path style=" stroke:none;fill-rule:nonzero;fill:rgb(94.509888%,73.728943%,9.799194%);fill-opacity:1;" d="M 20.425781 28.394531 L 20.425781 30.507812 L 21.273438 29.800781 L 22.117188 30.507812 L 22.117188 28.394531 Z M 20.425781 28.394531 "/>
<path style=" stroke:none;fill-rule:nonzero;fill:rgb(27.839661%,16.859436%,16.079712%);fill-opacity:1;" d="M 20.425781 30.730469 C 20.394531 30.730469 20.359375 30.722656 20.332031 30.710938 C 20.253906 30.671875 20.203125 30.59375 20.203125 30.507812 L 20.203125 28.394531 C 20.203125 28.269531 20.300781 28.167969 20.425781 28.167969 L 22.117188 28.167969 C 22.242188 28.167969 22.339844 28.269531 22.339844 28.394531 L 22.339844 30.507812 C 22.339844 30.59375 22.292969 30.671875 22.210938 30.710938 C 22.132812 30.746094 22.039062 30.734375 21.972656 30.679688 L 21.273438 30.09375 L 20.570312 30.679688 C 20.527344 30.714844 20.476562 30.730469 20.425781 30.730469 Z M 20.652344 28.617188 L 20.652344 30.027344 L 21.128906 29.628906 C 21.210938 29.5625 21.332031 29.5625 21.414062 29.628906 L 21.894531 30.027344 L 21.894531 28.617188 C 21.894531 28.617188 20.652344 28.617188 20.652344 28.617188 Z M 13.8125 27.152344 C 13.722656 27.152344 13.644531 27.078125 13.644531 26.984375 L 13.644531 26.140625 C 13.644531 26.046875 13.722656 25.96875 13.8125 25.96875 C 13.90625 25.96875 13.980469 26.046875 13.980469 26.140625 L 13.980469 26.984375 C 13.980469 27.078125 13.90625 27.152344 13.8125 27.152344 Z M 13.8125 27.996094 C 13.722656 27.996094 13.644531 27.921875 13.644531 27.828125 L 13.644531 27.546875 C 13.644531 27.453125 13.722656 27.378906 13.8125 27.378906 C 13.90625 27.378906 13.980469 27.453125 13.980469 27.546875 L 13.980469 27.828125 C 13.980469 27.921875 13.90625 27.996094 13.8125 27.996094 Z M 13.8125 27.996094 "/>
<path style=" stroke:none;fill-rule:nonzero;fill:rgb(53.329468%,53.729248%,72.549438%);fill-opacity:1;" d="M 13.097656 11.164062 C 12.671875 11.164062 12.296875 10.933594 12.039062 10.574219 L 12.039062 27.089844 C 12.039062 27.914062 12.707031 28.582031 13.53125 28.582031 L 24.4375 28.582031 C 25.832031 28.582031 26.972656 27.441406 26.972656 26.042969 L 26.972656 11.164062 Z M 13.097656 11.164062 "/>
<path style=" stroke:none;fill-rule:nonzero;fill:rgb(27.839661%,16.859436%,16.079712%);fill-opacity:1;" d="M 24.4375 28.894531 L 13.53125 28.894531 C 12.535156 28.894531 11.722656 28.085938 11.722656 27.089844 L 11.722656 10.125 C 11.722656 9.988281 11.8125 9.867188 11.941406 9.824219 C 12.074219 9.78125 12.210938 10.277344 12.292969 10.390625 C 12.507812 10.6875 12.792969 10.851562 13.097656 10.851562 L 26.972656 10.851562 C 27.148438 10.851562 27.289062 10.992188 27.289062 11.164062 L 27.289062 26.042969 C 27.289062 27.617188 26.007812 28.894531 24.4375 28.894531 Z M 12.351562 11.277344 L 12.351562 27.089844 C 12.351562 27.738281 12.878906 28.265625 13.53125 28.265625 L 24.4375 28.265625 C 25.664062 28.265625 26.660156 27.269531 26.660156 26.042969 L 26.660156 11.480469 L 13.097656 11.480469 C 12.835938 11.480469 12.582031 11.410156 12.351562 11.277344 Z M 12.351562 11.277344 "/>
<path style=" stroke:none;fill-rule:nonzero;fill:rgb(39.99939%,41.569519%,67.83905%);fill-opacity:1;" d="M 13.8125 28.253906 L 13.355469 28.253906 C 12.789062 28.253906 12.332031 27.792969 12.332031 27.230469 L 12.332031 9.085938 L 13.8125 9.085938 C 13.8125 9.085938 13.8125 28.253906 13.8125 28.253906 Z M 13.8125 28.253906 "/>
<path style=" stroke:none;fill-rule:nonzero;fill:rgb(27.839661%,16.859436%,16.079712%);fill-opacity:1;" d="M 13.722656 25.742188 C 13.601562 25.742188 13.5 25.667969 13.5 25.574219 L 13.5 9.226562 C 13.5 9.132812 13.601562 9.058594 13.722656 9.058594 C 13.847656 9.058594 13.949219 9.132812 13.949219 9.226562 L 13.949219 25.574219 C 13.949219 25.667969 13.847656 25.742188 13.722656 25.742188 Z M 13.722656 25.742188 "/>
<path style=" stroke:none;fill-rule:nonzero;fill:rgb(99.21875%,98.81897%,93.728638%);fill-opacity:1;" d="M 13.289062 8.5 C 12.535156 8.5 11.925781 9.09375 11.925781 9.835938 C 11.925781 10.574219 12.535156 11.171875 13.289062 11.171875 L 26.972656 11.171875 C 26.972656 11.171875 26.519531 10.46875 26.519531 9.8125 C 26.519531 9.15625 26.972656 8.5 26.972656 8.5 Z M 13.289062 8.5 "/>
<path style=" stroke:none;fill-rule:nonzero;fill:rgb(27.839661%,16.859436%,16.079712%);fill-opacity:1;" d="M 27.023438 11.507812 L 13.335938 11.507812 C 12.4375 11.507812 11.707031 10.785156 11.707031 9.902344 C 11.707031 9.015625 12.4375 8.296875 13.335938 8.296875 L 27.023438 8.296875 C 27.121094 8.296875 27.214844 8.351562 27.261719 8.441406 C 27.308594 8.527344 27.300781 8.636719 27.242188 8.71875 C 27.238281 8.722656 26.835938 9.316406 26.835938 9.878906 C 26.835938 10.351562 27.132812 10.914062 27.25 11.089844 C 27.300781 11.175781 27.304688 11.28125 27.257812 11.367188 C 27.210938 11.453125 27.121094 11.507812 27.023438 11.507812 Z M 13.335938 8.832031 C 12.734375 8.832031 12.242188 9.3125 12.242188 9.902344 C 12.242188 10.488281 12.734375 10.96875 13.335938 10.96875 L 26.574219 10.96875 C 26.441406 10.679688 26.296875 10.277344 26.296875 9.878906 C 26.296875 9.488281 26.433594 9.109375 26.5625 8.832031 C 26.5625 8.832031 13.335938 8.832031 13.335938 8.832031 Z M 13.863281 27.78125 C 13.769531 27.78125 13.695312 27.703125 13.695312 27.613281 L 13.695312 26.203125 C 13.695312 26.109375 13.769531 26.035156 13.863281 26.035156 C 13.953125 26.035156 14.03125 26.109375 14.03125 26.203125 L 14.03125 27.613281 C 14.03125 27.703125 13.953125 27.78125 13.863281 27.78125 Z M 13.863281 27.78125 "/>
<path style=" stroke:none;fill-rule:nonzero;fill:rgb(27.839661%,16.859436%,16.079712%);fill-opacity:1;" d="M 26.542969 9.292969 L 14.089844 9.292969 C 14.054688 9.292969 14.023438 9.265625 14.023438 9.226562 C 14.023438 9.191406 14.054688 9.160156 14.089844 9.160156 L 26.546875 9.160156 C 26.582031 9.160156 26.613281 9.191406 26.613281 9.226562 C 26.613281 9.265625 26.582031 9.292969 26.542969 9.292969 Z M 26.5625 9.898438 L 13.070312 9.898438 C 13.035156 9.898438 13.003906 9.871094 13.003906 9.832031 C 13.003906 9.796875 13.035156 9.765625 13.070312 9.765625 L 26.5625 9.765625 C 26.601562 9.765625 26.628906 9.796875 26.628906 9.832031 C 26.628906 9.871094 26.601562 9.898438 26.5625 9.898438 Z M 26.542969 10.53125 L 14.089844 10.53125 C 14.054688 10.53125 14.023438 10.5 14.023438 10.464844 C 14.023438 10.425781 14.054688 10.398438 14.089844 10.398438 L 26.546875 10.398438 C 26.582031 10.398438 26.613281 10.425781 26.613281 10.464844 C 26.613281 10.5 26.582031 10.53125 26.542969 10.53125 Z M 26.542969 10.53125 "/>
<path style=" stroke:none;fill-rule:nonzero;fill:rgb(99.21875%,98.81897%,93.728638%);fill-opacity:1;" d="M 13.507812 29.765625 C 14.351562 29.765625 15.085938 29.765625 15.09375 29.765625 C 16.039062 29.765625 16.808594 29.015625 16.808594 28.089844 C 16.808594 27.28125 16.222656 26.605469 15.445312 26.445312 C 15.457031 26.375 15.460938 26.304688 15.460938 26.230469 C 15.460938 25.273438 14.667969 24.492188 13.6875 24.492188 C 13.109375 24.492188 12.597656 24.765625 12.273438 25.1875 C 12.191406 24.117188 11.214844 23.292969 10.074219 23.429688 C 9.242188 23.53125 8.550781 24.160156 8.398438 24.96875 C 8.347656 25.230469 8.355469 25.480469 8.402344 25.714844 C 8.179688 25.480469 7.863281 25.332031 7.507812 25.332031 C 6.859375 25.332031 6.328125 25.828125 6.289062 26.453125 C 5.992188 26.386719 5.671875 26.390625 5.335938 26.515625 C 4.691406 26.753906 4.230469 27.347656 4.203125 28.019531 C 4.164062 28.976562 4.945312 29.765625 5.917969 29.765625 C 5.988281 29.765625 6.25 29.765625 6.308594 29.765625 L 9.867188 29.765625 M 10.601562 29.765625 L 10.761719 29.765625 "/>
<path style=" stroke:none;fill-rule:nonzero;fill:rgb(27.839661%,16.859436%,16.079712%);fill-opacity:1;" d="M 15.09375 29.988281 L 13.507812 29.988281 C 13.382812 29.988281 13.28125 29.890625 13.28125 29.765625 C 13.28125 29.640625 13.382812 29.539062 13.507812 29.539062 L 15.09375 29.539062 C 15.917969 29.539062 16.585938 28.890625 16.585938 28.089844 C 16.585938 27.40625 16.085938 26.804688 15.402344 26.667969 C 15.289062 26.640625 15.210938 26.535156 15.222656 26.417969 C 15.230469 26.355469 15.238281 26.292969 15.238281 26.230469 C 15.238281 25.398438 14.542969 24.71875 13.6875 24.71875 C 13.195312 24.71875 12.746094 24.9375 12.449219 25.324219 C 12.390625 25.394531 12.296875 25.425781 12.207031 25.402344 C 12.117188 25.375 12.054688 25.296875 12.046875 25.203125 C 12.011719 24.746094 11.796875 24.332031 11.433594 24.035156 C 11.0625 23.730469 10.585938 23.59375 10.101562 23.652344 C 9.363281 23.742188 8.753906 24.300781 8.617188 25.011719 C 8.574219 25.234375 8.578125 25.457031 8.621094 25.671875 C 8.640625 25.769531 8.59375 25.867188 8.507812 25.914062 C 8.417969 25.960938 8.308594 25.945312 8.238281 25.871094 C 8.046875 25.667969 7.785156 25.554688 7.503906 25.554688 C 6.980469 25.554688 6.542969 25.957031 6.507812 26.464844 C 6.503906 26.53125 6.472656 26.589844 6.421875 26.628906 C 6.371094 26.667969 6.300781 26.683594 6.238281 26.667969 C 5.953125 26.609375 5.679688 26.625 5.410156 26.726562 C 4.84375 26.933594 4.449219 27.457031 4.425781 28.027344 C 4.410156 28.421875 4.554688 28.796875 4.828125 29.082031 C 5.113281 29.378906 5.5 29.539062 5.914062 29.539062 L 9.867188 29.539062 C 9.988281 29.539062 10.089844 29.640625 10.089844 29.765625 C 10.089844 29.886719 9.988281 29.988281 9.867188 29.988281 L 5.914062 29.988281 C 5.382812 29.988281 4.871094 29.769531 4.503906 29.390625 C 4.144531 29.015625 3.957031 28.527344 3.980469 28.011719 C 4.007812 27.261719 4.523438 26.574219 5.257812 26.304688 C 5.53125 26.203125 5.8125 26.167969 6.101562 26.195312 C 6.253906 25.570312 6.832031 25.109375 7.507812 25.109375 C 7.726562 25.109375 7.945312 25.160156 8.140625 25.253906 C 8.144531 25.144531 8.15625 25.035156 8.175781 24.925781 C 8.347656 24.027344 9.117188 23.320312 10.046875 23.207031 C 10.660156 23.132812 11.253906 23.304688 11.71875 23.6875 C 12.054688 23.960938 12.292969 24.320312 12.414062 24.71875 C 12.765625 24.429688 13.214844 24.269531 13.6875 24.269531 C 14.789062 24.269531 15.6875 25.148438 15.6875 26.230469 C 15.6875 26.246094 15.6875 26.261719 15.6875 26.277344 C 16.476562 26.523438 17.03125 27.257812 17.03125 28.085938 C 17.03125 29.136719 16.164062 29.988281 15.09375 29.988281 Z M 10.761719 29.988281 L 10.601562 29.988281 C 10.476562 29.988281 10.378906 29.890625 10.378906 29.765625 C 10.378906 29.640625 10.476562 29.539062 10.601562 29.539062 L 10.761719 29.539062 C 10.886719 29.539062 10.988281 29.640625 10.988281 29.765625 C 10.988281 29.890625 10.886719 29.988281 10.761719 29.988281 Z M 10.761719 29.988281 "/>
<path style=" stroke:none;fill-rule:nonzero;fill:rgb(27.839661%,16.859436%,16.079712%);fill-opacity:1;" d="M 14.328125 27.386719 C 14.320312 27.386719 14.3125 27.386719 14.304688 27.382812 C 14.242188 27.371094 14.207031 27.308594 14.21875 27.25 C 14.234375 27.175781 14.261719 27.105469 14.296875 27.035156 C 14.566406 26.484375 15.316406 26.28125 15.964844 26.582031 C 16.019531 26.609375 16.046875 26.675781 16.019531 26.734375 C 15.992188 26.789062 15.925781 26.8125 15.871094 26.785156 C 15.332031 26.539062 14.714844 26.691406 14.496094 27.132812 C 14.472656 27.1875 14.449219 27.242188 14.4375 27.296875 C 14.425781 27.351562 14.378906 27.386719 14.328125 27.386719 Z M 14.328125 27.386719 "/>
<path style=" stroke:none;fill-rule:nonzero;fill:rgb(27.839661%,16.859436%,16.079712%);fill-opacity:1;" d="M 12.015625 29.988281 L 11.519531 29.988281 C 11.394531 29.988281 11.296875 29.890625 11.296875 29.765625 C 11.296875 29.640625 11.394531 29.539062 11.519531 29.539062 L 12.015625 29.539062 C 12.140625 29.539062 12.238281 29.640625 12.238281 29.765625 C 12.238281 29.890625 12.140625 29.988281 12.015625 29.988281 Z M 12.015625 29.988281 "/>
<path style=" stroke:none;fill-rule:nonzero;fill:rgb(27.839661%,16.859436%,16.079712%);fill-opacity:1;" d="M 20.359375 18.335938 C 19.792969 18.335938 19.332031 18.796875 19.332031 19.363281 C 19.332031 19.933594 19.792969 20.394531 20.359375 20.394531 C 20.929688 20.394531 21.386719 19.933594 21.386719 19.363281 C 21.386719 18.796875 20.929688 18.335938 20.359375 18.335938 Z M 20.359375 18.335938 "/>
<path style="fill:none;stroke-width:1;stroke-linecap:butt;stroke-linejoin:miter;stroke:rgb(27.839661%,16.859436%,16.079712%);stroke-opacity:1;stroke-miterlimit:10;" d="M 43.558344 55.301919 C 44.79515 57.435662 49.907863 56.63442 55.464782 53.429451 C 61.01299 50.224481 64.270494 46.192142 63.042398 44.058399 C 61.805592 41.924656 56.692878 42.725898 51.13596 45.930868 C 45.579041 49.135837 42.330247 53.168176 43.558344 55.301919 Z M 43.558344 55.301919 " transform="matrix(0.448484,0,0,0.448522,-3.543021,-2.917422)"/>
<path style="fill:none;stroke-width:1;stroke-linecap:round;stroke-linejoin:miter;stroke:rgb(27.839661%,16.859436%,16.079712%);stroke-opacity:1;stroke-miterlimit:10;" d="M 56.283513 57.958212 C 57.110954 55.928978 57.624838 53.02883 57.624838 49.675805 C 57.624838 43.265866 55.760919 38.432285 53.296016 38.432285 C 50.831113 38.432285 48.975904 43.265866 48.975904 49.675805 C 48.975904 56.094452 50.831113 60.928034 53.296016 60.928034 C 54.018938 60.928034 54.6896 60.501285 55.273164 59.752298 " transform="matrix(0.448484,0,0,0.448522,-3.543021,-2.917422)"/>
<path style="fill:none;stroke-width:1;stroke-linecap:round;stroke-linejoin:miter;stroke:rgb(27.839661%,16.859436%,16.079712%);stroke-opacity:1;stroke-miterlimit:10;" d="M 45.091287 43.02201 C 44.385785 43.196193 43.85448 43.53585 43.558344 44.058399 C 43.114139 44.824805 43.262207 45.852485 43.88932 46.984676 " transform="matrix(0.448484,0,0,0.448522,-3.543021,-2.917422)"/>
<path style="fill:none;stroke-width:1;stroke-linecap:round;stroke-linejoin:miter;stroke:rgb(27.839661%,16.859436%,16.079712%);stroke-opacity:1;stroke-miterlimit:10;" d="M 45.073867 48.656833 C 46.441322 50.2419 48.531699 51.922767 51.13596 53.429451 C 56.692878 56.63442 61.805592 57.435662 63.042398 55.301919 C 64.270494 53.168176 61.01299 49.135837 55.464782 45.930868 C 52.346636 44.136782 49.376559 43.091683 47.146824 42.900082 " transform="matrix(0.448484,0,0,0.448522,-3.543021,-2.917422)"/>
</g>
</svg>
